<svg id="Layer_2" data-name="Layer 2" xmlns="http://www.w3.org/2000/svg" viewBox="0 0 43.38 12.34"><defs><style>.cls-1{fill:#eaa28f;}.cls-2{fill:#dd9283;}.cls-3{fill:none;stroke:#4d2c14;stroke-linecap:round;stroke-miterlimit:10;stroke-width:2px;}</style></defs><title>5</title><path class="cls-1" d="M297.29,195.89c-15.47,4.1-19,3.61-19.23,3.56h0c-.24.05-3.75.54-19.22-3.56a26,26,0,0,0,19.22,8h0A26,26,0,0,0,297.29,195.89Z" transform="translate(-256.3 -192.67)"/><path class="cls-2" d="M286.89,196a78.32,78.32,0,0,0-18,0,41.77,41.77,0,0,1-9.82-.12,114.44,114.44,0,0,0,18.83,2.93,97.78,97.78,0,0,0,18.84-2.93A41.87,41.87,0,0,1,286.89,196Z" transform="translate(-256.3 -192.67)"/><path class="cls-3" d="M275.06,203.82a20.82,20.82,0,0,0,5.64,0" transform="translate(-256.3 -192.67)"/><path class="cls-3" d="M278.56,198.77c-17,0-20-3.4-20-3.4" transform="translate(-256.3 -192.67)"/><path class="cls-3" d="M297.63,195.37s-2,3.4-19.07,3.4" transform="translate(-256.3 -192.67)"/><line class="cls-3" x1="40.48" y1="1" x2="42.38" y2="3.64"/><line class="cls-3" x1="1" y1="3.64" x2="2.89" y2="1"/></svg>