<svg id="Layer_2" data-name="Layer 2" xmlns="http://www.w3.org/2000/svg" viewBox="0 0 42.9 13.67"><defs><style>.cls-1{fill:none;stroke:#4d2c14;stroke-linecap:round;stroke-miterlimit:10;stroke-width:2px;}.cls-2{fill:#eaa28f;}</style></defs><title>2</title><path class="cls-1" d="M275.13,205.13a23.62,23.62,0,0,0,6.34,0" transform="translate(-256.63 -192.67)"/><path class="cls-2" d="M286.88,195.34a60.47,60.47,0,0,0-17.82,0,57.39,57.39,0,0,1-9.71.66,67,67,0,0,0,37.24,0A57.39,57.39,0,0,1,286.88,195.34Z" transform="translate(-256.63 -192.67)"/><path class="cls-1" d="M278.64,198.64c-16.83,0-19.73-3.31-19.73-3.31" transform="translate(-256.63 -192.67)"/><path class="cls-1" d="M297.49,195.33s-2,3.31-18.85,3.31" transform="translate(-256.63 -192.67)"/><line class="cls-1" x1="40.03" y1="1" x2="41.9" y2="3.57"/><line class="cls-1" x1="1" y1="3.57" x2="2.87" y2="1"/></svg>