<svg id="Layer_2" data-name="Layer 2" xmlns="http://www.w3.org/2000/svg" viewBox="0 0 19.79 6.25"><defs><style>.cls-1{fill:none;stroke:#4d2c14;stroke-linecap:round;stroke-miterlimit:10;stroke-width:2px;}</style></defs><title>1</title><path class="cls-1" d="M272,192.24" transform="translate(-253.33 -190)"/><path class="cls-1" d="M271.89,194a3.8,3.8,0,0,1-3.52-.3.54.54,0,0,0-.65.16c-1,1.49-4.58,1.43-4.58,1.43-2.45,0-3.81-.55-4.25-1.28a.71.71,0,0,0-.87-.32,3.85,3.85,0,0,1-3.54.3" transform="translate(-253.33 -190)"/><path class="cls-1" d="M254.39,193.6" transform="translate(-253.33 -190)"/><line class="cls-1" x1="18.09" y1="1" x2="18.79" y2="3.84"/><line class="cls-1" x1="1.69" y1="1" x2="1" y2="3.84"/></svg>