<svg id="Layer_2" data-name="Layer 2" xmlns="http://www.w3.org/2000/svg" viewBox="0 0 23.65 11.17"><defs><style>.cls-1,.cls-2{fill:none;stroke:#4d2c14;stroke-linecap:round;stroke-width:2px;}.cls-1{stroke-miterlimit:10;}.cls-2{stroke-linejoin:round;}.cls-3{fill:#4d2c14;}</style></defs><title>2</title><path class="cls-1" d="M269.33,187.15a10.77,10.77,0,0,0-11.94,0" transform="translate(-251.38 -184.32)"/><path class="cls-2" d="M273.66,191.67l.36,1.45c.19.78-1.67,1.72-2.32,1.23-.94-.69-4.35-3.15-5.69-.53" transform="translate(-251.38 -184.32)"/><path class="cls-2" d="M252.75,191.67l-.36,1.45c-.19.78,1.67,1.72,2.32,1.23.94-.69,4.35-3.15,5.69-.53" transform="translate(-251.38 -184.32)"/><path class="cls-3" d="M272.29,195.31c-.19.51-1.8-.45-3.51-.69s-2.79.41-3,.11,1-1.82,2.74-1.58S272.47,194.84,272.29,195.31Z" transform="translate(-251.38 -184.32)"/><path class="cls-3" d="M254.12,195.31c.19.51,1.8-.45,3.51-.69s2.79.41,3,.11-1-1.82-2.74-1.58S253.94,194.84,254.12,195.31Z" transform="translate(-251.38 -184.32)"/></svg>