<svg id="Layer_1" data-name="Layer 1" xmlns="http://www.w3.org/2000/svg" viewBox="0 0 109.19 37.13"><defs><style>.cls-1{fill:#151514;}.cls-1,.cls-2{stroke:#000;stroke-miterlimit:10;stroke-width:2px;}.cls-2{fill:#22211f;}.cls-3{fill:#f9f9f9;}</style></defs><title>1</title><path class="cls-1" d="M128.53,102.29s-5.45-6-10.86,0l-3.46-5.91s9.56-2.57,17.91,0Z" transform="translate(-68.66 -90.7)"/><path class="cls-2" d="M174.88,100.68l-12.43,2.18-1.18-9.44H174.5A2.44,2.44,0,0,1,176.85,96v2.23A2.49,2.49,0,0,1,174.88,100.68Z" transform="translate(-68.66 -90.7)"/><path class="cls-1" d="M132.3,96.38a11.58,11.58,0,0,0-3.71,9.85c.65,6.76,3.88,20.6,19.58,20.6,20.77,0,22.5-10.69,21.92-23.71-.52-11.71-19.22-11.35-21.2-11.41C146.71,91.65,137.82,91.63,132.3,96.38Z" transform="translate(-68.66 -90.7)"/><polygon class="cls-3" points="61.95 21.47 77.27 2 82.45 2.06 63.72 25.79 61.95 21.47"/><polygon class="cls-3" points="66.03 29.45 86.54 2.31 88.83 2.68 67.34 30.75 66.03 29.45"/><path class="cls-2" d="M71.63,100.68l12.43,2.18,1.17-9.44H72A2.44,2.44,0,0,0,69.66,96v2.23A2.48,2.48,0,0,0,71.63,100.68Z" transform="translate(-68.66 -90.7)"/><path class="cls-1" d="M114.21,96.38a11.58,11.58,0,0,1,3.71,9.85c-.65,6.76-3.89,20.6-19.58,20.6-20.77,0-22.5-10.69-21.92-23.71.52-11.71,19.21-11.35,21.19-11.41C99.8,91.65,108.69,91.63,114.21,96.38Z" transform="translate(-68.66 -90.7)"/><polygon class="cls-3" points="8.94 21.66 23.83 2.31 29.35 1.94 10.15 26.13 8.94 21.66"/><polygon class="cls-3" points="12.52 29.85 33.45 2.17 35.78 2.47 13.85 31.13 12.52 29.85"/></svg>