<svg id="Layer_1" data-name="Layer 1" xmlns="http://www.w3.org/2000/svg" viewBox="0 0 117.49 39"><defs><style>.cls-1{fill:#a5d6d0;stroke:#000;stroke-miterlimit:10;stroke-width:2px;}</style></defs><title>2</title><path d="M113.44,98.4s8.12-3.52,20.69,0l-4.55,5.27s-5.8-7.57-11.89,0Z" transform="translate(-64.89 -91.05)"/><path d="M128.93,108.12c1.08-9.21,12.48-15.24,22.25-15.24,15.22,0,21.37,4.54,21.37,14.56a13.14,13.14,0,0,1-.17,2.07h1.25s1.65-6.27,7-6.94a1.76,1.76,0,0,0,1.55-1.42,9,9,0,0,0-.05-3.65,1.75,1.75,0,0,0-1.57-1.37,31.22,31.22,0,0,1-6.34-1.2c-4.36-1.27-13.17-3.93-20.1-3.87s-15.9,2.9-19.8,6.26C127.85,102.88,128.93,108.12,128.93,108.12Z" transform="translate(-64.89 -91.05)"/><path class="cls-1" d="M129.77,109.69a10,10,0,0,1,1.34-7.34c2.41-3.69,7.93-8.5,20.56-9.72,21.19-2,21.71,13.36,20.85,17.79s-4.79,18.63-21.5,18.63C136,129.05,131.5,118.55,129.77,109.69Z" transform="translate(-64.89 -91.05)"/><path d="M118.33,108.12c-1.08-9.21-12.48-15.24-22.25-15.24-15.22,0-21.37,4.54-21.37,14.56a13.14,13.14,0,0,0,.17,2.07H73.63s-1.65-6.27-7-6.94a1.77,1.77,0,0,1-1.55-1.42,9,9,0,0,1,0-3.65,1.76,1.76,0,0,1,1.58-1.37A31.28,31.28,0,0,0,73,94.92c4.36-1.27,13.17-3.93,20.1-3.87S109,94,112.92,97.31C119.41,102.88,118.33,108.12,118.33,108.12Z" transform="translate(-64.89 -91.05)"/><path class="cls-1" d="M117.49,109.69a10,10,0,0,0-1.34-7.34c-2.4-3.69-7.93-8.5-20.56-9.72-21.19-2-21.7,13.36-20.85,17.79s4.79,18.63,21.5,18.63C111.3,129.05,115.76,118.55,117.49,109.69Z" transform="translate(-64.89 -91.05)"/></svg>