<svg id="Layer_1" data-name="Layer 1" xmlns="http://www.w3.org/2000/svg" viewBox="0 0 115.38 37.34"><defs><style>.cls-1{fill:#a5d6d0;stroke:#000;stroke-miterlimit:10;stroke-width:2px;}.cls-2{fill:#dfdfdf;}</style></defs><title>3</title><path d="M112.61,97.14a103.94,103.94,0,0,1,20.17,0l-2,3a87.92,87.92,0,0,0-16.21,0Z" transform="translate(-65.23 -91.31)"/><path d="M180.2,98.16c-.23,1.09-2.9,1.25-3.34,4.74a2.14,2.14,0,0,1-2.5,1.83,3,3,0,0,1-1.11-.49c0-10.82-5.33-11.31-22.11-11.31-12.7,0-18,4.41-20.13,7.34a6.55,6.55,0,0,0-1.22,3.67c-.26,0-.7,2.75-.7,2.75a10.55,10.55,0,0,1,5.67-12.2,25.38,25.38,0,0,1,11.55-3c9.37-.22,30.34-.53,32.44,1.05C181.48,94.58,180.46,97,180.2,98.16Z" transform="translate(-65.23 -91.31)"/><path class="cls-1" d="M129.8,104.66a6.67,6.67,0,0,1,1.22-4.39c2.12-2.93,7.42-7.34,20.12-7.34,19,0,23.36.64,21.83,16.21s-11.49,18.51-20.17,18.51C144.33,127.65,131.49,128.25,129.8,104.66Z" transform="translate(-65.23 -91.31)"/><rect class="cls-2" x="108.02" y="3.08" width="5.4" height="2.23" rx="1.12"/><path d="M65.63,98.16c.23,1.09,2.9,1.25,3.34,4.74a2.14,2.14,0,0,0,2.5,1.83,3,3,0,0,0,1.11-.49c0-10.82,5.33-11.31,22.11-11.31,12.7,0,18,4.41,20.13,7.34a6.55,6.55,0,0,1,1.22,3.67c.26,0,.7,2.75.7,2.75a10.55,10.55,0,0,0-5.67-12.2,25.38,25.38,0,0,0-11.55-3c-9.37-.22-30.34-.53-32.44,1.05C64.35,94.58,65.37,97,65.63,98.16Z" transform="translate(-65.23 -91.31)"/><path class="cls-1" d="M116,104.66a6.72,6.72,0,0,0-1.21-4.39c-2.12-2.93-7.43-7.34-20.13-7.34-19,0-23.36.64-21.83,16.21S84.35,127.65,93,127.65C101.5,127.65,114.34,128.25,116,104.66Z" transform="translate(-65.23 -91.31)"/><rect class="cls-2" x="67.18" y="94.4" width="5.4" height="2.23" rx="1.12" transform="translate(74.54 99.72) rotate(180)"/></svg>