<svg id="Layer_1" data-name="Layer 1" xmlns="http://www.w3.org/2000/svg" viewBox="0 0 105.75 44.11"><defs><style>.cls-1{fill:#f19199;stroke:#000;stroke-miterlimit:10;stroke-width:2px;}</style></defs><title>4</title><path d="M118.36,98.7a15.34,15.34,0,0,1,.35,6.74,25.58,25.58,0,0,1-3,9.32c-3.16,5.65-9.54,13-14.76,16.17-1.81,1.09-4.69.8-6.13,1.27C73.91,122,70.86,103,70.86,103a11.39,11.39,0,0,1-.15-1.86c0-6.89,6-12.48,13.49-12.48a13.82,13.82,0,0,1,11.31,5.67,1.48,1.48,0,0,0,2.21.16,12.79,12.79,0,0,1,9-3.6A12.24,12.24,0,0,1,118.36,98.7Z" transform="translate(-70.71 -88.7)"/><path class="cls-1" d="M117,101.12a10.77,10.77,0,0,1,.28,5.29c-.12.67-.26,1.32-.42,2-3,12.24-12.34,19.62-17,22.6a5.22,5.22,0,0,1-5.3.22c-18.44-9.75-19.56-25.93-19.56-25.93a11.43,11.43,0,0,1-.13-1.77A11.92,11.92,0,0,1,96.85,97a1.26,1.26,0,0,0,2,.15,10.86,10.86,0,0,1,18.22,4Z" transform="translate(-70.71 -88.7)"/><path d="M128.81,98.7a15.34,15.34,0,0,0-.35,6.74,25.58,25.58,0,0,0,3,9.32c3.16,5.65,9.54,13,14.76,16.17,1.81,1.09,4.69.8,6.13,1.27C173.26,122,176.31,103,176.31,103a11.39,11.39,0,0,0,.15-1.86c0-6.89-6-12.48-13.49-12.48a13.82,13.82,0,0,0-11.31,5.67,1.48,1.48,0,0,1-2.21.16,12.79,12.79,0,0,0-9-3.6A12.24,12.24,0,0,0,128.81,98.7Z" transform="translate(-70.71 -88.7)"/><path class="cls-1" d="M130.14,101.12a10.77,10.77,0,0,0-.28,5.29c.12.67.26,1.32.42,2,3,12.24,12.34,19.62,16.95,22.6a5.22,5.22,0,0,0,5.3.22c18.44-9.75,19.56-25.93,19.56-25.93a11.43,11.43,0,0,0,.13-1.77A11.92,11.92,0,0,0,150.32,97a1.25,1.25,0,0,1-1.95.15,10.87,10.87,0,0,0-18.23,4Z" transform="translate(-70.71 -88.7)"/><path d="M118.72,102.44a8.83,8.83,0,0,0,9.56,0l1.38,7.11s-6.3-3.55-12.6,0Z" transform="translate(-70.71 -88.7)"/></svg>