<svg id="Layer_1" data-name="Layer 1" xmlns="http://www.w3.org/2000/svg" viewBox="0 0 103.66 38.18"><defs><style>.cls-1{fill:#b0dbd8;stroke-miterlimit:10;}.cls-1,.cls-2{stroke:#000;}.cls-2{fill:none;stroke-linecap:round;stroke-linejoin:round;}</style></defs><title>5</title><path class="cls-1" d="M96.3,89.38s-22-.63-21.79,17.58c0,.19,0,.37,0,.54A19.68,19.68,0,0,0,100,125.71c8.17-2.42,18.31-8.9,18.29-26.15C118.24,89,96.3,89.38,96.3,89.38Z" transform="translate(-71.66 -88.87)"/><rect y="15.2" width="3.19" height="2.36" rx="0.55"/><path class="cls-1" d="M150.68,89.38s22-.63,21.79,17.58c0,.19,0,.37,0,.54A19.68,19.68,0,0,1,147,125.71c-8.17-2.42-18.31-8.9-18.3-26.15C128.73,89,150.68,89.38,150.68,89.38Z" transform="translate(-71.66 -88.87)"/><rect x="172.13" y="104.07" width="3.19" height="2.36" rx="0.55" transform="translate(275.79 121.63) rotate(-180)"/><path class="cls-2" d="M128.18,98.88s1.41-4-4.69-4-4.7,4-4.7,4" transform="translate(-71.66 -88.87)"/><line class="cls-2" x1="36.83" y1="1.21" x2="66.5" y2="1.21"/></svg>