<svg id="Layer_1" data-name="Layer 1" xmlns="http://www.w3.org/2000/svg" viewBox="0 0 105.28 78.74"><defs><style>.cls-1{fill:#b0642f;stroke:#4d2c14;stroke-linecap:round;stroke-linejoin:round;stroke-width:2px;}</style></defs><title>1</title><path class="cls-1" d="M167.31,61.69h-.51c-5.72.27-58.55,4.34-50.56,65.41,0,0,1.05,4.59,2.19,11.31l2.17,0s.71-24.23.69-33.41a2,2,0,0,1,1.68-2.06c7.82-1.34,6.17-12.15,7.37-17.29a5.37,5.37,0,0,1,5.51-4.15c4,.23,11.7,1.23,18.49,2.19a92.35,92.35,0,0,0,25.83,0c6.62-.95,14.11-1.93,18.09-2.16a5.37,5.37,0,0,1,5.51,4.15c1.2,5.14-.45,15.95,7.37,17.29a2,2,0,0,1,1.68,2.06c0,9.18.69,33.41.69,33.41l2.17,0c1.15-6.72,2.19-11.31,2.19-11.31C225.87,66,173,62,167.31,61.69Z" transform="translate(-114.42 -60.68)"/></svg>