<svg id="Layer_1" data-name="Layer 1" xmlns="http://www.w3.org/2000/svg" viewBox="0 0 105.28 167.72"><defs><style>.cls-1{fill:#f2cfad;stroke:#4c2c17;}.cls-1,.cls-2{stroke-miterlimit:10;}.cls-1,.cls-2,.cls-3{stroke-width:2px;}.cls-2{fill:#fde3c7;stroke:#4d2c16;}.cls-3{fill:#b0642f;stroke:#4d2c14;stroke-linecap:round;stroke-linejoin:round;}</style></defs><title>hair_1</title><path class="cls-1" d="M182.52,195.45h-36.1s4.74,15.77-2,37.22c3.25,3.25,11.69,4.78,20.05,4.78s16.8-1.53,20.05-4.78C177.78,211.22,182.52,195.45,182.52,195.45Z" transform="translate(-111.97 -70.73)"/><path class="cls-2" d="M212.72,132.19c-.43-14.16-1.45-27.68-8.63-36.1-15.46-18.15-39.58-17.47-39.58-17.47s-24.13-.68-39.59,17.47c-7.18,8.42-8.2,21.94-8.63,36.1-.13,4.39-.66,9.31,0,13.66,1.31,9.07,3.27,24.78,8.14,37.76,1.93,5.15,5.85,11.52,10.58,15C156.9,215,173.7,214,194,198.65c4.72-3.56,8.66-9.89,10.59-15,4.87-13,6.82-28.69,8.14-37.76C213.39,141.5,212.86,136.58,212.72,132.19Z" transform="translate(-111.97 -70.73)"/><path class="cls-3" d="M164.86,71.75v0h-.51v0c-5.72.26-58.55,4.33-50.56,65.4,0,0,1,4.59,2.19,11.31l2.17,0s.71-24.23.69-33.41a2.07,2.07,0,0,1,1.68-2.06c7.82-1.34,6.17-12.15,7.38-17.29a5.37,5.37,0,0,1,5.5-4.15c4,.23,11.71,1.23,18.49,2.19a92.42,92.42,0,0,0,25.84,0c6.61-1,14.11-1.93,18.09-2.16a5.37,5.37,0,0,1,5.5,4.15c1.2,5.14-.45,16,7.37,17.29a2.08,2.08,0,0,1,1.69,2.06c0,9.18.68,33.41.68,33.41l2.17,0c1.15-6.72,2.2-11.31,2.2-11.31C223.42,76.08,170.59,72,164.86,71.75Z" transform="translate(-111.97 -70.73)"/></svg>