<svg id="Layer_1" data-name="Layer 1" xmlns="http://www.w3.org/2000/svg" viewBox="0 0 152.2 313.01"><defs><style>.cls-1{fill:#7a421b;}.cls-1,.cls-2,.cls-3,.cls-5{stroke:#4d2c14;stroke-linecap:round;stroke-linejoin:round;stroke-width:2px;}.cls-2,.cls-4{fill:#b0642f;}.cls-3{fill:#c47037;}.cls-5{fill:none;}</style></defs><title>10</title><path class="cls-1" d="M236,368.35s-4-186.73-13-250.2c-8.2-58.16-47.09-51.26-53.53-49.7-6.44-1.56-45.32-8.46-53.53,49.7-9,63.47-13,250.2-13,250.2Z" transform="translate(-91.07 -58.4)"/><path class="cls-2" d="M92.38,136.44S88.32,154.56,109.6,170L111,146.7Z" transform="translate(-91.07 -58.4)"/><path class="cls-3" d="M235.76,360.47c-6.85,16.08-7.42,3.1-7.42,3.1.1-.18-.5.22-.5.22-4,11.36-7.51,1-7.51,1-.18,0-.39.19-.32.26s-2.58,10.51-5.85.16c0,0,0,0,0,0h0c-1.46,5.83-2.84,0-2.84,0l0,0h-.05l0,0c-1.56,10.24-5.57-.48-5.57-.48-.15,0-.29,0-.42-.06l0,0c.37,11.08-5.7.22-6.48-1.21l-.52-.13a1.61,1.61,0,0,1,.18.26c-2.79,11.12-7.24-2.52-7.24-2.52-5.54-40.83,20.59-202.13,23.64-220.71,2.35,4,5.16,7,8.57,8.57L224.74,170c.68-.49,1.32-1,1.95-1.48C231.39,235.59,235.76,360.47,235.76,360.47Z" transform="translate(-91.07 -58.4)"/><path class="cls-3" d="M119.11,138.59l-9.72,8.08c-5.29,56.12-10.81,213.8-10.81,213.8s3.14,14.94,7.76,3.2c0,0,7.17,12.78,8.06,1.41,0-.16,0-.26,0-.42.35,0,5.08,12.21,6.19.5.65,0,1.3,0,1.93,0l0,0s-.3,11.79,6,0c0,0,.49-.29.39-.15s1.09,11.33,6.55-1.34c1.17,15.06,7.67-2.62,7.67-2.62C148.92,317.7,119.11,138.59,119.11,138.59Z" transform="translate(-91.07 -58.4)"/><path class="cls-4" d="M226.4,152.53l3.45-1.54-4.47-3.69,15.83-8.7s.77,7.93-2.17,13.16Z" transform="translate(-91.07 -58.4)"/><path class="cls-3" d="M167.1,60.29c-47.74-8.5-61.28,46.5-69.78,61.85-8.32,15-6.06,26,5,27.79,13.14,2.2,20.31-11.13,24.17-28.9,9.87-45.44,41-38.58,41-38.58Z" transform="translate(-91.07 -58.4)"/><path class="cls-4" d="M107.94,152.53,104.49,151,109,147.3l-15.83-8.7s-.77,7.93,2.17,13.16Z" transform="translate(-91.07 -58.4)"/><path class="cls-2" d="M226.69,168.55c-.63.5-1.27,1-1.95,1.48l-1.23-21.12-.13-2.21,1-.53L242,136.44a.13.13,0,0,1,0,.06C242.2,137.65,245.09,154,226.69,168.55Z" transform="translate(-91.07 -58.4)"/><path class="cls-2" d="M226.69,168.55c-.63.5-1.27,1-1.95,1.48l-1.23-21.12c-3.41-1.58-6.22-4.57-8.57-8.57l.29-1.75,9.11,7.58.6.5c.09.94.18,1.9.27,2.89C225.7,155.11,226.2,161.51,226.69,168.55Z" transform="translate(-91.07 -58.4)"/><path class="cls-3" d="M241.24,143c-1.36,3.72-4.47,6.16-9.18,7a15.63,15.63,0,0,1-3.22.22,13,13,0,0,1-3.63-.59,11.67,11.67,0,0,1-1.7-.65c-3.41-1.58-6.22-4.57-8.57-8.57-3-5.1-5.26-11.83-7.05-19.32-10.4-43.48-36.31-39.63-40.44-38.72l-.32.08-.24.06v-.1l.28-17.63.07-4.43c47.73-8.5,61.28,46.51,69.78,61.86,3,5.36,4.59,10.21,4.94,14.3a.13.13,0,0,1,0,.06A14.91,14.91,0,0,1,241.24,143Z" transform="translate(-91.07 -58.4)"/><path class="cls-5" d="M167,77s34.53-10.11,42.32,33.75c5.06,28.51,13.48,35.68,18.76,37.21a4.84,4.84,0,0,1,2.9,7.2,13.45,13.45,0,0,1-4.92,4.55" transform="translate(-91.07 -58.4)"/><path class="cls-5" d="M167.3,72.82s36.19-11.53,46,34.43,14.73,36.11,19.52,38.31,2.8,12.86-6.63,16.16" transform="translate(-91.07 -58.4)"/><path class="cls-5" d="M167.49,67.74s43.46-7.13,49.59,38.83,15.75,39,15.75,39" transform="translate(-91.07 -58.4)"/><path class="cls-5" d="M212.12,89.37s18.18,30.53,20.71,41.48a131.13,131.13,0,0,1,2.93,21.68" transform="translate(-91.07 -58.4)"/><path class="cls-5" d="M220.86,104.79s2,34.44,13.54,42.11" transform="translate(-91.07 -58.4)"/><path class="cls-5" d="M222.37,117.81s5.6,6.86,12,28.13" transform="translate(-91.07 -58.4)"/><line class="cls-5" x1="81.44" y1="17.96" x2="85.25" y2="20.85"/><line class="cls-5" x1="79.8" y1="22.9" x2="83.08" y2="20.34"/><line class="cls-5" x1="88.06" y1="17.75" x2="90.87" y2="21.62"/><line class="cls-5" x1="86.61" y1="22.9" x2="90.31" y2="20.85"/><line class="cls-5" x1="94.72" y1="19.17" x2="96.49" y2="23.41"/><line class="cls-5" x1="92.15" y1="24.94" x2="95.6" y2="22.9"/><line class="cls-5" x1="100.64" y1="21.87" x2="101.38" y2="27.07"/><line class="cls-5" x1="95.6" y1="27.38" x2="100.48" y2="26.04"/><line class="cls-5" x1="105.68" y1="26.04" x2="105" y2="31.58"/><line class="cls-5" x1="100.06" y1="30.04" x2="104.49" y2="30.04"/><line class="cls-5" x1="109.51" y1="30.04" x2="108.27" y2="34.9"/><line class="cls-5" x1="104.14" y1="33.7" x2="107.55" y2="34.13"/><line class="cls-5" x1="112.43" y1="35.58" x2="111.89" y2="40.85"/><line class="cls-5" x1="107.12" y1="37.36" x2="110.87" y2="39.32"/><line class="cls-5" x1="115.71" y1="42.27" x2="114.78" y2="46.98"/><line class="cls-5" x1="111.29" y1="44.17" x2="114.1" y2="45.53"/><polyline class="cls-5" points="118.23 56.85 118.23 60 116.4 57.79"/><path class="cls-5" d="M209.3,123.85s1.74,4.08,2.76-.64" transform="translate(-91.07 -58.4)"/><path class="cls-5" d="M205.17,110.06s3,5.87,3.21-1" transform="translate(-91.07 -58.4)"/><path class="cls-5" d="M210.68,129.73s3.38,6.71,2.47-.95" transform="translate(-91.07 -58.4)"/><path class="cls-5" d="M213.15,136.69s3.66,5.05,3.16-1.55" transform="translate(-91.07 -58.4)"/><path class="cls-5" d="M216.83,142.76s4.38,3.21,2.19-2.15" transform="translate(-91.07 -58.4)"/><path class="cls-5" d="M225.38,149.61s4.36.64,1.44-2.14" transform="translate(-91.07 -58.4)"/><path class="cls-5" d="M228.39,151s1,2.79-2.73,3.82" transform="translate(-91.07 -58.4)"/><path class="cls-5" d="M228.1,153.24s-1.76,4.2,2.2,2.16" transform="translate(-91.07 -58.4)"/><line class="cls-5" x1="77.26" y1="14.15" x2="80.74" y2="15.32"/><line class="cls-5" x1="77.26" y1="17.55" x2="79" y2="15.66"/><line class="cls-5" x1="83.94" y1="13.19" x2="86.61" y2="15.32"/><line class="cls-5" x1="83.35" y1="16.61" x2="85.28" y2="14.73"/><line class="cls-5" x1="90.31" y1="13.7" x2="92.15" y2="16"/><line class="cls-5" x1="88.46" y1="17.02" x2="90.87" y2="15.66"/><line class="cls-5" x1="95.97" y1="14.85" x2="98.53" y2="18.3"/><path class="cls-5" d="M184.94,76.7s3-.25,3.38-.75" transform="translate(-91.07 -58.4)"/><line class="cls-5" x1="102.27" y1="17.55" x2="104.14" y2="21.29"/><line class="cls-5" x1="100.06" y1="20.85" x2="102.78" y2="20.34"/><line class="cls-5" x1="107.12" y1="20.85" x2="108.27" y2="24.94"/><line class="cls-5" x1="104.49" y1="23.41" x2="107.12" y2="23.92"/><line class="cls-5" x1="111.64" y1="24.94" x2="112.16" y2="29.45"/><line class="cls-5" x1="107.7" y1="27.38" x2="111.29" y2="27.75"/><line class="cls-5" x1="115.24" y1="30.64" x2="115.24" y2="35.58"/><line class="cls-5" x1="111.9" y1="32.47" x2="114.1" y2="33.7"/><line class="cls-5" x1="118.23" y1="36.51" x2="117.76" y2="41.79"/><line class="cls-5" x1="114.78" y1="38.34" x2="117.31" y2="39.75"/><line class="cls-5" x1="120.4" y1="44.85" x2="119.61" y2="49.02"/><line class="cls-5" x1="117.31" y1="45.53" x2="119.61" y2="47.32"/><line class="cls-5" x1="122.24" y1="50.64" x2="121.59" y2="55.57"/><line class="cls-5" x1="118.46" y1="51.58" x2="121.05" y2="53.99"/><line class="cls-5" x1="123.9" y1="59.41" x2="123.04" y2="62.55"/><line class="cls-5" x1="120.4" y1="58.98" x2="123.04" y2="60.98"/><line class="cls-5" x1="125.76" y1="64.81" x2="124.91" y2="69.45"/><line class="cls-5" x1="122.08" y1="65.95" x2="124.4" y2="68"/><line class="cls-5" x1="127.16" y1="72.46" x2="127.95" y2="76.74"/><line class="cls-5" x1="123.9" y1="72.96" x2="126.78" y2="74.05"/><path class="cls-5" d="M219.63,139.68s3.11,3.76,2.54-1.14" transform="translate(-91.07 -58.4)"/><path class="cls-5" d="M223.48,145.12s3.68,1.49,1.09-1.4" transform="translate(-91.07 -58.4)"/><path class="cls-5" d="M227.83,147.47s4.13,1,.91-1.53" transform="translate(-91.07 -58.4)"/><path class="cls-5" d="M230.94,150.08s4.92,4.3,3.89-2.42" transform="translate(-91.07 -58.4)"/><path class="cls-5" d="M231.69,154.6s-1.68,4.87,2.29.65" transform="translate(-91.07 -58.4)"/><line class="cls-5" x1="79.8" y1="8.94" x2="83.94" y2="10.89"/><line class="cls-5" x1="79.8" y1="12.68" x2="81.87" y2="10.59"/><line class="cls-5" x1="87.31" y1="9.34" x2="90.31" y2="11.64"/><line class="cls-5" x1="85.93" y1="12.68" x2="88.46" y2="10.89"/><line class="cls-5" x1="94.72" y1="10.32" x2="98.95" y2="13.19"/><line class="cls-5" x1="93.87" y1="13.19" x2="97.25" y2="12.68"/><line class="cls-5" x1="103.21" y1="13.25" x2="105.85" y2="17.55"/><line class="cls-5" x1="101.38" y1="16" x2="104.53" y2="15.66"/><line class="cls-5" x1="109.85" y1="17.93" x2="112.16" y2="21.87"/><line class="cls-5" x1="107.7" y1="20.34" x2="110.87" y2="20.6"/><line class="cls-5" x1="116.05" y1="23.66" x2="117.76" y2="28.81"/><line class="cls-5" x1="113.21" y1="26.04" x2="116.91" y2="27.07"/><path class="cls-5" d="M211.47,89.37c.17-.42.52,5.54.52,5.54" transform="translate(-91.07 -58.4)"/><line class="cls-5" x1="117.31" y1="32.47" x2="120.66" y2="34.13"/><line class="cls-5" x1="123.9" y1="38.34" x2="123.9" y2="46.43"/><line class="cls-5" x1="121.05" y1="40.85" x2="123.47" y2="42.38"/><line class="cls-5" x1="125.29" y1="49.79" x2="124.4" y2="53.99"/><line class="cls-5" x1="125.34" y1="58.98" x2="127.95" y2="63.01"/><line class="cls-5" x1="79" y1="5.96" x2="83.35" y2="6.55"/><line class="cls-5" x1="79.8" y1="8.51" x2="81.44" y2="6.55"/><line class="cls-5" x1="86.61" y1="4.75" x2="90.87" y2="6.98"/><line class="cls-5" x1="87.2" y1="8.17" x2="88.74" y2="6.55"/><line class="cls-5" x1="94.72" y1="5.87" x2="97.68" y2="8.94"/><line class="cls-5" x1="92.49" y1="9.34" x2="95.97" y2="8.17"/><line class="cls-5" x1="101.42" y1="7.73" x2="104.14" y2="10.89"/><line class="cls-5" x1="99.72" y1="10.89" x2="102.78" y2="9.92"/><line class="cls-5" x1="107.55" y1="11.02" x2="109.09" y2="14.26"/><line class="cls-5" x1="105" y1="13.25" x2="107.7" y2="13.14"/><line class="cls-5" x1="113.4" y1="16" x2="116.05" y2="19.69"/><line class="cls-5" x1="112.16" y1="18.3" x2="114.1" y2="18.3"/><line class="cls-5" x1="118.99" y1="22.21" x2="119.61" y2="26.55"/><line class="cls-5" x1="120.66" y1="29.45" x2="124.4" y2="30.64"/><line class="cls-5" x1="125.85" y1="33.09" x2="125.34" y2="38.21"/><line class="cls-5" x1="126.74" y1="40.85" x2="130.36" y2="41.62"/><line class="cls-5" x1="129.78" y1="45.07" x2="132.49" y2="45.53"/><line class="cls-5" x1="133.85" y1="47.32" x2="134.31" y2="52.78"/><line class="cls-5" x1="135.54" y1="55.57" x2="138.7" y2="55.94"/><line class="cls-5" x1="139.87" y1="58.43" x2="138.7" y2="62.21"/><line class="cls-5" x1="140.27" y1="65.95" x2="142.91" y2="65.95"/><line class="cls-5" x1="143.91" y1="68.77" x2="144.69" y2="74.9"/><line class="cls-5" x1="142.27" y1="71.34" x2="144.27" y2="72.22"/><line class="cls-5" x1="147.51" y1="76.74" x2="146.02" y2="82.21"/><line class="cls-5" x1="143.91" y1="78.04" x2="146.02" y2="79.48"/><polyline class="cls-5" points="147.97 84.68 146.02 87.54 144.69 85.32"/><path class="cls-5" d="M230,160.36l-1.58,3.4,2.56,1s8.6-14,8.86-20.88-2-16.15-22.73-53.43-49.91-25.61-49.91-25.61" transform="translate(-91.07 -58.4)"/><line class="cls-5" x1="78.13" y1="1.58" x2="82.61" y2="4.75"/><line class="cls-5" x1="83.94" y1="1.04" x2="87.2" y2="4.17"/><line class="cls-5" x1="89.67" y1="1.58" x2="92.49" y2="4.75"/><line class="cls-5" x1="95.21" y1="4.75" x2="98.04" y2="3.16"/><line class="cls-5" x1="100.64" y1="4.17" x2="101.42" y2="7.36"/><line class="cls-5" x1="103.72" y1="5.28" x2="106.35" y2="9.92"/><line class="cls-5" x1="109.49" y1="8.17" x2="111.29" y2="12.64"/><line class="cls-5" x1="114.72" y1="11.79" x2="116.05" y2="17.55"/><line class="cls-5" x1="119.61" y1="17.02" x2="119.61" y2="21.29"/><polyline class="cls-5" points="121.05 23.41 124.84 22.59 123.9 27.19"/><line class="cls-5" x1="125.59" y1="30.04" x2="128.55" y2="28.81"/><line class="cls-5" x1="129.8" y1="30.64" x2="129.25" y2="36.09"/><line class="cls-5" x1="131.31" y1="33.92" x2="131.89" y2="40.85"/><line class="cls-5" x1="135.54" y1="41.24" x2="135.54" y2="48.24"/><line class="cls-5" x1="138.9" y1="49.36" x2="137.94" y2="53.45"/><line class="cls-5" x1="141.59" y1="54.9" x2="141.25" y2="58.43"/><line class="cls-5" x1="143.91" y1="60.32" x2="143.91" y2="65.19"/><line class="cls-5" x1="147.51" y1="66.77" x2="146.76" y2="71.78"/><line class="cls-5" x1="149.76" y1="74.6" x2="148.4" y2="78.04"/><line class="cls-5" x1="150.53" y1="82.21" x2="149.08" y2="84.68"/><line class="cls-5" x1="129.25" y1="49.02" x2="127.56" y2="54.9"/><line class="cls-5" x1="127.95" y1="58.23" x2="131.6" y2="64.12"/><line class="cls-5" x1="131.1" y1="70.38" x2="132.87" y2="71.34"/><line class="cls-5" x1="134.31" y1="76.15" x2="133.85" y2="79.48"/><polyline class="cls-5" points="134.59 72.96 136.76 74.6 137.42 72.48"/><line class="cls-5" x1="137.12" y1="79.48" x2="140.63" y2="80.58"/><line class="cls-5" x1="134.31" y1="56.85" x2="133.85" y2="61.71"/><line class="cls-5" x1="137.12" y1="61.71" x2="136.57" y2="68"/><line class="cls-5" x1="139.87" y1="68.77" x2="139.29" y2="74.6"/><path class="cls-5" d="M198.35,362.31c-7.76-38.92,18.73-217.8,18.73-217.8" transform="translate(-91.07 -58.4)"/><path class="cls-5" d="M220,146.63S194.29,340,205.41,364.36" transform="translate(-91.07 -58.4)"/><path class="cls-5" d="M217.85,163.75s6.21,166.45,1.88,200.61" transform="translate(-91.07 -58.4)"/><path class="cls-5" d="M220.71,147.47s9,173.7,6.93,214.84" transform="translate(-91.07 -58.4)"/><path class="cls-5" d="M214,196.7s1.79,157.7-.42,168" transform="translate(-91.07 -58.4)"/><path class="cls-5" d="M212.86,205.53s-8.8,124.19-1.71,158.83" transform="translate(-91.07 -58.4)"/><line class="cls-5" x1="122.54" y1="91.28" x2="123.9" y2="95.15"/><path class="cls-5" d="M212.32,157.55s.44,6.77,2.43.7" transform="translate(-91.07 -58.4)"/><path class="cls-5" d="M211.32,165.8s-.31,8,2.22.6" transform="translate(-91.07 -58.4)"/><line class="cls-5" x1="118.78" y1="115.32" x2="121.05" y2="118.13"/><line class="cls-5" x1="117.93" y1="120.94" x2="120.25" y2="124.64"/><polyline class="cls-5" points="117.08 126.47 117.32 133.11 119.56 128.77"/><line class="cls-5" x1="118.23" y1="137.19" x2="115.55" y2="140.17"/><line class="cls-5" x1="117.93" y1="144.6" x2="114.63" y2="148.73"/><line class="cls-5" x1="113.08" y1="158.38" x2="116.28" y2="152.51"/><line class="cls-5" x1="115.08" y1="164.68" x2="113.51" y2="168.34"/><line class="cls-5" x1="111.55" y1="164.09" x2="113.08" y2="165.87"/><line class="cls-5" x1="114.29" y1="172.26" x2="112.32" y2="176.85"/><line class="cls-5" x1="110.87" y1="171.88" x2="112.71" y2="174.55"/><line class="cls-5" x1="113.72" y1="180.52" x2="111.55" y2="184.34"/><line class="cls-5" x1="109.59" y1="180" x2="111.55" y2="182.73"/><line class="cls-5" x1="112.64" y1="187.28" x2="109.93" y2="191.92"/><line class="cls-5" x1="108.44" y1="186.95" x2="110.92" y2="190.22"/><line class="cls-5" x1="111.55" y1="195.01" x2="109.68" y2="198.9"/><line class="cls-5" x1="107.63" y1="194.47" x2="109.68" y2="196.95"/><line class="cls-5" x1="110.62" y1="201.19" x2="108.44" y2="206.79"/><line class="cls-5" x1="107.12" y1="201.96" x2="109.23" y2="204.77"/><line class="cls-5" x1="110.54" y1="210.21" x2="107.55" y2="215.07"/><line class="cls-5" x1="105.86" y1="210.64" x2="107.55" y2="212.64"/><line class="cls-5" x1="109.42" y1="217.96" x2="106.19" y2="223.28"/><line class="cls-5" x1="104.78" y1="219.24" x2="107.27" y2="221.5"/><line class="cls-5" x1="106.03" y1="229.53" x2="109.05" y2="224.88"/><line class="cls-5" x1="104.32" y1="225.89" x2="106.19" y2="227.92"/><line class="cls-5" x1="108.54" y1="231.86" x2="105.7" y2="237.11"/><line class="cls-5" x1="103.21" y1="233.36" x2="105.7" y2="235.49"/><line class="cls-5" x1="107.72" y1="242.05" x2="104.32" y2="246.9"/><line class="cls-5" x1="102.7" y1="242.79" x2="104.45" y2="244.86"/><line class="cls-5" x1="107.12" y1="249.87" x2="103.58" y2="255.92"/><line class="cls-5" x1="101.76" y1="251.85" x2="103.58" y2="253.53"/><line class="cls-5" x1="106.02" y1="258.6" x2="103.58" y2="263.75"/><line class="cls-5" x1="101.76" y1="259.58" x2="104.3" y2="262.22"/><line class="cls-5" x1="105.35" y1="266.13" x2="103.03" y2="270.81"/><line class="cls-5" x1="100.91" y1="266.13" x2="103.03" y2="268.47"/><line class="cls-5" x1="105.35" y1="273.7" x2="102.7" y2="279.6"/><line class="cls-5" x1="99.97" y1="275.49" x2="102.7" y2="277.99"/><line class="cls-5" x1="104.8" y1="283.32" x2="102.67" y2="290.38"/><line class="cls-5" x1="99.63" y1="284.68" x2="102.67" y2="288.09"/><line class="cls-5" x1="105.86" y1="294.3" x2="103.73" y2="300.26"/><line class="cls-5" x1="100.4" y1="295.41" x2="103.58" y2="298.13"/><line class="cls-5" x1="127.95" y1="93.22" x2="125.29" y2="97.39"/><line class="cls-5" x1="126.78" y1="101.28" x2="123.9" y2="104.85"/><line class="cls-5" x1="126.01" y1="108.52" x2="123.1" y2="112.4"/><line class="cls-5" x1="125.45" y1="115.91" x2="122.08" y2="119.66"/><line class="cls-5" x1="121.35" y1="122.79" x2="123.77" y2="124.64"/><line class="cls-5" x1="121.05" y1="127.15" x2="123.1" y2="131"/><line class="cls-5" x1="120.25" y1="132.43" x2="121.79" y2="137.96"/><line class="cls-5" x1="119.56" y1="142.1" x2="121.05" y2="145.62"/><line class="cls-5" x1="118.23" y1="148.73" x2="120.25" y2="154.73"/><line class="cls-5" x1="117.08" y1="157.87" x2="119.92" y2="162.54"/><line class="cls-5" x1="116.28" y1="164.98" x2="119.09" y2="169.02"/><line class="cls-5" x1="115.08" y1="170.64" x2="118.5" y2="177.71"/><line class="cls-5" x1="114.29" y1="179.49" x2="117.08" y2="186.44"/><line class="cls-5" x1="113.51" y1="187.28" x2="114.29" y2="193.96"/><line class="cls-5" x1="114.68" y1="190.62" x2="116.79" y2="189.6"/><line class="cls-5" x1="115.08" y1="180.52" x2="117.69" y2="177.71"/><line class="cls-5" x1="112.32" y1="198.9" x2="113.51" y2="203.37"/><line class="cls-5" x1="115.69" y1="198.9" x2="113.51" y2="201.19"/><line class="cls-5" x1="111.29" y1="207.49" x2="112.64" y2="212.17"/><line class="cls-5" x1="115.69" y1="207.01" x2="112.64" y2="210.21"/><line class="cls-5" x1="110.62" y1="215.75" x2="111.96" y2="220.94"/><line class="cls-5" x1="114.6" y1="215.75" x2="111.29" y2="218.34"/><line class="cls-5" x1="109.05" y1="225.89" x2="111.29" y2="230.73"/><line class="cls-5" x1="113.68" y1="224.88" x2="110.62" y2="228.5"/><line class="cls-5" x1="108.54" y1="234.04" x2="110.62" y2="239.32"/><line class="cls-5" x1="113.55" y1="233.36" x2="110.17" y2="236.68"/><line class="cls-5" x1="107.8" y1="242.79" x2="109.58" y2="248.94"/><line class="cls-5" x1="112.92" y1="242.79" x2="109.58" y2="246.47"/><line class="cls-5" x1="107.12" y1="253.53" x2="109.08" y2="258.6"/><line class="cls-5" x1="111.55" y1="252.2" x2="108.54" y2="255.92"/><line class="cls-5" x1="106.41" y1="262.71" x2="109.08" y2="270.21"/><line class="cls-5" x1="111.55" y1="262.22" x2="108.54" y2="267.3"/><line class="cls-5" x1="106.41" y1="275.05" x2="109.08" y2="281.19"/><line class="cls-5" x1="111.55" y1="273.02" x2="108.1" y2="277.99"/><line class="cls-5" x1="105.86" y1="285.79" x2="109.08" y2="292.09"/><line class="cls-5" x1="111.21" y1="284.68" x2="108.1" y2="289.79"/><line class="cls-5" x1="106.41" y1="294.98" x2="110.05" y2="302.46"/><line class="cls-5" x1="111.55" y1="294.3" x2="109.08" y2="299.24"/><line class="cls-5" x1="114.71" y1="218.34" x2="117.32" y2="224.88"/><line class="cls-5" x1="114.29" y1="229.53" x2="117.32" y2="234.43"/><line class="cls-5" x1="113.68" y1="237.11" x2="117.32" y2="243.83"/><line class="cls-5" x1="112.64" y1="246.9" x2="114.29" y2="256.51"/><line class="cls-5" x1="116.79" y1="248.47" x2="114.6" y2="252.2"/><line class="cls-5" x1="112.15" y1="260.32" x2="114.68" y2="268.47"/><line class="cls-5" x1="116.02" y1="260.32" x2="113.68" y2="265.24"/><line class="cls-5" x1="112.15" y1="272.34" x2="114.68" y2="280.64"/><line class="cls-5" x1="116.79" y1="272.34" x2="114.29" y2="277.02"/><line class="cls-5" x1="112.15" y1="284.32" x2="114.85" y2="292.86"/><line class="cls-5" x1="117.8" y1="283.32" x2="113.68" y2="288.09"/><line class="cls-5" x1="112.37" y1="297.28" x2="117.32" y2="303.04"/><line class="cls-5" x1="117.8" y1="295.96" x2="115.81" y2="300.55"/><line class="cls-5" x1="120.65" y1="175.43" x2="123.24" y2="180.52"/><line class="cls-5" x1="120.25" y1="184.34" x2="122.56" y2="188.59"/><line class="cls-5" x1="119.56" y1="192.43" x2="123.24" y2="197.66"/><line class="cls-5" x1="119.04" y1="201.13" x2="121.11" y2="208"/><line class="cls-5" x1="122.56" y1="201.96" x2="120.25" y2="204.57"/><line class="cls-5" x1="118.31" y1="212.64" x2="120.65" y2="220.37"/><line class="cls-5" x1="123.65" y1="212.17" x2="120.65" y2="216.5"/><line class="cls-5" x1="117.87" y1="225.89" x2="121.1" y2="233.36"/><line class="cls-5" x1="122.56" y1="224.88" x2="120.07" y2="229.63"/><line class="cls-5" x1="117.8" y1="238.24" x2="121.1" y2="247.7"/><line class="cls-5" x1="123.64" y1="238.9" x2="120.25" y2="242.97"/><line class="cls-5" x1="117.87" y1="252.2" x2="120.65" y2="262.71"/><line class="cls-5" x1="123.24" y1="252.69" x2="119.56" y2="258.6"/><line class="cls-5" x1="117.38" y1="268.47" x2="120.65" y2="278.12"/><line class="cls-5" x1="123.1" y1="268.47" x2="120.07" y2="275.51"/><line class="cls-5" x1="118.31" y1="285.79" x2="120.65" y2="292.09"/><line class="cls-5" x1="122.56" y1="282.3" x2="120.07" y2="288.59"/><polyline class="cls-5" points="119.04 296.77 121.1 300.55 123.1 294.98"/><line class="cls-5" x1="123.24" y1="134.46" x2="125.45" y2="144.6"/><line class="cls-5" x1="126.78" y1="134.46" x2="124.55" y2="138.68"/><line class="cls-5" x1="127.68" y1="149.28" x2="125.67" y2="157.87"/><line class="cls-5" x1="123.77" y1="149.28" x2="126.01" y2="152.51"/><line class="cls-5" x1="128.29" y1="161.53" x2="125.45" y2="169.7"/><line class="cls-5" x1="123.77" y1="163.32" x2="126.01" y2="165.62"/><line class="cls-5" x1="128.84" y1="171.88" x2="126.01" y2="185.09"/><line class="cls-5" x1="123.32" y1="176.22" x2="126.67" y2="180"/><line class="cls-5" x1="128.95" y1="189.6" x2="126.67" y2="198.9"/><line class="cls-5" x1="123.77" y1="190.22" x2="126.67" y2="194.47"/><line class="cls-5" x1="128.95" y1="203.37" x2="126.01" y2="214.34"/><line class="cls-5" x1="123.77" y1="203.99" x2="126.67" y2="207.49"/><line class="cls-5" x1="129.64" y1="217.96" x2="126.67" y2="230.73"/><line class="cls-5" x1="124.52" y1="218.34" x2="127.72" y2="224.34"/><line class="cls-5" x1="129.64" y1="233.36" x2="126.12" y2="242.05"/><line class="cls-5" x1="124.52" y1="235.02" x2="127.48" y2="237.71"/><line class="cls-5" x1="126.67" y1="253.53" x2="130.25" y2="243.83"/><line class="cls-5" x1="123.77" y1="247.7" x2="126.78" y2="249.87"/><line class="cls-5" x1="130.2" y1="256.87" x2="126.67" y2="265.24"/><line class="cls-5" x1="123.77" y1="258.6" x2="127.81" y2="261.17"/><line class="cls-5" x1="129.64" y1="268.47" x2="126.78" y2="277.02"/><line class="cls-5" x1="123.77" y1="270.21" x2="127.72" y2="274.22"/><line class="cls-5" x1="129.64" y1="279.6" x2="126.67" y2="288.09"/><line class="cls-5" x1="123.77" y1="281.19" x2="127.48" y2="284.68"/><line class="cls-5" x1="129.64" y1="292.09" x2="125.74" y2="299.24"/><line class="cls-5" x1="124.52" y1="292.86" x2="126.12" y2="295.96"/><polyline class="cls-5" points="128.28 300.16 125.79 305.27 123.77 301.58"/><line class="cls-5" x1="129.64" y1="107.41" x2="127.81" y2="113.51"/><line class="cls-5" x1="130.63" y1="115.32" x2="127.43" y2="122.09"/><line class="cls-5" x1="131.39" y1="124.64" x2="127.95" y2="131"/><line class="cls-5" x1="131.88" y1="135.19" x2="128.29" y2="140.73"/><line class="cls-5" x1="132.2" y1="142.1" x2="128.95" y2="149.28"/><line class="cls-5" x1="132.64" y1="152" x2="130.63" y2="160.21"/><line class="cls-5" x1="128.84" y1="153.58" x2="131.39" y2="157.12"/><line class="cls-5" x1="132.2" y1="164.09" x2="131.39" y2="172.26"/><line class="cls-5" x1="128.84" y1="164.98" x2="130.63" y2="168.17"/><line class="cls-5" x1="133.74" y1="177.71" x2="131.39" y2="185.09"/><line class="cls-5" x1="129.01" y1="178.49" x2="132.24" y2="182.43"/><line class="cls-5" x1="134.23" y1="189.6" x2="131.39" y2="197.1"/><line class="cls-5" x1="129.64" y1="189.6" x2="132.57" y2="193.5"/><line class="cls-5" x1="134.71" y1="201.96" x2="132.57" y2="210.64"/><line class="cls-5" x1="129.54" y1="201.96" x2="133.26" y2="206.79"/><line class="cls-5" x1="135.17" y1="214.51" x2="133.26" y2="224.34"/><line class="cls-5" x1="130.62" y1="215.75" x2="133.26" y2="219.43"/><line class="cls-5" x1="135.17" y1="229.53" x2="132.57" y2="240.07"/><line class="cls-5" x1="130.2" y1="229.53" x2="133.26" y2="234.8"/><line class="cls-5" x1="136.23" y1="242.79" x2="132.57" y2="252.69"/><line class="cls-5" x1="130.39" y1="244.86" x2="134.4" y2="247.74"/><line class="cls-5" x1="136.43" y1="255.64" x2="134.22" y2="263.75"/><line class="cls-5" x1="130.63" y1="257.46" x2="134.56" y2="261.17"/><line class="cls-5" x1="136.23" y1="266.46" x2="133.26" y2="274.22"/><line class="cls-5" x1="130.63" y1="268.47" x2="133.87" y2="270.34"/><line class="cls-5" x1="136.53" y1="276.65" x2="133.64" y2="284.32"/><line class="cls-5" x1="130.63" y1="278.12" x2="133.64" y2="280.64"/><line class="cls-5" x1="136.88" y1="287.24" x2="133.26" y2="294.41"/><line class="cls-5" x1="130.39" y1="287.24" x2="134.22" y2="292.09"/><line class="cls-5" x1="136.53" y1="296.77" x2="132.57" y2="303.04"/><line class="cls-5" x1="129.64" y1="297.28" x2="133.26" y2="300.55"/><line class="cls-5" x1="130.12" y1="93.22" x2="134.43" y2="99.86"/><line class="cls-5" x1="130.62" y1="102.38" x2="132.87" y2="110.53"/><line class="cls-5" x1="134.59" y1="104.21" x2="132.87" y2="106.45"/><line class="cls-5" x1="131.88" y1="115.91" x2="133.73" y2="120.94"/><line class="cls-5" x1="135.54" y1="114.36" x2="132.87" y2="117.79"/><line class="cls-5" x1="132.42" y1="125.12" x2="134.08" y2="131.79"/><line class="cls-5" x1="135.54" y1="124.64" x2="133.85" y2="129.07"/><line class="cls-5" x1="132.2" y1="136.57" x2="134.43" y2="143.86"/><line class="cls-5" x1="136.64" y1="134.46" x2="133.85" y2="139.53"/><line class="cls-5" x1="132.57" y1="150.33" x2="135.54" y2="157.12"/><line class="cls-5" x1="136.88" y1="147.14" x2="134.08" y2="153.79"/><line class="cls-5" x1="133.64" y1="162.54" x2="136.23" y2="169.02"/><line class="cls-5" x1="138.56" y1="159.47" x2="135.25" y2="165.78"/><line class="cls-5" x1="133.61" y1="174.55" x2="136.9" y2="180.52"/><line class="cls-5" x1="139.22" y1="172.26" x2="135.54" y2="177.54"/><line class="cls-5" x1="134.71" y1="185.92" x2="138.56" y2="193.96"/><line class="cls-5" x1="139.22" y1="183.63" x2="136.23" y2="189.09"/><line class="cls-5" x1="135.17" y1="198.9" x2="137.72" y2="205.74"/><line class="cls-5" x1="139.22" y1="198.9" x2="136.64" y2="202.82"/><line class="cls-5" x1="135.68" y1="211.64" x2="138.56" y2="218.34"/><line class="cls-5" x1="139.88" y1="208.85" x2="137.93" y2="214.99"/><line class="cls-5" x1="135.68" y1="224.88" x2="139.22" y2="231.86"/><line class="cls-5" x1="141.48" y1="220.94" x2="137.93" y2="228.31"/><line class="cls-5" x1="135.94" y1="237.87" x2="139.88" y2="244.86"/><line class="cls-5" x1="141.48" y1="235.02" x2="138.56" y2="241.37"/><line class="cls-5" x1="136.64" y1="250.89" x2="139.7" y2="258.6"/><line class="cls-5" x1="142.61" y1="247.74" x2="138.91" y2="254.74"/><line class="cls-5" x1="136.88" y1="263.75" x2="140.76" y2="270.21"/><line class="cls-5" x1="142.61" y1="260.9" x2="139.7" y2="266.98"/><line class="cls-5" x1="136.78" y1="273.7" x2="140.76" y2="280.64"/><line class="cls-5" x1="142.91" y1="272.74" x2="139.7" y2="277.51"/><line class="cls-5" x1="137.27" y1="283.84" x2="141.31" y2="291.36"/><line class="cls-5" x1="143.99" y1="282.94" x2="139.88" y2="288.09"/><line class="cls-5" x1="136.88" y1="292.86" x2="140.76" y2="300.55"/><line class="cls-5" x1="143.99" y1="292.86" x2="140.02" y2="298.26"/><path class="cls-5" d="M167.21,77s-34.53-10.11-42.32,33.75c-5.07,28.51-13.49,35.68-18.76,37.21a4.84,4.84,0,0,0-2.91,7.2,13.61,13.61,0,0,0,4.92,4.55" transform="translate(-91.07 -58.4)"/><path class="cls-5" d="M166.89,72.82s-36.2-11.53-46,34.43-14.72,36.11-19.51,38.31-2.81,12.86,6.62,16.16" transform="translate(-91.07 -58.4)"/><path class="cls-5" d="M166.7,67.74s-43.46-7.13-49.6,38.83-15.74,39-15.74,39" transform="translate(-91.07 -58.4)"/><path class="cls-5" d="M122.06,89.37s-18.17,30.53-20.7,41.48a131.79,131.79,0,0,0-2.94,21.68" transform="translate(-91.07 -58.4)"/><path class="cls-5" d="M113.32,104.79s-2,34.44-13.54,42.11" transform="translate(-91.07 -58.4)"/><path class="cls-5" d="M111.81,117.81s-5.6,6.86-12,28.13" transform="translate(-91.07 -58.4)"/><line class="cls-5" x1="70.61" y1="17.96" x2="66.8" y2="20.85"/><line class="cls-5" x1="72.24" y1="22.9" x2="68.97" y2="20.34"/><line class="cls-5" x1="63.98" y1="17.75" x2="61.18" y2="21.62"/><line class="cls-5" x1="65.44" y1="22.9" x2="61.74" y2="20.85"/><line class="cls-5" x1="57.33" y1="19.17" x2="55.56" y2="23.41"/><line class="cls-5" x1="59.9" y1="24.94" x2="56.45" y2="22.9"/><line class="cls-5" x1="51.41" y1="21.87" x2="50.67" y2="27.07"/><line class="cls-5" x1="56.45" y1="27.38" x2="51.57" y2="26.04"/><line class="cls-5" x1="46.37" y1="26.04" x2="47.05" y2="31.58"/><line class="cls-5" x1="51.99" y1="30.04" x2="47.56" y2="30.04"/><line class="cls-5" x1="42.54" y1="30.04" x2="43.78" y2="34.9"/><line class="cls-5" x1="47.9" y1="33.7" x2="44.5" y2="34.13"/><line class="cls-5" x1="39.62" y1="35.58" x2="40.16" y2="40.85"/><line class="cls-5" x1="44.92" y1="37.36" x2="41.18" y2="39.32"/><line class="cls-5" x1="36.34" y1="42.27" x2="37.26" y2="46.98"/><line class="cls-5" x1="40.75" y1="44.17" x2="37.95" y2="45.53"/><polyline class="cls-5" points="33.82 56.85 33.82 60 35.65 57.79"/><path class="cls-5" d="M124.89,123.85s-1.75,4.08-2.77-.64" transform="translate(-91.07 -58.4)"/><path class="cls-5" d="M129,110.06s-3,5.87-3.21-1" transform="translate(-91.07 -58.4)"/><path class="cls-5" d="M123.5,129.73s-3.38,6.71-2.46-.95" transform="translate(-91.07 -58.4)"/><path class="cls-5" d="M121,136.69s-3.67,5.05-3.17-1.55" transform="translate(-91.07 -58.4)"/><path class="cls-5" d="M117.35,142.76s-4.37,3.21-2.18-2.15" transform="translate(-91.07 -58.4)"/><path class="cls-5" d="M108.8,149.61s-4.36.64-1.44-2.14" transform="translate(-91.07 -58.4)"/><path class="cls-5" d="M105.8,151s-1,2.79,2.72,3.82" transform="translate(-91.07 -58.4)"/><path class="cls-5" d="M106.08,153.24s1.76,4.2-2.19,2.16" transform="translate(-91.07 -58.4)"/><line class="cls-5" x1="74.79" y1="14.15" x2="71.31" y2="15.32"/><line class="cls-5" x1="74.79" y1="17.55" x2="73.05" y2="15.66"/><line class="cls-5" x1="68.1" y1="13.19" x2="65.44" y2="15.32"/><line class="cls-5" x1="68.7" y1="16.61" x2="66.77" y2="14.73"/><line class="cls-5" x1="61.74" y1="13.7" x2="59.9" y2="16"/><line class="cls-5" x1="63.59" y1="17.02" x2="61.18" y2="15.66"/><line class="cls-5" x1="56.07" y1="14.85" x2="53.52" y2="18.3"/><path class="cls-5" d="M149.24,76.7s-3-.25-3.38-.75" transform="translate(-91.07 -58.4)"/><line class="cls-5" x1="49.78" y1="17.55" x2="47.9" y2="21.29"/><line class="cls-5" x1="51.99" y1="20.85" x2="49.26" y2="20.34"/><line class="cls-5" x1="44.92" y1="20.85" x2="43.78" y2="24.94"/><line class="cls-5" x1="47.56" y1="23.41" x2="44.92" y2="23.92"/><line class="cls-5" x1="40.41" y1="24.94" x2="39.89" y2="29.45"/><line class="cls-5" x1="44.35" y1="27.38" x2="40.75" y2="27.75"/><line class="cls-5" x1="36.8" y1="30.64" x2="36.8" y2="35.58"/><line class="cls-5" x1="40.15" y1="32.47" x2="37.95" y2="33.7"/><line class="cls-5" x1="33.82" y1="36.51" x2="34.29" y2="41.79"/><line class="cls-5" x1="37.26" y1="38.34" x2="34.73" y2="39.75"/><line class="cls-5" x1="31.65" y1="44.85" x2="32.44" y2="49.02"/><line class="cls-5" x1="34.73" y1="45.53" x2="32.44" y2="47.32"/><line class="cls-5" x1="29.81" y1="50.64" x2="30.46" y2="55.57"/><line class="cls-5" x1="33.58" y1="51.58" x2="31" y2="53.99"/><line class="cls-5" x1="28.14" y1="59.41" x2="29.01" y2="62.55"/><line class="cls-5" x1="31.65" y1="58.98" x2="29.01" y2="60.98"/><line class="cls-5" x1="26.29" y1="64.81" x2="27.14" y2="69.45"/><line class="cls-5" x1="29.97" y1="65.95" x2="27.65" y2="68"/><line class="cls-5" x1="24.89" y1="72.46" x2="24.1" y2="76.74"/><line class="cls-5" x1="28.14" y1="72.96" x2="25.26" y2="74.05"/><path class="cls-5" d="M114.55,139.68s-3.1,3.76-2.53-1.14" transform="translate(-91.07 -58.4)"/><path class="cls-5" d="M110.7,145.12s-3.68,1.49-1.09-1.4" transform="translate(-91.07 -58.4)"/><path class="cls-5" d="M106.35,147.47s-4.13,1-.91-1.53" transform="translate(-91.07 -58.4)"/><path class="cls-5" d="M103.24,150.08s-4.91,4.3-3.89-2.42" transform="translate(-91.07 -58.4)"/><path class="cls-5" d="M102.49,154.6s1.68,4.87-2.29.65" transform="translate(-91.07 -58.4)"/><line class="cls-5" x1="72.24" y1="8.94" x2="68.1" y2="10.89"/><line class="cls-5" x1="72.24" y1="12.68" x2="70.17" y2="10.59"/><line class="cls-5" x1="64.74" y1="9.34" x2="61.74" y2="11.64"/><line class="cls-5" x1="66.12" y1="12.68" x2="63.59" y2="10.89"/><line class="cls-5" x1="57.33" y1="10.32" x2="53.09" y2="13.19"/><line class="cls-5" x1="58.17" y1="13.19" x2="54.8" y2="12.68"/><line class="cls-5" x1="48.84" y1="13.25" x2="46.2" y2="17.55"/><line class="cls-5" x1="50.67" y1="16" x2="47.52" y2="15.66"/><line class="cls-5" x1="42.2" y1="17.93" x2="39.89" y2="21.87"/><line class="cls-5" x1="44.35" y1="20.34" x2="41.18" y2="20.6"/><line class="cls-5" x1="36" y1="23.66" x2="34.29" y2="28.81"/><line class="cls-5" x1="38.84" y1="26.04" x2="35.14" y2="27.07"/><path class="cls-5" d="M122.72,89.37c-.17-.42-.53,5.54-.53,5.54" transform="translate(-91.07 -58.4)"/><line class="cls-5" x1="34.73" y1="32.47" x2="31.39" y2="34.13"/><line class="cls-5" x1="28.14" y1="38.34" x2="28.14" y2="46.43"/><line class="cls-5" x1="31" y1="40.85" x2="28.58" y2="42.38"/><line class="cls-5" x1="26.76" y1="49.79" x2="27.65" y2="53.99"/><line class="cls-5" x1="26.71" y1="58.98" x2="24.1" y2="63.01"/><line class="cls-5" x1="73.05" y1="5.96" x2="68.7" y2="6.55"/><line class="cls-5" x1="72.24" y1="8.51" x2="70.61" y2="6.55"/><line class="cls-5" x1="65.44" y1="4.75" x2="61.18" y2="6.98"/><line class="cls-5" x1="64.85" y1="8.17" x2="63.31" y2="6.55"/><line class="cls-5" x1="57.33" y1="5.87" x2="54.37" y2="8.94"/><line class="cls-5" x1="59.56" y1="9.34" x2="56.07" y2="8.17"/><line class="cls-5" x1="50.63" y1="7.73" x2="47.9" y2="10.89"/><line class="cls-5" x1="52.33" y1="10.89" x2="49.27" y2="9.92"/><line class="cls-5" x1="44.5" y1="11.02" x2="42.96" y2="14.26"/><line class="cls-5" x1="47.05" y1="13.25" x2="44.35" y2="13.14"/><line class="cls-5" x1="38.65" y1="16" x2="36" y2="19.69"/><line class="cls-5" x1="39.89" y1="18.3" x2="37.95" y2="18.3"/><line class="cls-5" x1="33.06" y1="22.21" x2="32.44" y2="26.55"/><line class="cls-5" x1="31.39" y1="29.45" x2="27.65" y2="30.64"/><line class="cls-5" x1="26.2" y1="33.09" x2="26.71" y2="38.21"/><line class="cls-5" x1="25.31" y1="40.85" x2="21.69" y2="41.62"/><line class="cls-5" x1="22.27" y1="45.07" x2="19.56" y2="45.53"/><line class="cls-5" x1="18.2" y1="47.32" x2="17.73" y2="52.78"/><line class="cls-5" x1="16.51" y1="55.57" x2="13.35" y2="55.94"/><line class="cls-5" x1="12.18" y1="58.43" x2="13.35" y2="62.21"/><line class="cls-5" x1="11.78" y1="65.95" x2="9.14" y2="65.95"/><line class="cls-5" x1="8.14" y1="68.77" x2="7.35" y2="74.9"/><line class="cls-5" x1="9.77" y1="71.34" x2="7.78" y2="72.22"/><line class="cls-5" x1="4.54" y1="76.74" x2="6.03" y2="82.21"/><line class="cls-5" x1="8.14" y1="78.04" x2="6.03" y2="79.48"/><polyline class="cls-5" points="4.07 84.68 6.03 87.54 7.35 85.32"/><path class="cls-5" d="M104.21,160.36l1.59,3.4-2.57,1s-8.6-14-8.85-20.88,2-16.15,22.72-53.43S167,64.87,167,64.87" transform="translate(-91.07 -58.4)"/><line class="cls-5" x1="73.92" y1="1.58" x2="69.44" y2="4.75"/><line class="cls-5" x1="68.1" y1="1.04" x2="64.85" y2="4.17"/><line class="cls-5" x1="62.38" y1="1.58" x2="59.56" y2="4.75"/><line class="cls-5" x1="56.84" y1="4.75" x2="54.01" y2="3.16"/><line class="cls-5" x1="51.41" y1="4.17" x2="50.63" y2="7.36"/><line class="cls-5" x1="48.33" y1="5.28" x2="45.7" y2="9.92"/><line class="cls-5" x1="42.55" y1="8.17" x2="40.75" y2="12.64"/><line class="cls-5" x1="37.32" y1="11.79" x2="36" y2="17.55"/><line class="cls-5" x1="32.44" y1="17.02" x2="32.44" y2="21.29"/><polyline class="cls-5" points="31 23.41 27.2 22.59 28.14 27.19"/><line class="cls-5" x1="26.46" y1="30.04" x2="23.5" y2="28.81"/><line class="cls-5" x1="22.25" y1="30.64" x2="22.8" y2="36.09"/><line class="cls-5" x1="20.74" y1="33.92" x2="20.16" y2="40.85"/><line class="cls-5" x1="16.51" y1="41.24" x2="16.51" y2="48.24"/><line class="cls-5" x1="13.15" y1="49.36" x2="14.11" y2="53.45"/><line class="cls-5" x1="10.46" y1="54.9" x2="10.8" y2="58.43"/><line class="cls-5" x1="8.14" y1="60.32" x2="8.14" y2="65.19"/><line class="cls-5" x1="4.54" y1="66.77" x2="5.28" y2="71.78"/><line class="cls-5" x1="2.29" y1="74.6" x2="3.65" y2="78.04"/><line class="cls-5" x1="1.52" y1="82.21" x2="2.97" y2="84.68"/><line class="cls-5" x1="22.8" y1="49.02" x2="24.49" y2="54.9"/><line class="cls-5" x1="24.1" y1="58.23" x2="20.45" y2="64.12"/><line class="cls-5" x1="20.95" y1="70.38" x2="19.17" y2="71.34"/><line class="cls-5" x1="17.73" y1="76.15" x2="18.2" y2="79.48"/><polyline class="cls-5" points="17.46 72.96 15.29 74.6 14.63 72.48"/><line class="cls-5" x1="14.93" y1="79.48" x2="11.42" y2="80.58"/><line class="cls-5" x1="17.73" y1="56.85" x2="18.2" y2="61.71"/><line class="cls-5" x1="14.93" y1="61.71" x2="15.48" y2="68"/><line class="cls-5" x1="12.18" y1="68.77" x2="12.76" y2="74.6"/><path class="cls-5" d="M117.1,144.51s26.49,178.88,18.73,217.8" transform="translate(-91.07 -58.4)"/><path class="cls-5" d="M114.17,146.63S139.9,340,128.78,364.36" transform="translate(-91.07 -58.4)"/><path class="cls-5" d="M116.33,163.75s-6.21,166.45-1.87,200.61" transform="translate(-91.07 -58.4)"/><path class="cls-5" d="M113.47,147.47s-9,173.7-6.93,214.84" transform="translate(-91.07 -58.4)"/><path class="cls-5" d="M120.16,196.7s-1.8,157.7.41,168" transform="translate(-91.07 -58.4)"/><path class="cls-5" d="M121.32,205.53s8.8,124.19,1.71,158.83" transform="translate(-91.07 -58.4)"/><line class="cls-5" x1="29.5" y1="91.28" x2="28.14" y2="95.15"/><path class="cls-5" d="M121.86,157.55s-.43,6.77-2.43.7" transform="translate(-91.07 -58.4)"/><path class="cls-5" d="M122.87,165.8s.31,8-2.22.6" transform="translate(-91.07 -58.4)"/><line class="cls-5" x1="33.26" y1="115.32" x2="31" y2="118.13"/><line class="cls-5" x1="34.12" y1="120.94" x2="31.8" y2="124.64"/><polyline class="cls-5" points="34.97 126.47 34.73 133.11 32.49 128.77"/><line class="cls-5" x1="33.82" y1="137.19" x2="36.5" y2="140.17"/><line class="cls-5" x1="34.12" y1="144.6" x2="37.42" y2="148.73"/><line class="cls-5" x1="38.97" y1="158.38" x2="35.77" y2="152.51"/><line class="cls-5" x1="36.97" y1="164.68" x2="38.54" y2="168.34"/><line class="cls-5" x1="40.5" y1="164.09" x2="38.97" y2="165.87"/><line class="cls-5" x1="37.76" y1="172.26" x2="39.73" y2="176.85"/><line class="cls-5" x1="41.18" y1="171.88" x2="39.33" y2="174.55"/><line class="cls-5" x1="38.32" y1="180.52" x2="40.5" y2="184.34"/><line class="cls-5" x1="42.46" y1="180" x2="40.5" y2="182.73"/><line class="cls-5" x1="39.41" y1="187.28" x2="42.12" y2="191.92"/><line class="cls-5" x1="43.61" y1="186.95" x2="41.13" y2="190.22"/><line class="cls-5" x1="40.5" y1="195.01" x2="42.37" y2="198.9"/><line class="cls-5" x1="44.41" y1="194.47" x2="42.37" y2="196.95"/><line class="cls-5" x1="41.43" y1="201.19" x2="43.61" y2="206.79"/><line class="cls-5" x1="44.92" y1="201.96" x2="42.82" y2="204.77"/><line class="cls-5" x1="41.5" y1="210.21" x2="44.5" y2="215.07"/><line class="cls-5" x1="46.19" y1="210.64" x2="44.5" y2="212.64"/><line class="cls-5" x1="42.63" y1="217.96" x2="45.86" y2="223.28"/><line class="cls-5" x1="47.27" y1="219.24" x2="44.78" y2="221.5"/><line class="cls-5" x1="46.02" y1="229.53" x2="43" y2="224.88"/><line class="cls-5" x1="47.73" y1="225.89" x2="45.86" y2="227.92"/><line class="cls-5" x1="43.51" y1="231.86" x2="46.35" y2="237.11"/><line class="cls-5" x1="48.84" y1="233.36" x2="46.35" y2="235.49"/><line class="cls-5" x1="44.32" y1="242.05" x2="47.73" y2="246.9"/><line class="cls-5" x1="49.35" y1="242.79" x2="47.59" y2="244.86"/><line class="cls-5" x1="44.93" y1="249.87" x2="48.47" y2="255.92"/><line class="cls-5" x1="50.29" y1="251.85" x2="48.47" y2="253.53"/><line class="cls-5" x1="46.03" y1="258.6" x2="48.47" y2="263.75"/><line class="cls-5" x1="50.29" y1="259.58" x2="47.75" y2="262.22"/><line class="cls-5" x1="46.7" y1="266.13" x2="49.02" y2="270.81"/><line class="cls-5" x1="51.14" y1="266.13" x2="49.02" y2="268.47"/><line class="cls-5" x1="46.7" y1="273.7" x2="49.35" y2="279.6"/><line class="cls-5" x1="52.07" y1="275.49" x2="49.35" y2="277.99"/><line class="cls-5" x1="47.25" y1="283.32" x2="49.38" y2="290.38"/><line class="cls-5" x1="52.41" y1="284.68" x2="49.38" y2="288.09"/><line class="cls-5" x1="46.19" y1="294.3" x2="48.31" y2="300.26"/><line class="cls-5" x1="51.65" y1="295.41" x2="48.47" y2="298.13"/><line class="cls-5" x1="24.1" y1="93.22" x2="26.76" y2="97.39"/><line class="cls-5" x1="25.26" y1="101.28" x2="28.14" y2="104.85"/><line class="cls-5" x1="26.04" y1="108.52" x2="28.95" y2="112.4"/><line class="cls-5" x1="26.59" y1="115.91" x2="29.97" y2="119.66"/><line class="cls-5" x1="30.7" y1="122.79" x2="28.28" y2="124.64"/><line class="cls-5" x1="31" y1="127.15" x2="28.95" y2="131"/><line class="cls-5" x1="31.8" y1="132.43" x2="30.26" y2="137.96"/><line class="cls-5" x1="32.49" y1="142.1" x2="31" y2="145.62"/><line class="cls-5" x1="33.82" y1="148.73" x2="31.8" y2="154.73"/><line class="cls-5" x1="34.97" y1="157.87" x2="32.13" y2="162.54"/><line class="cls-5" x1="35.77" y1="164.98" x2="32.96" y2="169.02"/><line class="cls-5" x1="36.97" y1="170.64" x2="33.55" y2="177.71"/><line class="cls-5" x1="37.76" y1="179.49" x2="34.97" y2="186.44"/><line class="cls-5" x1="38.54" y1="187.28" x2="37.76" y2="193.96"/><line class="cls-5" x1="37.37" y1="190.62" x2="35.26" y2="189.6"/><line class="cls-5" x1="36.97" y1="180.52" x2="34.36" y2="177.71"/><line class="cls-5" x1="39.73" y1="198.9" x2="38.54" y2="203.37"/><line class="cls-5" x1="36.36" y1="198.9" x2="38.54" y2="201.19"/><line class="cls-5" x1="40.76" y1="207.49" x2="39.41" y2="212.17"/><line class="cls-5" x1="36.36" y1="207.01" x2="39.41" y2="210.21"/><line class="cls-5" x1="41.43" y1="215.75" x2="40.09" y2="220.94"/><line class="cls-5" x1="37.45" y1="215.75" x2="40.76" y2="218.34"/><line class="cls-5" x1="43" y1="225.89" x2="40.76" y2="230.73"/><line class="cls-5" x1="38.37" y1="224.88" x2="41.43" y2="228.5"/><line class="cls-5" x1="43.51" y1="234.04" x2="41.43" y2="239.32"/><line class="cls-5" x1="38.49" y1="233.36" x2="41.88" y2="236.68"/><line class="cls-5" x1="44.24" y1="242.79" x2="42.47" y2="248.94"/><line class="cls-5" x1="39.13" y1="242.79" x2="42.47" y2="246.47"/><line class="cls-5" x1="44.93" y1="253.53" x2="42.97" y2="258.6"/><line class="cls-5" x1="40.5" y1="252.2" x2="43.51" y2="255.92"/><line class="cls-5" x1="45.63" y1="262.71" x2="42.97" y2="270.21"/><line class="cls-5" x1="40.5" y1="262.22" x2="43.51" y2="267.3"/><line class="cls-5" x1="45.63" y1="275.05" x2="42.97" y2="281.19"/><line class="cls-5" x1="40.5" y1="273.02" x2="43.95" y2="277.99"/><line class="cls-5" x1="46.19" y1="285.79" x2="42.97" y2="292.09"/><line class="cls-5" x1="40.84" y1="284.68" x2="43.95" y2="289.79"/><line class="cls-5" x1="45.63" y1="294.98" x2="42" y2="302.46"/><line class="cls-5" x1="40.5" y1="294.3" x2="42.97" y2="299.24"/><line class="cls-5" x1="37.33" y1="218.34" x2="34.73" y2="224.88"/><line class="cls-5" x1="37.76" y1="229.53" x2="34.73" y2="234.43"/><line class="cls-5" x1="38.37" y1="237.11" x2="34.73" y2="243.83"/><line class="cls-5" x1="39.41" y1="246.9" x2="37.76" y2="256.51"/><line class="cls-5" x1="35.26" y1="248.47" x2="37.45" y2="252.2"/><line class="cls-5" x1="39.9" y1="260.32" x2="37.37" y2="268.47"/><line class="cls-5" x1="36.03" y1="260.32" x2="38.37" y2="265.24"/><line class="cls-5" x1="39.9" y1="272.34" x2="37.37" y2="280.64"/><line class="cls-5" x1="35.26" y1="272.34" x2="37.76" y2="277.02"/><line class="cls-5" x1="39.9" y1="284.32" x2="37.2" y2="292.86"/><line class="cls-5" x1="34.25" y1="283.32" x2="38.37" y2="288.09"/><line class="cls-5" x1="39.67" y1="297.28" x2="34.73" y2="303.04"/><line class="cls-5" x1="34.25" y1="295.96" x2="36.24" y2="300.55"/><line class="cls-5" x1="31.4" y1="175.43" x2="28.8" y2="180.52"/><line class="cls-5" x1="31.8" y1="184.34" x2="29.49" y2="188.59"/><line class="cls-5" x1="32.49" y1="192.43" x2="28.8" y2="197.66"/><line class="cls-5" x1="33.01" y1="201.13" x2="30.94" y2="208"/><line class="cls-5" x1="29.49" y1="201.96" x2="31.8" y2="204.57"/><line class="cls-5" x1="33.73" y1="212.64" x2="31.4" y2="220.37"/><line class="cls-5" x1="28.4" y1="212.17" x2="31.4" y2="216.5"/><line class="cls-5" x1="34.18" y1="225.89" x2="30.95" y2="233.36"/><line class="cls-5" x1="29.49" y1="224.88" x2="31.98" y2="229.63"/><line class="cls-5" x1="34.25" y1="238.24" x2="30.95" y2="247.7"/><line class="cls-5" x1="28.41" y1="238.9" x2="31.8" y2="242.97"/><line class="cls-5" x1="34.18" y1="252.2" x2="31.4" y2="262.71"/><line class="cls-5" x1="28.8" y1="252.69" x2="32.49" y2="258.6"/><line class="cls-5" x1="34.66" y1="268.47" x2="31.4" y2="278.12"/><line class="cls-5" x1="28.95" y1="268.47" x2="31.98" y2="275.51"/><line class="cls-5" x1="33.73" y1="285.79" x2="31.4" y2="292.09"/><line class="cls-5" x1="29.49" y1="282.3" x2="31.98" y2="288.59"/><polyline class="cls-5" points="33.01 296.77 30.95 300.55 28.95 294.98"/><line class="cls-5" x1="28.8" y1="134.46" x2="26.59" y2="144.6"/><line class="cls-5" x1="25.26" y1="134.46" x2="27.49" y2="138.68"/><line class="cls-5" x1="24.37" y1="149.28" x2="26.38" y2="157.87"/><line class="cls-5" x1="28.28" y1="149.28" x2="26.04" y2="152.51"/><line class="cls-5" x1="23.76" y1="161.53" x2="26.59" y2="169.7"/><line class="cls-5" x1="28.28" y1="163.32" x2="26.04" y2="165.62"/><line class="cls-5" x1="23.2" y1="171.88" x2="26.04" y2="185.09"/><line class="cls-5" x1="28.73" y1="176.22" x2="25.38" y2="180"/><line class="cls-5" x1="23.1" y1="189.6" x2="25.38" y2="198.9"/><line class="cls-5" x1="28.28" y1="190.22" x2="25.38" y2="194.47"/><line class="cls-5" x1="23.1" y1="203.37" x2="26.04" y2="214.34"/><line class="cls-5" x1="28.28" y1="203.99" x2="25.38" y2="207.49"/><line class="cls-5" x1="22.4" y1="217.96" x2="25.38" y2="230.73"/><line class="cls-5" x1="27.53" y1="218.34" x2="24.33" y2="224.34"/><line class="cls-5" x1="22.4" y1="233.36" x2="25.93" y2="242.05"/><line class="cls-5" x1="27.53" y1="235.02" x2="24.57" y2="237.71"/><line class="cls-5" x1="25.38" y1="253.53" x2="21.8" y2="243.83"/><line class="cls-5" x1="28.28" y1="247.7" x2="25.26" y2="249.87"/><line class="cls-5" x1="21.85" y1="256.87" x2="25.38" y2="265.24"/><line class="cls-5" x1="28.28" y1="258.6" x2="24.24" y2="261.17"/><line class="cls-5" x1="22.4" y1="268.47" x2="25.26" y2="277.02"/><line class="cls-5" x1="28.28" y1="270.21" x2="24.33" y2="274.22"/><line class="cls-5" x1="22.4" y1="279.6" x2="25.38" y2="288.09"/><line class="cls-5" x1="28.28" y1="281.19" x2="24.57" y2="284.68"/><line class="cls-5" x1="22.4" y1="292.09" x2="26.31" y2="299.24"/><line class="cls-5" x1="27.53" y1="292.86" x2="25.93" y2="295.96"/><polyline class="cls-5" points="23.76 300.16 26.26 305.27 28.28 301.58"/><line class="cls-5" x1="22.4" y1="107.41" x2="24.24" y2="113.51"/><line class="cls-5" x1="21.42" y1="115.32" x2="24.62" y2="122.09"/><line class="cls-5" x1="20.66" y1="124.64" x2="24.1" y2="131"/><line class="cls-5" x1="20.17" y1="135.19" x2="23.76" y2="140.73"/><line class="cls-5" x1="19.85" y1="142.1" x2="23.1" y2="149.28"/><line class="cls-5" x1="19.41" y1="152" x2="21.42" y2="160.21"/><line class="cls-5" x1="23.2" y1="153.58" x2="20.66" y2="157.12"/><line class="cls-5" x1="19.85" y1="164.09" x2="20.66" y2="172.26"/><line class="cls-5" x1="23.2" y1="164.98" x2="21.42" y2="168.17"/><line class="cls-5" x1="18.3" y1="177.71" x2="20.66" y2="185.09"/><line class="cls-5" x1="23.04" y1="178.49" x2="19.81" y2="182.43"/><line class="cls-5" x1="17.82" y1="189.6" x2="20.66" y2="197.1"/><line class="cls-5" x1="22.4" y1="189.6" x2="19.48" y2="193.5"/><line class="cls-5" x1="17.34" y1="201.96" x2="19.48" y2="210.64"/><line class="cls-5" x1="22.51" y1="201.96" x2="18.79" y2="206.79"/><line class="cls-5" x1="16.88" y1="214.51" x2="18.79" y2="224.34"/><line class="cls-5" x1="21.42" y1="215.75" x2="18.79" y2="219.43"/><line class="cls-5" x1="16.88" y1="229.53" x2="19.48" y2="240.07"/><line class="cls-5" x1="21.85" y1="229.53" x2="18.79" y2="234.8"/><line class="cls-5" x1="15.82" y1="242.79" x2="19.48" y2="252.69"/><line class="cls-5" x1="21.66" y1="244.86" x2="17.65" y2="247.74"/><line class="cls-5" x1="15.62" y1="255.64" x2="17.83" y2="263.75"/><line class="cls-5" x1="21.42" y1="257.46" x2="17.49" y2="261.17"/><line class="cls-5" x1="15.82" y1="266.46" x2="18.79" y2="274.22"/><line class="cls-5" x1="21.42" y1="268.47" x2="18.18" y2="270.34"/><line class="cls-5" x1="15.52" y1="276.65" x2="18.41" y2="284.32"/><line class="cls-5" x1="21.42" y1="278.12" x2="18.41" y2="280.64"/><line class="cls-5" x1="15.17" y1="287.24" x2="18.79" y2="294.41"/><line class="cls-5" x1="21.66" y1="287.24" x2="17.83" y2="292.09"/><line class="cls-5" x1="15.52" y1="296.77" x2="19.48" y2="303.04"/><line class="cls-5" x1="22.4" y1="297.28" x2="18.79" y2="300.55"/><line class="cls-5" x1="21.93" y1="93.22" x2="17.62" y2="99.86"/><line class="cls-5" x1="21.42" y1="102.38" x2="19.17" y2="110.53"/><line class="cls-5" x1="17.46" y1="104.21" x2="19.17" y2="106.45"/><line class="cls-5" x1="20.17" y1="115.91" x2="18.32" y2="120.94"/><line class="cls-5" x1="16.51" y1="114.36" x2="19.17" y2="117.79"/><line class="cls-5" x1="19.63" y1="125.12" x2="17.97" y2="131.79"/><line class="cls-5" x1="16.51" y1="124.64" x2="18.2" y2="129.07"/><line class="cls-5" x1="19.85" y1="136.57" x2="17.62" y2="143.86"/><line class="cls-5" x1="15.4" y1="134.46" x2="18.2" y2="139.53"/><line class="cls-5" x1="19.48" y1="150.33" x2="16.51" y2="157.12"/><line class="cls-5" x1="15.17" y1="147.14" x2="17.97" y2="153.79"/><line class="cls-5" x1="18.41" y1="162.54" x2="15.82" y2="169.02"/><line class="cls-5" x1="13.48" y1="159.47" x2="16.8" y2="165.78"/><line class="cls-5" x1="18.44" y1="174.55" x2="15.14" y2="180.52"/><line class="cls-5" x1="12.83" y1="172.26" x2="16.51" y2="177.54"/><line class="cls-5" x1="17.34" y1="185.92" x2="13.48" y2="193.96"/><line class="cls-5" x1="12.83" y1="183.63" x2="15.82" y2="189.09"/><line class="cls-5" x1="16.88" y1="198.9" x2="14.32" y2="205.74"/><line class="cls-5" x1="12.83" y1="198.9" x2="15.41" y2="202.82"/><line class="cls-5" x1="16.36" y1="211.64" x2="13.48" y2="218.34"/><line class="cls-5" x1="12.16" y1="208.85" x2="14.12" y2="214.99"/><line class="cls-5" x1="16.36" y1="224.88" x2="12.83" y2="231.86"/><line class="cls-5" x1="10.84" y1="221.5" x2="14.12" y2="228.31"/><line class="cls-5" x1="16.11" y1="237.87" x2="12.16" y2="244.86"/><line class="cls-5" x1="10.57" y1="235.02" x2="13.48" y2="241.37"/><line class="cls-5" x1="15.41" y1="250.89" x2="12.35" y2="258.6"/><line class="cls-5" x1="9.44" y1="247.74" x2="13.14" y2="254.74"/><line class="cls-5" x1="15.17" y1="263.75" x2="11.29" y2="270.21"/><line class="cls-5" x1="9.44" y1="260.9" x2="12.35" y2="266.98"/><line class="cls-5" x1="15.27" y1="273.7" x2="11.29" y2="280.64"/><line class="cls-5" x1="9.14" y1="272.74" x2="12.35" y2="277.51"/><line class="cls-5" x1="14.78" y1="283.84" x2="10.74" y2="291.36"/><line class="cls-5" x1="8.06" y1="282.94" x2="12.16" y2="288.09"/><line class="cls-5" x1="15.17" y1="292.86" x2="11.29" y2="300.55"/><line class="cls-5" x1="8.06" y1="292.86" x2="12.03" y2="298.26"/></svg>