<svg id="Layer_1" data-name="Layer 1" xmlns="http://www.w3.org/2000/svg" viewBox="0 0 191.1 178.28"><defs><style>.cls-1,.cls-2{fill:#b0642f;}.cls-1,.cls-4{stroke:#4d2c14;stroke-linecap:round;stroke-linejoin:round;stroke-width:2px;}.cls-3{fill:#b1642e;}.cls-4{fill:none;}</style></defs><title>2</title><path class="cls-1" d="M245.27,185.38c-2-4.6,4.22-15.83,5.24-20s-.51-16.94-5.24-20.78,0-16.47-6.84-22.86-4-28.44-4-28.44c-6.33-22.8-20.22-16-25.15-22.13S193.15,52.78,185,55.51a143.9,143.9,0,0,0-17.68,7.71,143.9,143.9,0,0,0-17.68-7.71c-8.18-2.73-19.44,9.53-24.36,15.66s-18.83-.67-25.16,22.13c0,0,3,22-3.94,28.44s-2.11,19-6.84,22.86S83,161.22,84.06,165.38s7.25,15.4,5.25,20-11,15.12-11,15.12,11.89,13.52,27.1,6.77,17.9,4.6,17.9,4.6-.78-7,5.53-6.92,7.26,5.13,10.13,5.44c2.69.3,24.56-4.14,27.29-4.7,2.95.56,26.57,5,29.26,4.7,2.87-.31,3.83-5.41,10.14-5.44s9.53,6.92,9.53,6.92-1.31-11.34,13.89-4.6,27.11-6.77,27.11-6.77S247.28,190,245.27,185.38Z" transform="translate(-67.57 -54.12)"/><path class="cls-1" d="M184,201.31s6.9,4.05,4.12,9.56-1.73,8.53-1.73,8.53-6.6-2.28-3.82-5.83c5.81-7.4-6.1-10.21-6.1-10.21" transform="translate(-67.57 -54.12)"/><path class="cls-1" d="M188.31,198.23s4,9.66-1.34,13.64,6.46,11.34,6.46,11.34-5-6.11-1.84-8.84,5.84-13.59,3.28-16.14" transform="translate(-67.57 -54.12)"/><path class="cls-1" d="M143.49,200.34s4.69,12.66-.45,17.1-8.21,1.94-8.21,1.94,17,14.83,16.78-13.91" transform="translate(-67.57 -54.12)"/><path class="cls-1" d="M85.3,196.1s7.83,11.92,0,19.75c0,0,10.72-2.68,8.85-17.71" transform="translate(-67.57 -54.12)"/><path class="cls-1" d="M128.24,200.34s-6,19.06,4.67,28.07A37.09,37.09,0,0,1,138,202.46" transform="translate(-67.57 -54.12)"/><path class="cls-1" d="M126.92,185.38s9.17,2.68,8.75,11.44-16.36,13.86-15.76,21.05,6.6,13.52,6.6,13.52-7.75-9-1.19-12.55,17.05-6.44,18.55-16.18-7.36-15.33-7.36-15.33" transform="translate(-67.57 -54.12)"/><path class="cls-1" d="M231.9,103.13s7.17-2.16,8.4,3.73-3.39,8.61-1.81,13.55,6.66,1.09,8.8,5.9-.66,11.43,2.66,13.48c0,0-5.82-2.09-6.08-6.27s-5.41-6-6.94-6-6.47-5.39-5.28-10.6a8.69,8.69,0,0,0-2.89-8.42" transform="translate(-67.57 -54.12)"/><path class="cls-1" d="M209.6,75.8s32.71,12.84,26.21,24.3-11.23,8.85-9.23,16.68,15.44,9.09,13,16.71c-1.8,5.64-5.47,9-8.62,11.79,0,0,3.06-8,0-13.13S215.68,115.43,217.7,113s-.25-2.05,2.59-5.11,7.69-4.42,4.62-10S209.51,90,209.51,90" transform="translate(-67.57 -54.12)"/><path class="cls-1" d="M191.59,185.38s14.52,7.57,8.9,13.85S190,210.84,193,214.47a31.6,31.6,0,0,1,5.68,10.74s-.85-8.18.43-14.49,8.18-7.21,9-12.79S202,185.38,202,185.38" transform="translate(-67.57 -54.12)"/><path class="cls-1" d="M207,174.67s-13.67,16.31-.66,27.72-1.76,16.26-2.93,18.56-1.71,7,.73,7.46c0,0,.93-7.5,6.15-9s10-7.38,7.37-12.23-9.39-8.26-8.19-15.75a33.25,33.25,0,0,1,4.21-12.08" transform="translate(-67.57 -54.12)"/><path class="cls-1" d="M217.7,140.56s13.64,17.41,0,26.61-4.62,17.47,2.59,22.22-1.54,18.31-3.09,22.38,4.24,9.18,4.24,9.18-2.06-9.18,7.13-19.64S229,181.73,224,178.4c-8.52-5.65,4.75-8.86,7-14.64,3.2-8.37-2-21.23-2-21.23" transform="translate(-67.57 -54.12)"/><path class="cls-1" d="M243.13,165.38s21.19,11.15,12.42,24c-6.89,10.07-1.41,20.38-1.41,20.38s-10.24-7.36-5.32-16.62c6.56-12.35-5.69-15.55-5.69-15.55" transform="translate(-67.57 -54.12)"/><path class="cls-1" d="M236,193s7.95,3.92,3.46,7.54-6.94,5.57-4.13,8.6a18.14,18.14,0,0,1,4.28,6.82s-1-5.45-.23-8.23c.78-3,2.44-4.31,4.42-6.86,2.41-3.09,1.77-8.28-5.21-14.35" transform="translate(-67.57 -54.12)"/><path class="cls-1" d="M241.09,135.05s12.76,3.66,11.23,9.55-10,7.79-4.5,10.28,8.74,3.69,8.41,6.16a32.46,32.46,0,0,1-1.61,5.78s2.66-5.7-4.67-5.78-12.18-6.65-8.86-12.18-1.74-9.07-1.74-9.07" transform="translate(-67.57 -54.12)"/><path class="cls-2" d="M204.18,83.55s-6.6-15.44-36-16.69S136.4,81,136.4,81L158.64,78l9.07,8.17,16.14-7.4Z" transform="translate(-67.57 -54.12)"/><path class="cls-2" d="M209.51,106.82s-6.39,19.17,8.19,25.52c0,0,5.67-23.87-8.19-26.86" transform="translate(-67.57 -54.12)"/><path class="cls-1" d="M80.15,161s-.68,15.32-5.45,17.7-6.13,0-6.13,0,6.58,16,20.74-13.36" transform="translate(-67.57 -54.12)"/><path class="cls-1" d="M96.39,132.34s4.36,10-9.89,15.51-7.57,18.28-5.82,19,7.56,6.45,2.32,14.22-8.22,13-5.42,20,6.52,9.31,6.52,9.31S76,197.3,81.55,191.78s16.58-8.44,14.26-17.46-14-11.93-9-17.75,15.69-2.26,19.2-8.69-2.5-11.87-2.5-11.87" transform="translate(-67.57 -54.12)"/><path class="cls-1" d="M102.34,157.63s-6.28,9.31.87,17,10,16.75,8.17,19.22c-2.68,3.7-17.1,12.25-16.85,18.89s7.81,12.43,7.81,12.43-4.86-12.51,0-15.83,7.76-5.07,16-11.41c7.2-5.51,3.49-15.57-4.17-20.17s-9.45-14.29-6.9-20.17" transform="translate(-67.57 -54.12)"/><path class="cls-1" d="M115.37,118.75s.1,12.37,6.74,13.4,3.21,10.73-3.37,16.78-3.78,18.21,3.11,23.59,8.94,14.72.51,18.39-13.43,11.32-9.86,17.27,4.76,9.62,1.86,14.43l-2.89,4.81s1.49-6.79-.91-11.6c-.45-.9-.89-1.71-1.31-2.42a16.31,16.31,0,0,1-1.15-14.54c.15-.35.31-.7.47-1,2.56-5.21,8.91-9.86,10-13.11,1.79-5.33,0-9.58-3.2-13.5-3.52-4.26-8.48-8.15-7.64-14s6.31-9.59,7.65-15.15a8.59,8.59,0,0,0-2.67-8.17c-5.66-5.39-4.59-13.39-1.51-22.2" transform="translate(-67.57 -54.12)"/><path class="cls-3" d="M165.22,85.44s-7.44-6.07-14.79-1.89-.64,7.7-9.25,8.21-8.67-.27-10.55,4.6,2.2,6.23,1.18,9.12-9.19,6.45-9.7,7.22-1.75,6.72-1.75,6.72-5.91-10.19-3.1-13.94,13.92-23.4,13.92-23.4l20.07-5.61S168.24,74.78,165.22,85.44Z" transform="translate(-67.57 -54.12)"/><path class="cls-1" d="M167.71,69.5s-18.45-12.12-28.33-6.08-4.5,11.54-8.2,18.66-9,7.13-14.68,7.47-8.86,18.38-8.86,18.38,5.19-14.54,10.12-14.59,20.16-.63,21.57-8.51,14.8-9.93,14.8-9.93" transform="translate(-67.57 -54.12)"/><path class="cls-1" d="M167.71,86.14s-24.92-13.32-32.58,4.56-16.24,15.14-25,21.74c-7.76,5.83-10.46,15.53-.53,23.65,5.34,4.37,15.12,20.48-7.23,27.63s-3.78,12.51,0,17.62,3.58,20.46-19.55,25.83c0,0,24.51-14.6,11.49-24-9.49-6.88-15.16-19.33-2.22-26s20.08-8.32,8.16-15.31c-10.91-6.4-16.89-26.6,2.12-36.3s22.92-25.78,28.29-31.15S165.38,63.17,167.71,86.14Z" transform="translate(-67.57 -54.12)"/><path class="cls-1" d="M176.31,71.85s9.84-12.15,27.14-5.06,11,17.36,10.15,30.25,17.7,10.21,21.1,16-6.47,15.89-6.47,20.37,7.54,14.77,15.66,23.12,2.39,13-5.78,21.53-12.85,17.7-11.53,24.85,10.49,10.21,4.37,14.64c0,0,5.13-2.05-7-7.16s-3.5-26.2,2.59-33,12.16-12.53,6.74-22.26-17-12.57-15.28-21.71,9.85-8.8,4.07-15.61-22.27-4.42-15.07-18-8.93-25.64-18.73-24.59" transform="translate(-67.57 -54.12)"/><path class="cls-1" d="M167.71,86.14S196,74.23,203.45,89.55s-2.26,24.22,0,33.35,12.22,8,14.25,17.66-8.95,14.7-6.37,23.28,5.58,9.8,9,25.55c0,0-.38-13.51-4.82-24.47s12.06-17.29,11.06-25.79c-1-8.7-12.64-14.7-14.81-19.71s7-22.64,3.75-30.89S192.27,63.8,167.71,86.14Z" transform="translate(-67.57 -54.12)"/><path class="cls-4" d="M167.29,63.22c3.7,8.68.75,20.33.75,20.33" transform="translate(-67.57 -54.12)"/><path class="cls-1" d="M167.71,86.26s-15.51-5.68-16.48-.12-3.32,8.32-6.23,9.2-10.65-3.65-12.26,2.21,2,7.69.86,10.72c-.86,2.17-12.15,3.44-8.62,9.6s10.15,5.88,1.81,12.28c0,0,3.66-4.75-1.45-7.1-4.85-2.24-7.23-2.1-7-8.18.29-6.49,7.75-5.05,9.85-8.47,2.39-3.92-2.72-14.33.67-15.83s7.93-.12,12.27-1.87,2.72-3.25,6.89-6.36S163.92,81,167.71,86.26Z" transform="translate(-67.57 -54.12)"/><path class="cls-1" d="M167.18,86.25s-11.78.91-9.41,8.57C157.77,94.82,148.86,81.25,167.18,86.25Z" transform="translate(-67.57 -54.12)"/><path class="cls-4" d="M166.92,86.53s-6,.38-6,4.92" transform="translate(-67.57 -54.12)"/></svg>