<svg id="Layer_1" data-name="Layer 1" xmlns="http://www.w3.org/2000/svg" viewBox="0 0 122.02 103.07"><defs><style>.cls-1{fill:#b0642f;}.cls-1,.cls-2{stroke:#4d2c14;stroke-linecap:round;stroke-linejoin:round;stroke-width:2px;}.cls-2{fill:none;}</style></defs><title>3</title><path class="cls-1" d="M218.19,91.67s-13.45-49.19-65-26.89C153.17,64.78,191.67,69.61,218.19,91.67Z" transform="translate(-103.78 -54.43)"/><path class="cls-1" d="M223.47,93c-5.18-26.59-30.73-27.11-34.72-27h0c-.33,0-.53,0-.53,0l.76.38c1.13,2.15,5.33,11.21,5.33,11.21a20.67,20.67,0,0,1,3.07,2.18l0,0c5.19,4.26,8.71,15.53,9.14,25.21a60.81,60.81,0,0,0,.92-10.38c7.13,16.52,7.14,44.53,7.14,44.53.42-1.29.81-2.54,1.18-3.78-.43,1.54-.74,2.41-.74,2.41S229.09,121.89,223.47,93Z" transform="translate(-103.78 -54.43)"/><path class="cls-1" d="M195.78,75.09c-.25-.46-4.61-25.07-46.61-18.56-34,5.28-41.27,29.61-43,34.72-1.48,4.42-3.78,25.7,5,41.58a58.78,58.78,0,0,1,5.17,12.4,112.33,112.33,0,0,0,3.72,11.27s-2.41-27.72,10.25-42.72c-7.92,16.29-4.94,25.72-4.62,25.95,5.08-16.31,14.25-30.71,23.49-37.14-2.45,6.11-4.71,16.83-4.71,16.83,12.11-18.22,34.14-33.28,34.14-33.28,1.24,8.19-6.4,14.54-6.64,14.81C189.06,92.59,198.53,78.64,195.78,75.09Z" transform="translate(-103.78 -54.43)"/><path class="cls-2" d="M149.17,102.59a52.6,52.6,0,0,1,15.4-19.68" transform="translate(-103.78 -54.43)"/><path class="cls-2" d="M178.6,86.14s8.23-5.49,6.19-11.61" transform="translate(-103.78 -54.43)"/><path class="cls-2" d="M175.13,60.78" transform="translate(-103.78 -54.43)"/><path class="cls-2" d="M207.46,94.66s-.52-7.81-3.14-12.47" transform="translate(-103.78 -54.43)"/></svg>