<svg id="Layer_1" data-name="Layer 1" xmlns="http://www.w3.org/2000/svg" viewBox="0 0 180.21 272.18"><defs><style>.cls-1{fill:#89491d;}.cls-1,.cls-2,.cls-3{stroke:#4d2c14;stroke-linecap:round;stroke-linejoin:round;stroke-width:2px;}.cls-2,.cls-4{fill:#b0642f;}.cls-3{fill:none;}</style></defs><title>4</title><path class="cls-1" d="M238.85,314l-72.3.62H93.74s18-20.51,17.16-143.81C110.07,54.35,160.41,67.05,166,68.89h0s56.53-22,55.65,101.24S238.85,314,238.85,314Z" transform="translate(-77.19 -47.53)"/><path class="cls-2" d="M167.18,50.75,167,83.47S98.51,55.89,134.7,196.53C166.19,319,118.15,318.71,118.15,318.71L98,312.79c6.21-8.23,4.4-27.16,4.4-27.16-5.58,24.59-12.68,24.64-13,24.63h0L78.19,307s16.23-46,16.34-75.14C94.74,171.83,76.79,32,167.18,50.75Z" transform="translate(-77.19 -47.53)"/><path class="cls-2" d="M235.45,313c-5.38-5.33-13-17.14-13-17.14,2.7,13.62,8.53,18.46,8.53,18.46l-7,2.05c-12.08-10.81-20.54-33.79-20.54-33.79,2.11,16,16.84,34.88,16.84,34.88L216,318.71s-48,.25-16.55-122.18C235.59,55.89,167,83.47,167,83.47l.1-32.72c87.64-21.67,72.26,121.08,72.47,181.08.11,29.1,16.34,75.14,16.34,75.14Z" transform="translate(-77.19 -47.53)"/><path class="cls-2" d="M166.92,83.47S143.57,83,141.87,97C141.87,97,145.77,70.65,166.92,83.47Z" transform="translate(-77.19 -47.53)"/><path class="cls-2" d="M93.88,202.05s-.14,57.71-13.19,68.35c0,0,15.31-9.62,14.43-27.53" transform="translate(-77.19 -47.53)"/><path class="cls-2" d="M190.8,238.17a207,207,0,0,0-6.31,57.34s4.59-25.15,9.23-35.37" transform="translate(-77.19 -47.53)"/><path class="cls-3" d="M167.15,78s14.28-11.4,33.66,2.5" transform="translate(-77.19 -47.53)"/><path class="cls-3" d="M167.15,68.31s8.06-7.32,25,0" transform="translate(-77.19 -47.53)"/><path class="cls-3" d="M167.15,59.46s8.32-9.36,30.28,0" transform="translate(-77.19 -47.53)"/><path class="cls-3" d="M139.21,71.08c20.43-7.77,27.09,2.49,27.09,2.49" transform="translate(-77.19 -47.53)"/><path class="cls-3" d="M166.92,66.69s-3.41-10.16-23.9-5.57" transform="translate(-77.19 -47.53)"/><path class="cls-3" d="M220.29,110.44s11.86,47.45-8.83,107.45C196.33,261.75,208,269,208,269" transform="translate(-77.19 -47.53)"/><path class="cls-3" d="M226.15,197.46S208.49,264,237.77,288c0,0-16.17-35.35-6.82-62.81" transform="translate(-77.19 -47.53)"/><polygon class="cls-4" points="113.94 193.38 115.06 188.74 114.32 195.59 113.94 194.48 113.94 193.38"/><path class="cls-3" d="M109.57,316.19s32.4-10.13,21.06-67.66" transform="translate(-77.19 -47.53)"/><path class="cls-3" d="M100.22,165.38s15.65,50.51,9.88,74.32" transform="translate(-77.19 -47.53)"/><path class="cls-3" d="M113.43,189.39s12.5,41.42-5.37,72.07" transform="translate(-77.19 -47.53)"/><polygon class="cls-4" points="16.09 193.08 18.87 193.84 18.87 165.76 17.9 159.91 17.18 170.23 16.09 193.08"/><path class="cls-4" d="M94.28,218.11" transform="translate(-77.19 -47.53)"/><path class="cls-3" d="M128.24,85.05s-11.15,13-9.88,41.6" transform="translate(-77.19 -47.53)"/><path class="cls-2" d="M238.23,125.5" transform="translate(-77.19 -47.53)"/><path class="cls-2" d="M241,248.53S246.8,281.21,256.4,288c0,0-6.46-4.68-14.21-21.18" transform="translate(-77.19 -47.53)"/><polygon class="cls-4" points="163.15 203.42 164.38 208.84 164.66 211.8 163.51 210.27 163.15 203.42"/></svg>