<svg id="Layer_1" data-name="Layer 1" xmlns="http://www.w3.org/2000/svg" viewBox="0 0 108.66 94.37"><defs><style>.cls-1{fill:#834c1d;}.cls-1,.cls-2,.cls-3{stroke:#4d2c14;stroke-linecap:round;stroke-linejoin:round;stroke-width:2px;}.cls-2{fill:#b0642f;}.cls-3{fill:none;}</style></defs><title>5</title><path class="cls-1" d="M117.14,132.9s2.67-15.78,6.24-20.88c0,0-1.38-23.15,11.73-31.49l-9.88-7.83S107.52,74.47,117.14,132.9Z" transform="translate(-113.28 -39.53)"/><path class="cls-1" d="M216.85,132.9s-.27-15.7-5.24-20.88c0,0,1.38-22.15-11.72-30.49l10.87-8.83S226.47,74.47,216.85,132.9Z" transform="translate(-113.28 -39.53)"/><path class="cls-2" d="M135.11,81.38s-10-15.72-8.43-29.4C126.68,52,109.06,80.53,135.11,81.38Z" transform="translate(-113.28 -39.53)"/><path class="cls-3" d="M147.09,55.44S162.68,33.21,183.65,43" transform="translate(-113.28 -39.53)"/><path class="cls-3" d="M207.52,53.94c-29.72-24.62-46.72,5.72-46.72,5.72" transform="translate(-113.28 -39.53)"/><path class="cls-3" d="M218.64,68c-2.81-27.45-38.81-7.41-38.81-7.41" transform="translate(-113.28 -39.53)"/><path class="cls-2" d="M218.64,68.65c.88-10.86-10.24-15.08-10.24-15.08a37.52,37.52,0,0,0-23.21-9.94c-14.68-6-23.11-.66-23.11-.66s-34.32-3.17-34.32,23.4c0,30.11,34.32,16.33,34.32,16.33,9.58,8.55,32.09-1.24,32.09-1.24l-1.32,2.41c20.55-10.32,24.86-4.33,24.86-4.33C224.18,75.37,218.64,68.65,218.64,68.65Z" transform="translate(-113.28 -39.53)"/><path class="cls-3" d="M162.08,82.7s5.88,8.93,30.77-1.28c0,0,3.51-.7,0,2.45,0,0,20.31-9.68,24.19-4,0,0,7.6-3.47,1.6-10.74s-27.13,8.57-27.13,8.57S180,86.58,176.17,86.11" transform="translate(-113.28 -39.53)"/></svg>