<svg id="Layer_1" data-name="Layer 1" xmlns="http://www.w3.org/2000/svg" viewBox="0 0 144.95 154.25"><defs><style>.cls-1,.cls-3{fill:#b0642f;}.cls-1,.cls-2{stroke:#4d2c14;stroke-linecap:round;stroke-linejoin:round;stroke-width:2px;}.cls-2{fill:none;}</style></defs><title>6</title><path class="cls-1" d="M232.55,103.3s0,0,0-.08c-3.69-24.6-18.26-36.93-26.18-40.63-7.68-3.6-13-.21-13.34,0-.86-.24-1.36-.36-1.42-.37s0,0,0,0c-3.32-3.24-9.15-11.25-30.41-12.41C146.37,49,124.68,57.1,112.66,72l0,0c-1.17,1.17-25.46,26.3-9.73,85.74,0,0,8.24,21.72,3.31,44.21a33.22,33.22,0,0,0,17.92-8,19.3,19.3,0,0,1,.46,5.6,41.06,41.06,0,0,0,7.07-9.16,35.27,35.27,0,0,1,7,4.74c2.72,2.72.59-5.21,28.72-6.18s27.73,10.16,27.73,10.16,4-3.89,7.5-8.13c4.31,6.51,16.68,9.5,16.68,9.5-5.73-20.39,14.61-41.14,14.87-81.75A65.17,65.17,0,0,0,232.55,103.3Z" transform="translate(-94.84 -48.73)"/><path class="cls-1" d="M101.92,96.63s-9.39,7.72-4.84,43.21c0,0-.61-22.1,3.45-28.12" transform="translate(-94.84 -48.73)"/><path class="cls-2" d="M124.12,194s3.6-4.49.46-15.9" transform="translate(-94.84 -48.73)"/><line class="cls-2" x1="107.82" y1="142.27" x2="115.5" y2="131.12"/><path class="cls-1" d="M107.4,171.92s-.92,14.13-4.5,19.61a41,41,0,0,0,6.64-8" transform="translate(-94.84 -48.73)"/><path class="cls-1" d="M212.23,66.23s19.15,4.35,26.56,42.77c0,0-5.36-17.75-13.28-23.37" transform="translate(-94.84 -48.73)"/><path class="cls-1" d="M230.44,93.78s7.33,11.15,6.56,28.44-1,14.41-1,14.41-1-20.1-4.34-24.7" transform="translate(-94.84 -48.73)"/><path class="cls-2" d="M220.15,180.83s-1.28,9.13.94,13.13" transform="translate(-94.84 -48.73)"/><path class="cls-3" d="M230.6,96.14s-1.75-6.68-3.56-7.78l3.85,11.44Z" transform="translate(-94.84 -48.73)"/><path class="cls-1" d="M192,62.58s1.51-6.42,9.34-7.26Z" transform="translate(-94.84 -48.73)"/><path class="cls-2" d="M191.08,62.26s.45-6.06-3.25-8.36" transform="translate(-94.84 -48.73)"/><path class="cls-1" d="M190.41,86.91s18,17.24,18.74,34.91c1.89,42.11,17.38,48,22.49,50.93,0,0-15.8-21.18-7.65-57.82,5.61-25.21-10.63-48.05-27.33-46.33C181.84,70.12,188.51,80.78,190.41,86.91Z" transform="translate(-94.84 -48.73)"/><path class="cls-1" d="M187,82.78s7.18,10.77,6,17.41c0,0,4.78-4.75,2-11.09" transform="translate(-94.84 -48.73)"/><path class="cls-1" d="M191.58,86.14c-3.78,4-7.92,5.61-28.1,11.6h0c-.63.19-10.86,3.49-23.25,17.77l-.07.07c-17.45,23.54-7.4,58.51-7.4,58.51s-5.74-2.72-11-12.77c-.4,22.68-10.79,28.52-11.58,29.56.37-.64,3.9-4.72,3.62-19,2-9.76-6.88-32.06-6.88-32.06h0c-2.19-7.2-4.15-14.76-4.57-23.6-1-20.67,18-58.77,53.27-60.7C188.23,53.71,193,65.58,193,65.58S199.57,77.58,191.58,86.14Z" transform="translate(-94.84 -48.73)"/><path class="cls-1" d="M110.69,150.87s1.71,19.54.1,23.36c0,0,3.44-3.06,5.59-9.58" transform="translate(-94.84 -48.73)"/><path class="cls-3" d="M112.66,158a54.47,54.47,0,0,0-1.73-8l1.81.39,1.28,8.21Z" transform="translate(-94.84 -48.73)"/><path class="cls-1" d="M154.48,102.23s-10.17,9.28-9.67,13.55c0,0-1.71-4.17,2.7-11.6" transform="translate(-94.84 -48.73)"/><path class="cls-2" d="M182.62,63.68s-36-3.07-56,21.95" transform="translate(-94.84 -48.73)"/><path class="cls-2" d="M173.17,70.57s-45.43,7.15-48.89,41.36" transform="translate(-94.84 -48.73)"/><path class="cls-2" d="M111.77,150.87a87.11,87.11,0,0,1-1.67-38.94" transform="translate(-94.84 -48.73)"/><path class="cls-1" d="M224.92,109s-1.62,16.18,0,24.41c0,0-3.49-4-4.77-14" transform="translate(-94.84 -48.73)"/><path class="cls-2" d="M121.74,161.33a92.33,92.33,0,0,1-2.61-29.3" transform="translate(-94.84 -48.73)"/><path class="cls-1" d="M210.33,136.49S208.39,161,215.47,167c0,0-2.47-12.51-.9-17.31" transform="translate(-94.84 -48.73)"/><polygon class="cls-3" points="118.77 100.14 119.87 99.4 116.55 86.32 116.33 90.4 118.77 100.14"/></svg>