<svg id="Layer_1" data-name="Layer 1" xmlns="http://www.w3.org/2000/svg" viewBox="0 0 144.95 179.67"><defs><style>.cls-1,.cls-3{fill:#b0642f;}.cls-1,.cls-2{stroke:#4d2c14;stroke-linecap:round;stroke-linejoin:round;}.cls-1,.cls-2,.cls-4,.cls-5{stroke-width:2px;}.cls-2{fill:none;}.cls-4{fill:#f2cfad;stroke:#4c2c17;}.cls-4,.cls-5{stroke-miterlimit:10;}.cls-5{fill:#fde3c7;stroke:#4d2c16;}</style></defs><title>hair_6</title><path class="cls-1" d="M230.1,113.36s0,0,0-.08c-3.69-24.6-18.26-36.93-26.18-40.63-7.68-3.6-13-.21-13.34,0-.86-.24-1.36-.36-1.42-.37l0,0C185.81,69,180,61,158.72,59.84c-14.8-.81-36.49,7.32-48.51,22.2l0,0c-1.17,1.17-25.46,26.3-9.73,85.74,0,0,8.24,21.72,3.31,44.21a33.22,33.22,0,0,0,17.92-8,19.3,19.3,0,0,1,.46,5.6,41.06,41.06,0,0,0,7.07-9.16,35.27,35.27,0,0,1,7.05,4.74c2.72,2.72.59-5.21,28.72-6.18s27.73,10.16,27.73,10.16,4-3.89,7.5-8.13c4.31,6.51,16.68,9.5,16.68,9.5-5.72-20.4,14.61-41.14,14.87-81.75A65.17,65.17,0,0,0,230.1,113.36Z" transform="translate(-92.39 -58.78)"/><path class="cls-1" d="M99.48,106.68s-9.4,7.72-4.84,43.21c0,0-.61-22.1,3.44-28.12" transform="translate(-92.39 -58.78)"/><path class="cls-2" d="M121.67,204s3.6-4.5.46-15.91" transform="translate(-92.39 -58.78)"/><line class="cls-2" x1="107.82" y1="142.27" x2="115.5" y2="131.12"/><path class="cls-1" d="M105,182s-.91,14.13-4.5,19.61a41,41,0,0,0,6.64-8" transform="translate(-92.39 -58.78)"/><path class="cls-1" d="M209.79,76.28s19.15,4.36,26.55,42.77c0,0-5.36-17.75-13.28-23.37" transform="translate(-92.39 -58.78)"/><path class="cls-1" d="M228,103.83s7.32,11.15,6.55,28.44-1,14.42-1,14.42-1-20.11-4.34-24.71" transform="translate(-92.39 -58.78)"/><path class="cls-2" d="M217.7,190.88s-1.27,9.13.94,13.14" transform="translate(-92.39 -58.78)"/><path class="cls-3" d="M228.15,106.2s-1.75-6.69-3.55-7.79l3.85,11.44Z" transform="translate(-92.39 -58.78)"/><path class="cls-1" d="M189.57,72.64s1.52-6.43,9.34-7.27Z" transform="translate(-92.39 -58.78)"/><path class="cls-2" d="M188.64,72.31s.44-6.06-3.26-8.36" transform="translate(-92.39 -58.78)"/><path class="cls-4" d="M182.52,195.45h-36.1s4.74,15.77-2,37.22c3.25,3.25,11.69,4.78,20.05,4.78s16.8-1.53,20.05-4.78C177.78,211.22,182.52,195.45,182.52,195.45Z" transform="translate(-92.39 -58.78)"/><path class="cls-5" d="M212.72,132.19c-.43-14.16-1.45-27.68-8.63-36.1-15.46-18.15-39.58-17.47-39.58-17.47s-24.13-.68-39.59,17.47c-7.18,8.42-8.2,21.94-8.63,36.1-.13,4.39-.66,9.31,0,13.66,1.31,9.07,3.27,24.78,8.14,37.76,1.93,5.15,5.85,11.52,10.58,15C156.9,215,173.7,214,194,198.65c4.72-3.56,8.66-9.89,10.59-15,4.87-13,6.82-28.69,8.14-37.76C213.39,141.5,212.86,136.58,212.72,132.19Z" transform="translate(-92.39 -58.78)"/><path class="cls-1" d="M188,97s17.94,17.24,18.74,34.91c1.89,42.11,17.38,48,22.48,50.94,0,0-15.8-21.19-7.65-57.83,5.61-25.21-10.63-48-27.33-46.33C179.4,80.17,186.06,90.83,188,97Z" transform="translate(-92.39 -58.78)"/><path class="cls-1" d="M184.6,92.83s7.17,10.77,6,17.41c0,0,4.79-4.75,2-11.09" transform="translate(-92.39 -58.78)"/><path class="cls-1" d="M189.13,96.2c-3.78,4-7.92,5.61-28.1,11.6h0c-.63.19-10.86,3.49-23.25,17.77a.46.46,0,0,0-.07.07c-17.45,23.53-7.4,58.51-7.4,58.51s-5.74-2.72-11-12.77c-.4,22.68-10.79,28.52-11.58,29.56.37-.64,3.9-4.72,3.62-19,2-9.76-6.88-32.06-6.88-32.06h0c-2.19-7.2-4.15-14.76-4.57-23.6-1-20.67,18-58.77,53.27-60.7,32.63-1.79,37.42,10.08,37.42,10.08S197.12,87.64,189.13,96.2Z" transform="translate(-92.39 -58.78)"/><path class="cls-1" d="M108.24,160.92s1.72,19.55.1,23.36c0,0,3.44-3.06,5.59-9.57" transform="translate(-92.39 -58.78)"/><path class="cls-3" d="M110.21,168a53,53,0,0,0-1.73-8l1.81.38,1.28,8.21Z" transform="translate(-92.39 -58.78)"/><path class="cls-1" d="M152,112.28s-10.17,9.28-9.66,13.55c0,0-1.71-4.17,2.69-11.6" transform="translate(-92.39 -58.78)"/><path class="cls-2" d="M180.17,73.73s-36-3.07-56,22" transform="translate(-92.39 -58.78)"/><path class="cls-2" d="M170.72,80.62S125.29,87.77,121.84,122" transform="translate(-92.39 -58.78)"/><path class="cls-2" d="M109.32,160.92A87.11,87.11,0,0,1,107.65,122" transform="translate(-92.39 -58.78)"/><path class="cls-1" d="M222.47,119.05s-1.61,16.18,0,24.41c0,0-3.49-4-4.77-14" transform="translate(-92.39 -58.78)"/><path class="cls-2" d="M119.29,171.39a92.42,92.42,0,0,1-2.61-29.31" transform="translate(-92.39 -58.78)"/><path class="cls-1" d="M207.89,146.54s-1.95,24.51,5.13,30.51c0,0-2.47-12.51-.89-17.32" transform="translate(-92.39 -58.78)"/><polygon class="cls-3" points="118.77 100.14 119.87 99.4 116.55 86.32 116.33 90.4 118.77 100.14"/></svg>