<svg id="Layer_1" data-name="Layer 1" xmlns="http://www.w3.org/2000/svg" viewBox="0 0 146.9 217.68"><defs><style>.cls-1,.cls-2{fill:#b0642f;}.cls-1,.cls-4,.cls-5{stroke:#4d2c14;stroke-linecap:round;stroke-linejoin:round;stroke-width:2px;}.cls-3{fill:#4d2c14;}.cls-4{fill:none;}.cls-5{fill:#7c421a;}</style></defs><title>7</title><path class="cls-1" d="M229.29,152.29h0c2.68-9.57,5.83-20.54,5.91-33.54,0-5.68-.66-15.49-.66-15.52-3.69-24.6-20.26-36.93-28.18-40.63-7.68-3.6-13-.21-13.34,0-.86-.24-1.36-.36-1.42-.37l0,0c-3.32-3.24-9.15-11.25-30.41-12.41C146.37,49,124.68,57.1,112.66,72l0,0c-1,1-18.08,18.66-14.53,59.09v0c.12.6,1.26,6.54,2.2,15.33,0,0,0,0,0,.07a196.11,196.11,0,0,1,.77,35.08,107.08,107.08,0,0,0-7.63,25.64.82.82,0,0,1,0,.1c-.18,1.8-2.66,28.73,7.68,46.12.86-4.11,1.43-7.63,1.44-7.88.54,7,2,12.92,5.12,15.83a.2.2,0,0,0,.1.09,4.28,4.28,0,0,0,.33.29l0,0a6.83,6.83,0,0,0,1.94,1.11c13.22,4.88,93.52,1,110.69.17l0,0,.45-1a1.75,1.75,0,0,0,.11-.24h0l0-.07v0s0,0,0,0h0l.08-.18v0a.2.2,0,0,0,0-.08l.09-.19.3-.67c.1-.23.21-.46.33-.71l.7-1.56c.25-.55.52-1.12.8-1.74.43-1,.75-1.66.89-2a.46.46,0,0,1,.05-.1h0a0,0,0,0,0,0,0h0c.71-1.56,1.49-3.29,2.37-5.21a2.87,2.87,0,0,0,.05-.31l.08,0C245.54,208.8,229.56,153.23,229.29,152.29ZM106.2,202s-5,25.49-3.64,43.63c-.16-.79-7.6-37.83,5.17-56.49A68.47,68.47,0,0,1,106.2,202ZM225,212.91c0-4.64.49-13-2-17-3-10.53-2.22-16.53,1-30C225.27,185.57,226.06,200.49,225,212.91Z" transform="translate(-92.05 -48.73)"/><path class="cls-2" d="M234.72,121.8s10.57,39-6.22,72.07c0,0,9.21-34.64.64-58.58" transform="translate(-92.05 -48.73)"/><path class="cls-3" d="M228.5,194.87a1.13,1.13,0,0,1-.36-.06,1,1,0,0,1-.61-1.19c.09-.35,9-34.63.67-58a1,1,0,0,1,1.88-.68c5.81,16.24,3.64,37,1.51,49.13,10.6-30,2.26-61.67,2.17-62a1,1,0,0,1,.7-1.22,1,1,0,0,1,1.23.7c.11.39,10.47,39.75-6.3,72.79A1,1,0,0,1,228.5,194.87Z" transform="translate(-92.05 -48.73)"/><path class="cls-4" d="M107.73,189.11a41.92,41.92,0,0,0,3.9-21.3" transform="translate(-92.05 -48.73)"/><path class="cls-4" d="M101.08,181.64s5.5-7,4.37-14.47" transform="translate(-92.05 -48.73)"/><path class="cls-4" d="M225,212.91s-4,19.24-11.3,32.71" transform="translate(-92.05 -48.73)"/><path class="cls-4" d="M224,165.92s-1-4.88-2-12.4" transform="translate(-92.05 -48.73)"/><path class="cls-4" d="M229.29,152.29s-5.24-14-3.76-25.77" transform="translate(-92.05 -48.73)"/><path class="cls-4" d="M219.33,200.49s4.63,18,1.71,27.17" transform="translate(-92.05 -48.73)"/><line class="cls-4" x1="100.07" y1="14.24" x2="93.81" y2="36.14"/><path class="cls-5" d="M185.49,86.14s-9.89-1.27-16.28-1.27S186.32,71.72,185.49,86.14Z" transform="translate(-92.05 -48.73)"/><path class="cls-1" d="M115.37,94.52s-15,35.57-1.94,80.15,16.52,55.78,10.85,71,.3,19.79.3,19.79-1.2-6.67,6-19.79c5.28-9.56,13.32-46.18-4-85.94Z" transform="translate(-92.05 -48.73)"/><path class="cls-2" d="M109,136.63l-3.32,14,2-41.19s2.46-15.86,6.59-15.18c-.75,3.88,0,10.12,0,10.12Z" transform="translate(-92.05 -48.73)"/><path class="cls-1" d="M137.34,113.38s-4,39-13.06,55.54c-18.08,33.05.3,52.79.3,52.79s-18-17.1-11.15-62.37,0-51.68,1.94-64.82S131.31,61.26,155.6,60.6,137.34,113.38,137.34,113.38Z" transform="translate(-92.05 -48.73)"/><path class="cls-2" d="M144.15,64.36a50.36,50.36,0,0,1,17-4.94c8.85-.68-17.7-1.19-17.7-1.19L124.32,72.61s-5.53,11.66-6,15.41S135.31,62.94,144.15,64.36Z" transform="translate(-92.05 -48.73)"/><path class="cls-1" d="M185.86,84.87s22.88-10.72,27.86,25.57S199.3,158.65,202,192.36s12.52,37,12.52,37-13.6-18.3-4.21-54.74c0,0,40.62-87.13-4-103.48C183.85,62.92,185.86,84.87,185.86,84.87Z" transform="translate(-92.05 -48.73)"/><path class="cls-1" d="M185.49,86.14s-1-4.69-5-6h0c-9.41.83-14.9,10.72-15.55,12l-.06.13c-6.94,15-24.11,35.35-51.44,39.22,0,0,2.09-2.48,5.24-6.41-10,5.08-16.34,3-16.34,3s15-1.29,26.58-39.83c11-36.57,44.07-27.53,52.76-24.3l.08,0c1.5.56,2.4,1,2.56,1.08h0C189.18,67.71,191.6,73.66,185.49,86.14Z" transform="translate(-92.05 -48.73)"/><path class="cls-1" d="M110.24,89.94s-29.81,39.51-8.7,105.22c0,0-9.65-44.57,5.65-74.39" transform="translate(-92.05 -48.73)"/><path class="cls-4" d="M118.67,125s19-9.77,28.2-22.54" transform="translate(-92.05 -48.73)"/><path class="cls-1" d="M185.49,86.14s19.08,1.54,12.72,12.94c-4.88,8.75,5.24,11.36,5.24,11.36s-5.6-2,0-8C213.6,91.63,198.45,73,185.49,86.14Z" transform="translate(-92.05 -48.73)"/><path class="cls-1" d="M213.72,75s27.58,15.64,15.57,50c-10,28.5-12.63,41.15-13.82,56.62,0,0-6.34-25.89,5.31-55.12,11-27.57-.11-33.06-.11-33.06" transform="translate(-92.05 -48.73)"/><path class="cls-4" d="M187.78,80.69s-1-6.8-5.42-9.35c-3.6-2.08-12.51-3.41-17.83,3.67a93,93,0,0,0-8.13,13.52" transform="translate(-92.05 -48.73)"/><path class="cls-4" d="M155.6,65a26.23,26.23,0,0,0-20,21.1" transform="translate(-92.05 -48.73)"/></svg>