<svg id="Layer_1" data-name="Layer 1" xmlns="http://www.w3.org/2000/svg" viewBox="0 0 146.9 217.68"><defs><style>.cls-1,.cls-2{fill:#b0642f;}.cls-1,.cls-4,.cls-7{stroke:#4d2c14;stroke-linecap:round;stroke-linejoin:round;}.cls-1,.cls-4,.cls-5,.cls-6,.cls-7{stroke-width:2px;}.cls-3{fill:#4d2c14;}.cls-4{fill:none;}.cls-5{fill:#f2cfad;stroke:#4c2c17;}.cls-5,.cls-6{stroke-miterlimit:10;}.cls-6{fill:#fde3c7;stroke:#4d2c16;}.cls-7{fill:#7c421a;}</style></defs><title>hair_7</title><path class="cls-1" d="M226.84,162.35h0c2.68-9.57,5.83-20.54,5.91-33.54,0-5.68-.66-15.49-.66-15.52-3.69-24.6-20.26-36.93-28.18-40.63-7.68-3.6-13-.21-13.34,0-.86-.24-1.36-.36-1.42-.37l0,0C185.81,69,180,61,158.72,59.84c-14.8-.81-36.49,7.32-48.51,22.2l0,0c-1,1-18.08,18.66-14.53,59.09v.05c.12.6,1.26,6.54,2.2,15.33,0,0,0,0,0,.07a196.11,196.11,0,0,1,.77,35.08A107.08,107.08,0,0,0,91,217.34a.82.82,0,0,1,0,.1c-.18,1.8-2.66,28.73,7.68,46.12.86-4.11,1.43-7.63,1.44-7.88.54,7,2,12.92,5.12,15.83a.2.2,0,0,0,.1.09,4.28,4.28,0,0,0,.33.29l0,0a6.83,6.83,0,0,0,1.94,1.11c13.22,4.88,93.52,1.05,110.69.17l0,0,.45-1a1.75,1.75,0,0,0,.11-.24h0l0-.07v0s0,0,0,0h0l.08-.18s0,0,0,0a.2.2,0,0,0,0-.08l.09-.19.3-.67c.1-.23.21-.46.33-.71l.7-1.56c.25-.55.52-1.12.8-1.74.43-1,.75-1.66.89-2a.46.46,0,0,1,0-.1h0a0,0,0,0,0,0,0h0c.71-1.56,1.49-3.29,2.37-5.21a2.87,2.87,0,0,0,0-.31l.08,0C243.09,218.86,227.11,163.29,226.84,162.35ZM103.75,212s-5,25.49-3.64,43.63c-.16-.79-7.6-37.83,5.17-56.49A68.47,68.47,0,0,1,103.75,212ZM222.57,223c0-4.64.49-13-2-17-3-10.53-2.22-16.53,1-30C222.82,195.63,223.61,210.55,222.57,223Z" transform="translate(-89.61 -58.78)"/><path class="cls-2" d="M232.28,131.85s10.56,39-6.23,72.07c0,0,9.21-34.64.64-58.58" transform="translate(-89.61 -58.78)"/><path class="cls-3" d="M226.05,204.92a1,1,0,0,1-.35-.06,1,1,0,0,1-.61-1.19c.09-.35,9-34.63.66-58a1,1,0,1,1,1.88-.67c5.81,16.23,3.64,37,1.52,49.13,10.59-30,2.26-61.68,2.16-62a1,1,0,0,1,1.93-.52c.11.39,10.48,39.75-6.3,72.79A1,1,0,0,1,226.05,204.92Z" transform="translate(-89.61 -58.78)"/><path class="cls-4" d="M105.28,199.17a41.94,41.94,0,0,0,3.9-21.31" transform="translate(-89.61 -58.78)"/><path class="cls-4" d="M98.63,191.7s5.51-7,4.37-14.48" transform="translate(-89.61 -58.78)"/><path class="cls-4" d="M222.57,223s-4,19.23-11.3,32.7" transform="translate(-89.61 -58.78)"/><path class="cls-4" d="M221.54,176s-1-4.89-2-12.41" transform="translate(-89.61 -58.78)"/><path class="cls-4" d="M226.84,162.35s-5.23-14-3.75-25.78" transform="translate(-89.61 -58.78)"/><path class="cls-4" d="M216.88,210.55s4.63,18,1.71,27.17" transform="translate(-89.61 -58.78)"/><line class="cls-4" x1="100.07" y1="14.24" x2="93.81" y2="36.14"/><path class="cls-5" d="M182.52,195.45h-36.1s4.74,15.77-2,37.22c3.25,3.25,11.69,4.78,20.05,4.78s16.8-1.53,20.05-4.78C177.78,211.22,182.52,195.45,182.52,195.45Z" transform="translate(-89.61 -58.78)"/><path class="cls-6" d="M212.72,132.19c-.43-14.16-1.45-27.68-8.63-36.1-15.46-18.15-39.58-17.47-39.58-17.47s-24.13-.68-39.59,17.47c-7.18,8.42-8.2,21.94-8.63,36.1-.13,4.39-.66,9.31,0,13.66,1.31,9.07,3.27,24.78,8.14,37.76,1.93,5.15,5.85,11.52,10.58,15C156.9,215,173.7,214,194,198.65c4.72-3.56,8.66-9.89,10.59-15,4.87-13,6.82-28.69,8.14-37.76C213.39,141.5,212.86,136.58,212.72,132.19Z" transform="translate(-89.61 -58.78)"/><path class="cls-7" d="M183,96.2a162.38,162.38,0,0,0-16.27-1.28C160.38,94.92,183.88,81.77,183,96.2Z" transform="translate(-89.61 -58.78)"/><path class="cls-1" d="M112.92,104.57S98,140.14,111,184.72s16.51,55.78,10.85,70.95.29,19.79.29,19.79-1.19-6.67,6.06-19.79c5.28-9.55,13.31-46.18-4-85.94Z" transform="translate(-89.61 -58.78)"/><path class="cls-2" d="M106.55,146.69l-3.32,14,2-41.2s2.46-15.86,6.59-15.18c-.74,3.88,0,10.12,0,10.12Z" transform="translate(-89.61 -58.78)"/><path class="cls-1" d="M134.89,123.43s-4,39-13,55.55c-18.09,33.05.29,52.79.29,52.79s-18-17.11-11.14-62.38,0-51.68,1.93-64.82,15.94-33.26,40.24-33.92S134.89,123.43,134.89,123.43Z" transform="translate(-89.61 -58.78)"/><path class="cls-2" d="M141.7,74.41a50.36,50.36,0,0,1,17-4.94c8.85-.68-17.7-1.19-17.7-1.19L121.87,82.66s-5.52,11.66-6,15.41S132.86,73,141.7,74.41Z" transform="translate(-89.61 -58.78)"/><path class="cls-1" d="M183.41,94.92s22.88-10.72,27.86,25.57-14.42,48.22-11.7,81.92,12.52,37.05,12.52,37.05-13.59-18.3-4.2-54.74c0,0,40.61-87.13-4-103.48C181.4,73,183.41,94.92,183.41,94.92Z" transform="translate(-89.61 -58.78)"/><path class="cls-1" d="M183,96.2s-1-4.69-5-6h0c-9.41.83-14.9,10.72-15.55,12l-.06.13c-6.94,15-24.11,35.35-51.44,39.22,0,0,2.09-2.48,5.24-6.41-10,5.08-16.34,3-16.34,3s15-1.29,26.58-39.83c11-36.57,44.07-27.53,52.76-24.3l.08,0c1.5.56,2.4,1,2.56,1.08h0C186.73,77.77,189.15,83.72,183,96.2Z" transform="translate(-89.61 -58.78)"/><path class="cls-1" d="M107.79,100S78,139.51,99.09,205.21c0,0-9.64-44.57,5.66-74.38" transform="translate(-89.61 -58.78)"/><path class="cls-4" d="M116.22,135.08s19-9.78,28.2-22.54" transform="translate(-89.61 -58.78)"/><path class="cls-1" d="M183,96.2s19.09,1.53,12.73,12.93c-4.89,8.75,5.23,11.36,5.23,11.36s-5.6-2,0-7.95C211.16,101.68,196,83.05,183,96.2Z" transform="translate(-89.61 -58.78)"/><path class="cls-1" d="M211.27,85.06s27.59,15.64,15.57,50c-10,28.49-12.63,41.14-13.82,56.62,0,0-6.34-25.9,5.31-55.13,11-27.56-.11-33.06-.11-33.06" transform="translate(-89.61 -58.78)"/><path class="cls-4" d="M185.33,90.74s-1-6.8-5.42-9.35c-3.6-2.08-12.51-3.41-17.82,3.67A92.54,92.54,0,0,0,154,98.58" transform="translate(-89.61 -58.78)"/><path class="cls-4" d="M153.16,75.09a26.23,26.23,0,0,0-20,21.11" transform="translate(-89.61 -58.78)"/></svg>