<svg id="Layer_1" data-name="Layer 1" xmlns="http://www.w3.org/2000/svg" viewBox="0 0 104.85 82.86"><defs><style>.cls-1{fill:#b0642f;stroke:#4d2c14;stroke-linecap:round;stroke-linejoin:round;stroke-width:2px;}</style></defs><title>8</title><path class="cls-1" d="M167,65.72h-.12c-2.88.08-58,2.37-49.93,62.55l2.59,12s-10.92-69.57,47.4-69.75c58.33.18,47.41,69.75,47.41,69.75l2.58-12C224.91,68.09,169.83,65.8,167,65.72Z" transform="translate(-114.51 -58.46)"/><path class="cls-1" d="M218.36,96.35l-51.42-.26-6.75,0c-.07-3.45-.11-7.41-.11-7.41-2.16,2-2.76,5.22-3.67,7.43l-40.9.21c7.17-34.09,48.62-36.75,51.35-36.89H167C169.74,59.6,211.19,62.26,218.36,96.35Z" transform="translate(-114.51 -58.46)"/><path class="cls-1" d="M135,96.26a30,30,0,0,1,4.21-13.82" transform="translate(-114.51 -58.46)"/><path class="cls-1" d="M186.57,95.36s1.92-9.32-2.8-16.73" transform="translate(-114.51 -58.46)"/><path class="cls-1" d="M195.51,95.36s.89-7.66-4.08-13.28" transform="translate(-114.51 -58.46)"/></svg>