<svg id="Layer_1" data-name="Layer 1" xmlns="http://www.w3.org/2000/svg" viewBox="0 0 186.85 283.64"><defs><style>.cls-1{fill:#7a421b;}.cls-1,.cls-10,.cls-2,.cls-3,.cls-4,.cls-5,.cls-6,.cls-7,.cls-8,.cls-9{stroke:#4d2c14;stroke-linecap:round;stroke-linejoin:round;stroke-width:2px;}.cls-2{fill:#b0642f;}.cls-3{fill:none;}.cls-4{fill:#cc7a42;}.cls-5{fill:#d81919;}.cls-6{fill:#f4a240;}.cls-7{fill:#ea1111;}.cls-8{fill:#368fc6;}.cls-9{fill:#ffb600;}.cls-10{fill:#ff7f00;}</style></defs><title>9</title><path class="cls-1" d="M224.78,282.26l-119.33,2-17.84-54-6.51-.51c-9.34-41.14-18.33-97.22-6.4-123.55,19-41.87,58.38-55.83,81.84-56.34s29.23,18.71,29.23,18.71C244.15,63.78,233.68,209.17,224.78,282.26Z" transform="translate(-67.98 -32.63)"/><path class="cls-2" d="M89.1,232.58s6.12,30.89,11.12,42.64l3.59-2.43s-8.07-22.63-10.21-40.21Z" transform="translate(-67.98 -32.63)"/><path class="cls-2" d="M76.32,166.92s3.43,60.2,14.65,89.66l3.39-.57s-10.89-48.76-12.59-87Z" transform="translate(-67.98 -32.63)"/><path class="cls-3" d="M205.76,158.25s1.62,60.11-9.91,85.23" transform="translate(-67.98 -32.63)"/><line class="cls-3" x1="131.53" y1="148.55" x2="129.3" y2="207.4"/><line class="cls-3" x1="124.47" y1="154.61" x2="122.73" y2="207.4"/><line class="cls-3" x1="68.43" y1="150.63" x2="74.07" y2="210.86"/><line class="cls-3" x1="75.06" y1="156.77" x2="73.75" y2="184.58"/><path class="cls-2" d="M176.23,50.73s28.3.22,44,24.79l-34.19-2Z" transform="translate(-67.98 -32.63)"/><path class="cls-2" d="M188.31,79.62s26.65,8.82,27.75,51.23c12.49-1.62,8.17-30.54-9.61-49.32C189.82,64,188.31,79.62,188.31,79.62Z" transform="translate(-67.98 -32.63)"/><path class="cls-2" d="M182.85,78.22s-33.6-6.37-52.58,6.22c0,0,3.17-17.69,26.75-21.59s25.83,10.54,25.83,10.54Z" transform="translate(-67.98 -32.63)"/><path class="cls-3" d="M175.46,77.22s-2-8.18-13.52-15.59" transform="translate(-67.98 -32.63)"/><path class="cls-3" d="M152.23,61.12c12.91,5.57,14.18,15.53,14.18,15.53" transform="translate(-67.98 -32.63)"/><path class="cls-3" d="M159.32,76.65s-4.15-13.48-15.06-13.36" transform="translate(-67.98 -32.63)"/><path class="cls-3" d="M155,77s-5.11-12.2-13.72-11.18" transform="translate(-67.98 -32.63)"/><path class="cls-3" d="M147.78,77.91s-.46-6.11-9-9.31" transform="translate(-67.98 -32.63)"/><path class="cls-3" d="M140.72,79.62a5.57,5.57,0,0,0-4.32-4.26" transform="translate(-67.98 -32.63)"/><path class="cls-2" d="M221.42,77.19S270.94,116,231.48,270.51h-4.4S262.35,134.64,219,82.07Z" transform="translate(-67.98 -32.63)"/><path class="cls-4" d="M190.22,74.81s64.21-46.13,24.09,234.48l3.76.95S271.45,46.67,185.77,68.6Z" transform="translate(-67.98 -32.63)"/><path class="cls-2" d="M190.22,74.81s69-54.23,31.48,219.7h6.92S269.72,24.9,191.33,68.89Z" transform="translate(-67.98 -32.63)"/><path class="cls-2" d="M156.56,33.65S115,31.52,86,71.34,76.66,215,81.51,235.42h3.83s-23-115.4,7-162.17C112.56,41.72,156.56,33.65,156.56,33.65Z" transform="translate(-67.98 -32.63)"/><path class="cls-4" d="M122.94,110.71s5.91-42.31,29.42-49.08h7.24S129,75.93,129.27,141.8s14.57,147.51,19.42,171h-4.16S118.4,192.47,122.94,110.71" transform="translate(-67.98 -32.63)"/><path class="cls-2" d="M107.19,71.34s-36.21,68,9.23,205H113.3s-49.21-100.67-15.48-205Z" transform="translate(-67.98 -32.63)"/><path class="cls-2" d="M184,77.46s-1.26,1.65-2.11.13c-3.47-6.17-13.63-23.07-36.32-9-28.27,17.54-36,94.65-3.65,237.63,0,0-1.33,1.94-1.9,0-7.65-25.87-59.5-215.51-.56-245.28C177.55,41.69,184,77.46,184,77.46Z" transform="translate(-67.98 -32.63)"/><path class="cls-2" d="M187.55,79.74s18.79-33.89-9.19-43.13c-41-13.53-85.79,20.66-87.83,74.22S107.91,242.09,119.3,282.9l2.89-.45s-27-127.76-23.32-166.57c4.26-45.12,27.44-67.2,47.83-71.49,36.15-7.61,48.15,6,37.26,34.09A17.09,17.09,0,0,0,187.55,79.74Z" transform="translate(-67.98 -32.63)"/><path class="cls-2" d="M186.47,74.81s5.6-26.68-19.55-28.44Z" transform="translate(-67.98 -32.63)"/><path class="cls-4" d="M188.31,77.91s10.48-40.79-26.37-40.79c-28.77,0-59,13.45-74.33,44.41-18.5,37.32-13.29,136.66,13.62,172.94l2.45-2.11s-16.76-24.93-20.47-85.44S95.05,74.15,115.42,62.18c31-18.22,75.29-23.7,68.54,15.28A5.74,5.74,0,0,0,188.31,77.91Z" transform="translate(-67.98 -32.63)"/><path class="cls-2" d="M186.78,75.8s-2.34,1.17-2.94-.24c-3.41-7.87-16.48-34.55-48.2-18.27-46.83,24-27.49,134.35-7.79,231.07a1.69,1.69,0,0,1-1.74,0s-64-196.09-3.24-237.45C170.4,18.56,186.78,75.8,186.78,75.8Z" transform="translate(-67.98 -32.63)"/><path class="cls-2" d="M216.48,109.71s-2.63,105.25-17,191.48h4.55s20.41-143.69,16.17-181.6Z" transform="translate(-67.98 -32.63)"/><path class="cls-2" d="M188.31,77.91s34.43-7.75,30.71,74.63-14.3,162.73-14.3,162.73h3.91S256.37,46.8,190.22,74.81Z" transform="translate(-67.98 -32.63)"/><path class="cls-4" d="M194.17,64.63s97.57-28.2,40.33,218.27l-4.34-1.22S287,61.12,191.55,73.25Z" transform="translate(-67.98 -32.63)"/><polyline class="cls-3" points="38.67 106.86 29.03 108.16 38.22 116.07 30.75 120.67 38.67 128.07 31.23 134.29 38.67 134.29 31.71 138.21 41.13 144.6 33.4 150.41 41.78 150.41 34.6 154.83 41.78 156.15 34.77 159"/><line class="cls-3" x1="13.61" y1="168.97" x2="18.02" y2="168.24"/><line class="cls-3" x1="14.7" y1="174.41" x2="19.93" y2="172.82"/><line class="cls-3" x1="16.69" y1="180.48" x2="21.22" y2="179.12"/><line class="cls-3" x1="17.32" y1="183.39" x2="21.89" y2="182.06"/><line class="cls-3" x1="17.36" y1="185.48" x2="22.4" y2="184.58"/><polyline class="cls-3" points="19.43 192.58 24.31 191.47 20.88 196.96 25.45 195.35"/><polyline class="cls-3" points="22.35 200.98 27.29 200.98 24.82 205.86 28.7 205.86 26.38 209.4"/><polyline class="cls-3" points="53.54 193.26 58.23 193.26 54.33 199.95 60.22 202.79 55.81 207.4 61.33 209.78 57.79 215.9 62.64 217.53"/><line class="cls-3" x1="59.35" y1="223.95" x2="63.59" y2="222.94"/><line class="cls-3" x1="60.13" y1="227.39" x2="63.59" y2="225.77"/><line class="cls-3" x1="144.96" y1="206.7" x2="151.04" y2="207.4"/><line class="cls-3" x1="144.2" y1="212.21" x2="150.16" y2="212.94"/><line class="cls-3" x1="144.2" y1="216.07" x2="150.16" y2="217.53"/><polyline class="cls-3" points="143.74 223.44 149.36 223.95 143.06 226.58 148 228.16 142.59 231.21 148 233.43 142.16 235.49 147.18 237.88 141.75 239.41 146.82 242.01 141.75 242.01"/><polyline class="cls-3" points="160.76 122.19 164.88 122.19 159.52 129.09 163.76 132.18 159.52 137.79 163.76 141.22 159.52 142.04"/><polyline class="cls-3" points="166 60.38 171.98 55.36 168.99 66.06 177.17 67.3 173.41 78.08 181.34 83.26 176.49 91.93 183.35 97.11 178.04 104.19 183.35 104.19"/><line class="cls-3" x1="163.76" y1="56.94" x2="169.92" y2="51.81"/><line class="cls-3" x1="178.77" y1="106.86" x2="184.13" y2="106.86"/><path class="cls-5" d="M117.34,260.65s3.11-2,5.92-1.44l1.53,6.93s-3.19,1.81-5.71,1C119.08,267.17,118.45,264.74,117.34,260.65Z" transform="translate(-67.98 -32.63)"/><path class="cls-6" d="M77.94,188.78s5.11-1.87,8.42-.89l1,7.79a19.57,19.57,0,0,1-8.41.69A47.18,47.18,0,0,1,77.94,188.78Z" transform="translate(-67.98 -32.63)"/><path class="cls-6" d="M253.8,150.81s-5.26,1.43-8.47.17l-.31-7.84a19.43,19.43,0,0,1,8.44,0A47.69,47.69,0,0,1,253.8,150.81Z" transform="translate(-67.98 -32.63)"/><path class="cls-7" d="M227.41,150a11.08,11.08,0,0,1,6.57,0v2.31h-6.57Z" transform="translate(-67.98 -32.63)"/><path class="cls-7" d="M95.69,133.82a26.71,26.71,0,0,1,11.69-.92l.24,3-11.69.92Z" transform="translate(-67.98 -32.63)"/><path class="cls-6" d="M91.93,70.6a26.84,26.84,0,0,1,10,6.07l-1.56,2.58-10-6.07Z" transform="translate(-67.98 -32.63)"/><rect class="cls-7" x="157.87" y="144.6" width="7.74" height="2.7"/><circle class="cls-8" cx="161.48" cy="155.09" r="4.17"/><circle class="cls-9" cx="55.96" cy="242.01" r="3.09"/><circle class="cls-10" cx="167.03" cy="238.39" r="3.61"/><path class="cls-10" d="M113,201c.62,4.58.5,8.38-3.51,8.92-3.75.51-5.14-3.07-5.77-7.65s-.62-8.36,3.5-8.92C111.6,192.72,112.4,196.39,113,201Z" transform="translate(-67.98 -32.63)"/></svg>