<svg id="Layer_1" data-name="Layer 1" xmlns="http://www.w3.org/2000/svg" viewBox="0 0 186.85 283.64"><defs><style>.cls-1{fill:#7a421b;}.cls-1,.cls-10,.cls-11,.cls-12,.cls-2,.cls-3,.cls-6,.cls-7,.cls-8,.cls-9{stroke:#4d2c14;stroke-linecap:round;stroke-linejoin:round;}.cls-1,.cls-10,.cls-11,.cls-12,.cls-2,.cls-3,.cls-4,.cls-5,.cls-6,.cls-7,.cls-8,.cls-9{stroke-width:2px;}.cls-2{fill:#b0642f;}.cls-3{fill:none;}.cls-4{fill:#f2cfad;stroke:#4c2c17;}.cls-4,.cls-5{stroke-miterlimit:10;}.cls-5{fill:#fde3c7;stroke:#4d2c16;}.cls-6{fill:#cc7a42;}.cls-7{fill:#d81919;}.cls-8{fill:#f4a240;}.cls-9{fill:#ea1111;}.cls-10{fill:#368fc6;}.cls-11{fill:#ffb600;}.cls-12{fill:#ff7f00;}</style></defs><title>hair_9</title><path class="cls-1" d="M222.33,292.32l-119.33,2-17.84-54-6.51-.51c-9.34-41.14-18.33-97.22-6.4-123.55,19-41.87,58.38-55.83,81.84-56.34s29.23,18.71,29.23,18.71C241.7,73.84,231.23,219.23,222.33,292.32Z" transform="translate(-65.53 -42.68)"/><path class="cls-2" d="M86.65,242.63s6.12,30.89,11.12,42.64l3.59-2.43s-8.06-22.62-10.21-40.21Z" transform="translate(-65.53 -42.68)"/><path class="cls-2" d="M73.87,177s3.44,60.2,14.66,89.66l3.38-.57s-10.89-48.75-12.59-87Z" transform="translate(-65.53 -42.68)"/><path class="cls-3" d="M203.31,168.31s1.63,60.1-9.91,85.23" transform="translate(-65.53 -42.68)"/><line class="cls-3" x1="131.53" y1="148.55" x2="129.3" y2="207.4"/><line class="cls-3" x1="124.47" y1="154.61" x2="122.73" y2="207.4"/><line class="cls-3" x1="68.43" y1="150.63" x2="74.07" y2="210.86"/><line class="cls-3" x1="75.06" y1="156.77" x2="73.75" y2="184.58"/><path class="cls-4" d="M182.52,195.45h-36.1s4.74,15.77-2,37.22c3.25,3.25,11.69,4.78,20.05,4.78s16.8-1.53,20.05-4.78C177.78,211.22,182.52,195.45,182.52,195.45Z" transform="translate(-65.53 -42.68)"/><path class="cls-5" d="M212.72,132.19c-.43-14.16-1.45-27.68-8.63-36.1-15.46-18.15-39.58-17.47-39.58-17.47s-24.13-.68-39.59,17.47c-7.18,8.42-8.2,21.94-8.63,36.1-.13,4.39-.66,9.31,0,13.66,1.31,9.07,3.27,24.78,8.14,37.76,1.93,5.15,5.85,11.52,10.58,15C156.9,215,173.7,214,194,198.65c4.72-3.56,8.66-9.89,10.59-15,4.87-13,6.82-28.69,8.14-37.76C213.39,141.5,212.86,136.58,212.72,132.19Z" transform="translate(-65.53 -42.68)"/><path class="cls-2" d="M173.78,60.78s28.3.22,44,24.79l-34.18-2Z" transform="translate(-65.53 -42.68)"/><path class="cls-2" d="M185.86,89.67s26.65,8.82,27.76,51.24c12.48-1.63,8.17-30.54-9.62-49.33C187.37,74,185.86,89.67,185.86,89.67Z" transform="translate(-65.53 -42.68)"/><path class="cls-2" d="M180.4,88.28s-33.59-6.38-52.57,6.21c0,0,3.17-17.69,26.74-21.59S180.4,83.44,180.4,83.44Z" transform="translate(-65.53 -42.68)"/><path class="cls-3" d="M173,87.28s-2-8.19-13.52-15.6" transform="translate(-65.53 -42.68)"/><path class="cls-3" d="M149.79,71.17C162.7,76.74,164,86.7,164,86.7" transform="translate(-65.53 -42.68)"/><path class="cls-3" d="M156.87,86.7s-4.15-13.48-15.06-13.36" transform="translate(-65.53 -42.68)"/><path class="cls-3" d="M152.53,87s-5.1-12.2-13.72-11.18" transform="translate(-65.53 -42.68)"/><path class="cls-3" d="M145.33,88s-.46-6.11-9-9.31" transform="translate(-65.53 -42.68)"/><path class="cls-3" d="M138.27,89.67A5.57,5.57,0,0,0,134,85.41" transform="translate(-65.53 -42.68)"/><path class="cls-2" d="M219,87.24S268.5,126,229,280.56h-4.4s35.27-135.87-8.07-188.44Z" transform="translate(-65.53 -42.68)"/><path class="cls-6" d="M187.77,84.87S252,38.74,211.87,319.34l3.75,1S269,56.72,183.32,78.65Z" transform="translate(-65.53 -42.68)"/><path class="cls-2" d="M187.77,84.87s69-54.24,31.48,219.69h6.92S267.27,35,188.89,78.94Z" transform="translate(-65.53 -42.68)"/><path class="cls-2" d="M154.11,43.7s-41.55-2.13-70.55,37.69S74.21,225,79.06,245.47h3.83s-23-115.4,7-162.16C110.11,51.77,154.11,43.7,154.11,43.7Z" transform="translate(-65.53 -42.68)"/><path class="cls-6" d="M120.5,120.76s5.9-42.31,29.41-49.08h7.24S126.57,86,126.83,151.85s14.56,147.51,19.41,171h-4.15S116,202.52,120.5,120.76" transform="translate(-65.53 -42.68)"/><path class="cls-2" d="M104.75,81.39s-36.22,68,9.23,205h-3.13s-49.21-100.67-15.48-205Z" transform="translate(-65.53 -42.68)"/><path class="cls-2" d="M181.51,87.51s-1.25,1.65-2.11.13c-3.46-6.17-13.62-23.07-36.31-9-28.28,17.55-36,94.65-3.65,237.63,0,0-1.34,1.94-1.91,0C129.88,290.42,78,100.77,137,71,175.1,51.74,181.51,87.51,181.51,87.51Z" transform="translate(-65.53 -42.68)"/><path class="cls-2" d="M185.1,89.79s18.79-33.89-9.19-43.13c-41-13.53-85.78,20.66-87.83,74.22S105.46,252.14,116.85,293l2.89-.45s-27-127.76-23.31-166.56c4.26-45.13,27.44-67.2,47.82-71.5,36.15-7.61,48.16,6,37.26,34.1A17.8,17.8,0,0,0,185.1,89.79Z" transform="translate(-65.53 -42.68)"/><path class="cls-2" d="M184,84.87s5.6-26.69-19.55-28.45Z" transform="translate(-65.53 -42.68)"/><path class="cls-6" d="M185.86,88s10.48-40.79-26.37-40.79c-28.76,0-59,13.45-74.33,44.41C66.66,128.9,71.87,228.25,98.79,264.52l2.44-2.11S84.47,237.48,80.77,177,92.6,84.2,113,72.23C144,54,188.26,48.54,181.51,87.51A5.74,5.74,0,0,0,185.86,88Z" transform="translate(-65.53 -42.68)"/><path class="cls-2" d="M184.34,85.85s-2.34,1.17-3-.24c-3.41-7.87-16.47-34.54-48.2-18.27-46.82,24-27.48,134.35-7.79,231.07a1.67,1.67,0,0,1-1.74,0S59.66,102.32,120.43,61C168,28.61,184.34,85.85,184.34,85.85Z" transform="translate(-65.53 -42.68)"/><path class="cls-2" d="M214,119.76s-2.64,105.25-17,191.48h4.56s20.4-143.69,16.17-181.6Z" transform="translate(-65.53 -42.68)"/><path class="cls-2" d="M185.86,88s34.43-7.75,30.71,74.63-14.29,162.73-14.29,162.73h3.9S253.92,56.86,187.77,84.87Z" transform="translate(-65.53 -42.68)"/><path class="cls-6" d="M191.72,74.69S289.3,46.48,232.05,293l-4.34-1.22S284.6,71.17,189.1,83.31Z" transform="translate(-65.53 -42.68)"/><polyline class="cls-3" points="38.67 106.86 29.03 108.16 38.22 116.07 30.75 120.67 38.67 128.07 31.23 134.29 38.67 134.29 31.71 138.21 41.13 144.6 33.4 150.41 41.78 150.41 34.6 154.83 41.78 156.15 34.77 159"/><line class="cls-3" x1="13.61" y1="168.97" x2="18.02" y2="168.24"/><line class="cls-3" x1="14.7" y1="174.41" x2="19.93" y2="172.82"/><line class="cls-3" x1="16.69" y1="180.48" x2="21.22" y2="179.12"/><line class="cls-3" x1="17.32" y1="183.39" x2="21.89" y2="182.06"/><line class="cls-3" x1="17.36" y1="185.48" x2="22.4" y2="184.58"/><polyline class="cls-3" points="19.43 192.58 24.31 191.47 20.88 196.96 25.45 195.35"/><polyline class="cls-3" points="22.35 200.98 27.29 200.98 24.82 205.86 28.7 205.86 26.38 209.4"/><polyline class="cls-3" points="53.54 193.26 58.23 193.26 54.33 199.95 60.22 202.79 55.81 207.4 61.33 209.78 57.79 215.9 62.64 217.53"/><line class="cls-3" x1="59.35" y1="223.95" x2="63.59" y2="222.94"/><line class="cls-3" x1="60.13" y1="227.39" x2="63.59" y2="225.77"/><line class="cls-3" x1="144.96" y1="206.7" x2="151.04" y2="207.4"/><line class="cls-3" x1="144.2" y1="212.21" x2="150.16" y2="212.94"/><line class="cls-3" x1="144.2" y1="216.07" x2="150.16" y2="217.53"/><polyline class="cls-3" points="143.74 223.44 149.36 223.95 143.06 226.58 148 228.16 142.59 231.21 148 233.43 142.16 235.49 147.18 237.88 141.75 239.41 146.82 242.01 141.75 242.01"/><polyline class="cls-3" points="160.76 122.19 164.88 122.19 159.52 129.09 163.76 132.18 159.52 137.79 163.76 141.22 159.52 142.04"/><polyline class="cls-3" points="166 60.38 171.98 55.36 168.99 66.06 177.17 67.3 173.41 78.08 181.34 83.26 176.49 91.93 183.35 97.11 178.04 104.19 183.35 104.19"/><line class="cls-3" x1="163.76" y1="56.94" x2="169.92" y2="51.81"/><line class="cls-3" x1="178.77" y1="106.86" x2="184.13" y2="106.86"/><path class="cls-7" d="M114.89,270.71s3.11-2,5.92-1.45l1.53,6.94s-3.19,1.8-5.71,1C116.63,277.22,116,274.79,114.89,270.71Z" transform="translate(-65.53 -42.68)"/><path class="cls-8" d="M75.49,198.83s5.11-1.87,8.42-.89l1,7.79a19.51,19.51,0,0,1-8.4.69A46.46,46.46,0,0,1,75.49,198.83Z" transform="translate(-65.53 -42.68)"/><path class="cls-8" d="M251.35,160.87s-5.25,1.42-8.47.16l-.31-7.84a19.63,19.63,0,0,1,8.44,0A46.4,46.4,0,0,1,251.35,160.87Z" transform="translate(-65.53 -42.68)"/><path class="cls-9" d="M225,160a11.08,11.08,0,0,1,6.57,0v2.3H225Z" transform="translate(-65.53 -42.68)"/><path class="cls-9" d="M93.25,143.87a26.68,26.68,0,0,1,11.68-.92l.24,3-11.69.92Z" transform="translate(-65.53 -42.68)"/><path class="cls-8" d="M89.48,80.66a26.67,26.67,0,0,1,10,6.06L98,89.3l-10-6.07Z" transform="translate(-65.53 -42.68)"/><rect class="cls-9" x="157.87" y="144.6" width="7.74" height="2.7"/><circle class="cls-10" cx="161.48" cy="155.09" r="4.17"/><circle class="cls-11" cx="55.96" cy="242.01" r="3.09"/><circle class="cls-12" cx="167.03" cy="238.39" r="3.61"/><path class="cls-12" d="M110.58,211c.62,4.58.5,8.38-3.5,8.92-3.76.52-5.15-3.07-5.78-7.65s-.62-8.36,3.51-8.92C109.15,202.77,110,206.44,110.58,211Z" transform="translate(-65.53 -42.68)"/></svg>