<svg id="Layer_2" data-name="Layer 2" xmlns="http://www.w3.org/2000/svg" viewBox="0 0 90.02 44.92"><defs><style>.cls-1{fill:#4d2c14;}</style></defs><title>2</title><path class="cls-1" d="M310.53,207.85a1,1,0,0,0,0-2,1,1,0,0,0,0,2Z" transform="translate(-236.03 -181.09)"/><path class="cls-1" d="M311,204.79a1,1,0,0,0,0-2,1,1,0,0,0,0,2Z" transform="translate(-236.03 -181.09)"/><path class="cls-1" d="M317.55,202a1,1,0,0,0,0-2,1,1,0,0,0,0,2Z" transform="translate(-236.03 -181.09)"/><path class="cls-1" d="M313.47,205.83a1,1,0,0,0,0-2,1,1,0,0,0,0,2Z" transform="translate(-236.03 -181.09)"/><path class="cls-1" d="M315.51,208.45a1,1,0,0,0,0-2,1,1,0,0,0,0,2Z" transform="translate(-236.03 -181.09)"/><path class="cls-1" d="M313.7,200.09V200a1,1,0,0,0-2,0v.13a1,1,0,0,0,2,0Z" transform="translate(-236.03 -181.09)"/><path class="cls-1" d="M316.15,198.79a1,1,0,0,0,0-2,1,1,0,0,0,0,2Z" transform="translate(-236.03 -181.09)"/><path class="cls-1" d="M319.34,196.62a1,1,0,0,0,0-2,1,1,0,0,0,0,2Z" transform="translate(-236.03 -181.09)"/><path class="cls-1" d="M316.53,195.6a1,1,0,0,0,0-2,1,1,0,0,0,0,2Z" transform="translate(-236.03 -181.09)"/><path class="cls-1" d="M306.83,209.51a1,1,0,0,0,0-2,1,1,0,0,0,0,2Z" transform="translate(-236.03 -181.09)"/><path class="cls-1" d="M308,205.43a1,1,0,0,0,0-2,1,1,0,0,0,0,2Z" transform="translate(-236.03 -181.09)"/><path class="cls-1" d="M318.7,189.09a1,1,0,0,0,0-2,1,1,0,0,0,0,2Z" transform="translate(-236.03 -181.09)"/><path class="cls-1" d="M322.15,185.64a1,1,0,0,0,0-2,1,1,0,0,0,0,2Z" transform="translate(-236.03 -181.09)"/><path class="cls-1" d="M325.09,183.09a1,1,0,0,0,0-2,1,1,0,0,0,0,2Z" transform="translate(-236.03 -181.09)"/><path class="cls-1" d="M321.77,188.57a1,1,0,0,0,0-2,1,1,0,0,0,0,2Z" transform="translate(-236.03 -181.09)"/><path class="cls-1" d="M320.62,191.64a1,1,0,0,0,0-2,1,1,0,0,0,0,2Z" transform="translate(-236.03 -181.09)"/><path class="cls-1" d="M318.06,192.91a1,1,0,0,0,0-2,1,1,0,0,0,0,2Z" transform="translate(-236.03 -181.09)"/><path class="cls-1" d="M321.64,195.09a1,1,0,0,0,0-2,1,1,0,0,0,0,2Z" transform="translate(-236.03 -181.09)"/><path class="cls-1" d="M323.81,190.62a1,1,0,0,0,0-2,1,1,0,0,0,0,2Z" transform="translate(-236.03 -181.09)"/><path class="cls-1" d="M293.47,216.19a1,1,0,0,0,0-2,1,1,0,0,0,0,2Z" transform="translate(-236.03 -181.09)"/><path class="cls-1" d="M295.77,217.21a1,1,0,0,0,0-2,1,1,0,0,0,0,2Z" transform="translate(-236.03 -181.09)"/><path class="cls-1" d="M297.13,214.83a1,1,0,0,0,0-2,1,1,0,0,0,0,2Z" transform="translate(-236.03 -181.09)"/><path class="cls-1" d="M298.91,212.28a1,1,0,0,0,0-2,1,1,0,0,0,0,2Z" transform="translate(-236.03 -181.09)"/><path class="cls-1" d="M302.15,213.21a1,1,0,0,0,0-2,1,1,0,0,0,0,2Z" transform="translate(-236.03 -181.09)"/><path class="cls-1" d="M303.09,210.06a1,1,0,0,0,0-2,1,1,0,0,0,0,2Z" transform="translate(-236.03 -181.09)"/><path class="cls-1" d="M305.13,212.28a1,1,0,0,0,0-2,1,1,0,0,0,0,2Z" transform="translate(-236.03 -181.09)"/><path class="cls-1" d="M309.55,210.57a1,1,0,0,0,0-2,1,1,0,0,0,0,2Z" transform="translate(-236.03 -181.09)"/><path class="cls-1" d="M308,213.38a1,1,0,0,0,0-2,1,1,0,0,0,0,2Z" transform="translate(-236.03 -181.09)"/><path class="cls-1" d="M305,215.34a1,1,0,0,0,0-2,1,1,0,0,0,0,2Z" transform="translate(-236.03 -181.09)"/><path class="cls-1" d="M302,217a1,1,0,0,0,0-2,1,1,0,0,0,0,2Z" transform="translate(-236.03 -181.09)"/><path class="cls-1" d="M299.94,214.74a1,1,0,0,0,0-2,1,1,0,0,0,0,2Z" transform="translate(-236.03 -181.09)"/><path class="cls-1" d="M299,217.55a1,1,0,0,0,0-2,1,1,0,0,0,0,2Z" transform="translate(-236.03 -181.09)"/><path class="cls-1" d="M296.79,219.77a1,1,0,0,0,0-2,1,1,0,0,0,0,2Z" transform="translate(-236.03 -181.09)"/><path class="cls-1" d="M305.89,207.6a1,1,0,0,0,0-2,1,1,0,0,0,0,2Z" transform="translate(-236.03 -181.09)"/><path class="cls-1" d="M282.32,218.32a1,1,0,0,0,0-2,1,1,0,0,0,0,2Z" transform="translate(-236.03 -181.09)"/><path class="cls-1" d="M285,216.15a1,1,0,0,0,0-2,1,1,0,0,0,0,2Z" transform="translate(-236.03 -181.09)"/><path class="cls-1" d="M285,219.6a1,1,0,0,0,0-2,1,1,0,0,0,0,2Z" transform="translate(-236.03 -181.09)"/><path class="cls-1" d="M287.17,217a1,1,0,0,0,0-2,1,1,0,0,0,0,2Z" transform="translate(-236.03 -181.09)"/><path class="cls-1" d="M290.49,217.17a1,1,0,0,0,0-2,1,1,0,0,0,0,2Z" transform="translate(-236.03 -181.09)"/><path class="cls-1" d="M289.09,219.47a1,1,0,0,0,0-2,1,1,0,0,0,0,2Z" transform="translate(-236.03 -181.09)"/><path class="cls-1" d="M287.17,221.13a1,1,0,0,0,0-2,1,1,0,0,0,0,2Z" transform="translate(-236.03 -181.09)"/><path class="cls-1" d="M292.91,218.7a1,1,0,0,0,0-2,1,1,0,0,0,0,2Z" transform="translate(-236.03 -181.09)"/><path class="cls-1" d="M290.11,221.38a1,1,0,0,0,0-2,1,1,0,0,0,0,2Z" transform="translate(-236.03 -181.09)"/><path class="cls-1" d="M294.83,220.62a1,1,0,0,0,0-2,1,1,0,0,0,0,2Z" transform="translate(-236.03 -181.09)"/><path class="cls-1" d="M284.11,222.79a1,1,0,0,0,0-2,1,1,0,0,0,0,2Z" transform="translate(-236.03 -181.09)"/><path class="cls-1" d="M309.77,202.74a1,1,0,0,0,0-2,1,1,0,0,0,0,2Z" transform="translate(-236.03 -181.09)"/><path class="cls-1" d="M314.23,197.64a1,1,0,0,0,0-2,1,1,0,0,0,0,2Z" transform="translate(-236.03 -181.09)"/><path class="cls-1" d="M282.7,215.13a1,1,0,0,0,0-2,1,1,0,0,0,0,2Z" transform="translate(-236.03 -181.09)"/><path class="cls-1" d="M282.06,221.13a1,1,0,0,0,0-2,1,1,0,0,0,0,2Z" transform="translate(-236.03 -181.09)"/><path class="cls-1" d="M281.94,224.7a1,1,0,0,0,0-2,1,1,0,0,0,0,2Z" transform="translate(-236.03 -181.09)"/><path class="cls-1" d="M286.91,224.19a1,1,0,0,0,0-2,1,1,0,0,0,0,2Z" transform="translate(-236.03 -181.09)"/><path class="cls-1" d="M291.51,223.55a1,1,0,0,0,0-2,1,1,0,0,0,0,2Z" transform="translate(-236.03 -181.09)"/><path class="cls-1" d="M294.19,222.53a1,1,0,0,0,0-2,1,1,0,0,0,0,2Z" transform="translate(-236.03 -181.09)"/><path class="cls-1" d="M299.94,220.36a1,1,0,0,0,0-2,1,1,0,0,0,0,2Z" transform="translate(-236.03 -181.09)"/><path class="cls-1" d="M304.15,218.45a1,1,0,0,0,0-2,1,1,0,0,0,0,2Z" transform="translate(-236.03 -181.09)"/><path class="cls-1" d="M307.47,215.89a1,1,0,0,0,0-2,1,1,0,0,0,0,2Z" transform="translate(-236.03 -181.09)"/><path class="cls-1" d="M312.57,211.3a1,1,0,0,0,0-2,1,1,0,0,0,0,2Z" transform="translate(-236.03 -181.09)"/><path class="cls-1" d="M297.38,222.28a1,1,0,0,0,0-2,1,1,0,0,0,0,2Z" transform="translate(-236.03 -181.09)"/><path class="cls-1" d="M310.28,213.21a1,1,0,0,0,0-2,1,1,0,0,0,0,2Z" transform="translate(-236.03 -181.09)"/><path class="cls-1" d="M316.66,205.17a1,1,0,0,0,0-2,1,1,0,0,0,0,2Z" transform="translate(-236.03 -181.09)"/><path class="cls-1" d="M314.74,202.72a1,1,0,0,0,0-2,1,1,0,0,0,0,2Z" transform="translate(-236.03 -181.09)"/><path class="cls-1" d="M319.34,200.19a1,1,0,0,0,0-2,1,1,0,0,0,0,2Z" transform="translate(-236.03 -181.09)"/><path class="cls-1" d="M281.94,188.06a1,1,0,0,0,0-2,1,1,0,0,0,0,2Z" transform="translate(-236.03 -181.09)"/><path class="cls-1" d="M282.06,190.36a1,1,0,0,0,0-2,1,1,0,0,0,0,2Z" transform="translate(-236.03 -181.09)"/><path class="cls-1" d="M284.49,191a1,1,0,0,0,0-2,1,1,0,0,0,0,2Z" transform="translate(-236.03 -181.09)"/><path class="cls-1" d="M284.49,188.7a1,1,0,0,0,0-2,1,1,0,0,0,0,2Z" transform="translate(-236.03 -181.09)"/><path class="cls-1" d="M287.3,187.43a1,1,0,0,0,0-2,1,1,0,0,0,0,2Z" transform="translate(-236.03 -181.09)"/><path class="cls-1" d="M287.43,190.74a1,1,0,0,0,0-2,1,1,0,0,0,0,2Z" transform="translate(-236.03 -181.09)"/><path class="cls-1" d="M290,189a1,1,0,0,0,0-2,1,1,0,0,0,0,2Z" transform="translate(-236.03 -181.09)"/><path class="cls-1" d="M292.53,189.72a1,1,0,0,0,0-2,1,1,0,0,0,0,2Z" transform="translate(-236.03 -181.09)"/><path class="cls-1" d="M296,190.36a1,1,0,0,0,0-2,1,1,0,0,0,0,2Z" transform="translate(-236.03 -181.09)"/><path class="cls-1" d="M300.7,191.26a1,1,0,0,0,0-2,1,1,0,0,0,0,2Z" transform="translate(-236.03 -181.09)"/><path class="cls-1" d="M305.6,191.26a1,1,0,0,0,0-2,1,1,0,0,0,0,2Z" transform="translate(-236.03 -181.09)"/><path class="cls-1" d="M308.11,193.94a1,1,0,0,0,0-2,1,1,0,0,0,0,2Z" transform="translate(-236.03 -181.09)"/><path class="cls-1" d="M308.51,195.49v.13a1,1,0,0,0,2,0v-.13a1,1,0,0,0-2,0Z" transform="translate(-236.03 -181.09)"/><path class="cls-1" d="M312.45,197.26a1,1,0,0,0,0-2,1,1,0,0,0,0,2Z" transform="translate(-236.03 -181.09)"/><path class="cls-1" d="M310.4,194.45a1,1,0,0,0,0-2,1,1,0,0,0,0,2Z" transform="translate(-236.03 -181.09)"/><path class="cls-1" d="M308.87,191.51a1,1,0,0,0,0-2,1,1,0,0,0,0,2Z" transform="translate(-236.03 -181.09)"/><path class="cls-1" d="M302.87,192.91a1,1,0,0,0,0-2,1,1,0,0,0,0,2Z" transform="translate(-236.03 -181.09)"/><path class="cls-1" d="M305.17,194.06a1,1,0,0,0,0-2,1,1,0,0,0,0,2Z" transform="translate(-236.03 -181.09)"/><path class="cls-1" d="M298.28,192.28a1,1,0,0,0,0-2,1,1,0,0,0,0,2Z" transform="translate(-236.03 -181.09)"/><path class="cls-1" d="M294.32,192.66a1,1,0,0,0,0-2,1,1,0,0,0,0,2Z" transform="translate(-236.03 -181.09)"/><path class="cls-1" d="M290.11,191.38a1,1,0,0,0,0-2,1,1,0,0,0,0,2Z" transform="translate(-236.03 -181.09)"/><path class="cls-1" d="M250.21,207.85a1,1,0,0,0,0-2,1,1,0,0,0,0,2Z" transform="translate(-236.03 -181.09)"/><path class="cls-1" d="M249.7,204.79a1,1,0,0,0,0-2,1,1,0,0,0,0,2Z" transform="translate(-236.03 -181.09)"/><path class="cls-1" d="M243.18,202a1,1,0,0,0,0-2,1,1,0,0,0,0,2Z" transform="translate(-236.03 -181.09)"/><path class="cls-1" d="M246.25,204.79a1,1,0,0,0,0-2,1,1,0,0,0,0,2Z" transform="translate(-236.03 -181.09)"/><path class="cls-1" d="M247.14,207.47a1,1,0,0,0,0-2,1,1,0,0,0,0,2Z" transform="translate(-236.03 -181.09)"/><path class="cls-1" d="M249,200.09V200a1,1,0,0,0-2,0v.13a1,1,0,0,0,2,0Z" transform="translate(-236.03 -181.09)"/><path class="cls-1" d="M244.59,198.79a1,1,0,0,0,0-2,1,1,0,0,0,0,2Z" transform="translate(-236.03 -181.09)"/><path class="cls-1" d="M241.4,196.62a1,1,0,0,0,0-2,1,1,0,0,0,0,2Z" transform="translate(-236.03 -181.09)"/><path class="cls-1" d="M244.21,195.6a1,1,0,0,0,0-2,1,1,0,0,0,0,2Z" transform="translate(-236.03 -181.09)"/><path class="cls-1" d="M253.91,209.51a1,1,0,0,0,0-2,1,1,0,0,0,0,2Z" transform="translate(-236.03 -181.09)"/><path class="cls-1" d="M252.76,205.43a1,1,0,0,0,0-2,1,1,0,0,0,0,2Z" transform="translate(-236.03 -181.09)"/><path class="cls-1" d="M242,189.09a1,1,0,0,0,0-2,1,1,0,0,0,0,2Z" transform="translate(-236.03 -181.09)"/><path class="cls-1" d="M238.59,185.64a1,1,0,0,0,0-2,1,1,0,0,0,0,2Z" transform="translate(-236.03 -181.09)"/><path class="cls-1" d="M239,188.57a1,1,0,0,0,0-2,1,1,0,0,0,0,2Z" transform="translate(-236.03 -181.09)"/><path class="cls-1" d="M240.12,191.64a1,1,0,0,0,0-2,1,1,0,0,0,0,2Z" transform="translate(-236.03 -181.09)"/><path class="cls-1" d="M242.67,192.91a1,1,0,0,0,0-2,1,1,0,0,0,0,2Z" transform="translate(-236.03 -181.09)"/><path class="cls-1" d="M239.1,195.09a1,1,0,0,0,0-2,1,1,0,0,0,0,2Z" transform="translate(-236.03 -181.09)"/><path class="cls-1" d="M267.27,216.19a1,1,0,0,0,0-2,1,1,0,0,0,0,2Z" transform="translate(-236.03 -181.09)"/><path class="cls-1" d="M265,217.21a1,1,0,0,0,0-2,1,1,0,0,0,0,2Z" transform="translate(-236.03 -181.09)"/><path class="cls-1" d="M263.61,214.83a1,1,0,0,0,0-2,1,1,0,0,0,0,2Z" transform="translate(-236.03 -181.09)"/><path class="cls-1" d="M261.82,212.28a1,1,0,0,0,0-2,1,1,0,0,0,0,2Z" transform="translate(-236.03 -181.09)"/><path class="cls-1" d="M257.59,215.21a1,1,0,0,0,0-2,1,1,0,0,0,0,2Z" transform="translate(-236.03 -181.09)"/><path class="cls-1" d="M257.65,210.06a1,1,0,0,0,0-2,1,1,0,0,0,0,2Z" transform="translate(-236.03 -181.09)"/><path class="cls-1" d="M255.61,212.28a1,1,0,0,0,0-2,1,1,0,0,0,0,2Z" transform="translate(-236.03 -181.09)"/><path class="cls-1" d="M251.18,210.57a1,1,0,0,0,0-2,1,1,0,0,0,0,2Z" transform="translate(-236.03 -181.09)"/><path class="cls-1" d="M252.72,213.38a1,1,0,0,0,0-2,1,1,0,0,0,0,2Z" transform="translate(-236.03 -181.09)"/><path class="cls-1" d="M254.7,216.34a1,1,0,0,0,0-2,1,1,0,0,0,0,2Z" transform="translate(-236.03 -181.09)"/><path class="cls-1" d="M258.76,218a1,1,0,0,0,0-2,1,1,0,0,0,0,2Z" transform="translate(-236.03 -181.09)"/><path class="cls-1" d="M260.8,214.74a1,1,0,0,0,0-2,1,1,0,0,0,0,2Z" transform="translate(-236.03 -181.09)"/><path class="cls-1" d="M261.74,217.55a1,1,0,0,0,0-2,1,1,0,0,0,0,2Z" transform="translate(-236.03 -181.09)"/><path class="cls-1" d="M265.58,220.32a1,1,0,0,0,0-2,1,1,0,0,0,0,2Z" transform="translate(-236.03 -181.09)"/><path class="cls-1" d="M254.84,207.6a1,1,0,0,0,0-2,1,1,0,0,0,0,2Z" transform="translate(-236.03 -181.09)"/><path class="cls-1" d="M279.42,218.32a1,1,0,0,0,0-2,1,1,0,0,0,0,2Z" transform="translate(-236.03 -181.09)"/><path class="cls-1" d="M275.74,216.15a1,1,0,0,0,0-2,1,1,0,0,0,0,2Z" transform="translate(-236.03 -181.09)"/><path class="cls-1" d="M276.25,219.21a1,1,0,0,0,0-2,1,1,0,0,0,0,2Z" transform="translate(-236.03 -181.09)"/><path class="cls-1" d="M273.57,217a1,1,0,0,0,0-2,1,1,0,0,0,0,2Z" transform="translate(-236.03 -181.09)"/><path class="cls-1" d="M270.25,217.17a1,1,0,0,0,0-2,1,1,0,0,0,0,2Z" transform="translate(-236.03 -181.09)"/><path class="cls-1" d="M271.65,219.47a1,1,0,0,0,0-2,1,1,0,0,0,0,2Z" transform="translate(-236.03 -181.09)"/><path class="cls-1" d="M273.57,221.13a1,1,0,0,0,0-2,1,1,0,0,0,0,2Z" transform="translate(-236.03 -181.09)"/><path class="cls-1" d="M267.82,218.7a1,1,0,0,0,0-2,1,1,0,0,0,0,2Z" transform="translate(-236.03 -181.09)"/><path class="cls-1" d="M270.63,221.38a1,1,0,0,0,0-2,1,1,0,0,0,0,2Z" transform="translate(-236.03 -181.09)"/><path class="cls-1" d="M276.63,222.79a1,1,0,0,0,0-2,1,1,0,0,0,0,2Z" transform="translate(-236.03 -181.09)"/><path class="cls-1" d="M251,202.74a1,1,0,0,0,0-2,1,1,0,0,0,0,2Z" transform="translate(-236.03 -181.09)"/><path class="cls-1" d="M246.5,197.64a1,1,0,0,0,0-2,1,1,0,0,0,0,2Z" transform="translate(-236.03 -181.09)"/><path class="cls-1" d="M279,215.13a1,1,0,0,0,0-2,1,1,0,0,0,0,2Z" transform="translate(-236.03 -181.09)"/><path class="cls-1" d="M279.31,221.89a1,1,0,0,0,0-2,1,1,0,0,0,0,2Z" transform="translate(-236.03 -181.09)"/><path class="cls-1" d="M279,225.56a1,1,0,0,0,0-2,1,1,0,0,0,0,2Z" transform="translate(-236.03 -181.09)"/><path class="cls-1" d="M273.82,224.19a1,1,0,0,0,0-2,1,1,0,0,0,0,2Z" transform="translate(-236.03 -181.09)"/><path class="cls-1" d="M269.23,223.55a1,1,0,0,0,0-2,1,1,0,0,0,0,2Z" transform="translate(-236.03 -181.09)"/><path class="cls-1" d="M266.55,222.53a1,1,0,0,0,0-2,1,1,0,0,0,0,2Z" transform="translate(-236.03 -181.09)"/><path class="cls-1" d="M260.8,220.36a1,1,0,0,0,0-2,1,1,0,0,0,0,2Z" transform="translate(-236.03 -181.09)"/><path class="cls-1" d="M248.16,211.3a1,1,0,0,0,0-2,1,1,0,0,0,0,2Z" transform="translate(-236.03 -181.09)"/><path class="cls-1" d="M263.61,221.8a1,1,0,0,0,0-2,1,1,0,0,0,0,2Z" transform="translate(-236.03 -181.09)"/><path class="cls-1" d="M250.46,213.21a1,1,0,0,0,0-2,1,1,0,0,0,0,2Z" transform="translate(-236.03 -181.09)"/><path class="cls-1" d="M244.08,205.17a1,1,0,0,0,0-2,1,1,0,0,0,0,2Z" transform="translate(-236.03 -181.09)"/><path class="cls-1" d="M246,201.72a1,1,0,0,0,0-2,1,1,0,0,0,0,2Z" transform="translate(-236.03 -181.09)"/><path class="cls-1" d="M241.4,200.19a1,1,0,0,0,0-2,1,1,0,0,0,0,2Z" transform="translate(-236.03 -181.09)"/><path class="cls-1" d="M278.8,188.06a1,1,0,0,0,0-2,1,1,0,0,0,0,2Z" transform="translate(-236.03 -181.09)"/><path class="cls-1" d="M278.67,190.36a1,1,0,0,0,0-2,1,1,0,0,0,0,2Z" transform="translate(-236.03 -181.09)"/><path class="cls-1" d="M276.25,191a1,1,0,0,0,0-2,1,1,0,0,0,0,2Z" transform="translate(-236.03 -181.09)"/><path class="cls-1" d="M276.25,188.7a1,1,0,0,0,0-2,1,1,0,0,0,0,2Z" transform="translate(-236.03 -181.09)"/><path class="cls-1" d="M273.44,187.43a1,1,0,0,0,0-2,1,1,0,0,0,0,2Z" transform="translate(-236.03 -181.09)"/><path class="cls-1" d="M273.31,190.74a1,1,0,0,0,0-2,1,1,0,0,0,0,2Z" transform="translate(-236.03 -181.09)"/><path class="cls-1" d="M270.76,189a1,1,0,0,0,0-2,1,1,0,0,0,0,2Z" transform="translate(-236.03 -181.09)"/><path class="cls-1" d="M268.21,189.72a1,1,0,0,0,0-2,1,1,0,0,0,0,2Z" transform="translate(-236.03 -181.09)"/><path class="cls-1" d="M264.76,190.36a1,1,0,0,0,0-2,1,1,0,0,0,0,2Z" transform="translate(-236.03 -181.09)"/><path class="cls-1" d="M260,191.26a1,1,0,0,0,0-2,1,1,0,0,0,0,2Z" transform="translate(-236.03 -181.09)"/><path class="cls-1" d="M254.84,191.13a1,1,0,0,0,0-2,1,1,0,0,0,0,2Z" transform="translate(-236.03 -181.09)"/><path class="cls-1" d="M252.63,193.94a1,1,0,0,0,0-2,1,1,0,0,0,0,2Z" transform="translate(-236.03 -181.09)"/><path class="cls-1" d="M250.23,195.49v.13a1,1,0,0,0,2,0v-.13a1,1,0,0,0-2,0Z" transform="translate(-236.03 -181.09)"/><path class="cls-1" d="M248.29,197.26a1,1,0,0,0,0-2,1,1,0,0,0,0,2Z" transform="translate(-236.03 -181.09)"/><path class="cls-1" d="M250.33,194.45a1,1,0,0,0,0-2,1,1,0,0,0,0,2Z" transform="translate(-236.03 -181.09)"/><path class="cls-1" d="M251.87,191.51a1,1,0,0,0,0-2,1,1,0,0,0,0,2Z" transform="translate(-236.03 -181.09)"/><path class="cls-1" d="M257.87,192.91a1,1,0,0,0,0-2,1,1,0,0,0,0,2Z" transform="translate(-236.03 -181.09)"/><path class="cls-1" d="M255.57,194.06a1,1,0,0,0,0-2,1,1,0,0,0,0,2Z" transform="translate(-236.03 -181.09)"/><path class="cls-1" d="M262.46,192.28a1,1,0,0,0,0-2,1,1,0,0,0,0,2Z" transform="translate(-236.03 -181.09)"/><path class="cls-1" d="M266.42,192.66a1,1,0,0,0,0-2,1,1,0,0,0,0,2Z" transform="translate(-236.03 -181.09)"/><path class="cls-1" d="M270.63,191.38a1,1,0,0,0,0-2,1,1,0,0,0,0,2Z" transform="translate(-236.03 -181.09)"/><path class="cls-1" d="M276.51,225.34a1,1,0,0,0,0-2,1,1,0,0,0,0,2Z" transform="translate(-236.03 -181.09)"/><path class="cls-1" d="M285.65,225v0a1,1,0,0,0-2,0v0a1,1,0,0,0,2,0Z" transform="translate(-236.03 -181.09)"/><path class="cls-1" d="M271.5,225.15a1,1,0,0,0,0-2,1,1,0,0,0,0,2Z" transform="translate(-236.03 -181.09)"/><path class="cls-1" d="M289.24,225.72a1,1,0,0,0,0-2,1,1,0,0,0,0,2Z" transform="translate(-236.03 -181.09)"/><path class="cls-1" d="M324.87,187.47a1,1,0,0,0,0-2,1,1,0,0,0,0,2Z" transform="translate(-236.03 -181.09)"/><path class="cls-1" d="M321.81,198.4a1,1,0,0,0,0-2,1,1,0,0,0,0,2Z" transform="translate(-236.03 -181.09)"/><path class="cls-1" d="M319.26,203.81a1,1,0,0,0,0-2,1,1,0,0,0,0,2Z" transform="translate(-236.03 -181.09)"/><path class="cls-1" d="M237,187.49a1,1,0,0,0,0-2,1,1,0,0,0,0,2Z" transform="translate(-236.03 -181.09)"/><path class="cls-1" d="M237.7,190.81a1,1,0,0,0,0-2,1,1,0,0,0,0,2Z" transform="translate(-236.03 -181.09)"/><path class="cls-1" d="M258.57,212.57a1,1,0,0,0,0-2,1,1,0,0,0,0,2Z" transform="translate(-236.03 -181.09)"/><path class="cls-1" d="M312.62,208.45a1,1,0,0,0,0-2,1,1,0,0,0,0,2Z" transform="translate(-236.03 -181.09)"/><path class="cls-1" d="M308.19,207.51a1,1,0,0,0,0-2,1,1,0,0,0,0,2Z" transform="translate(-236.03 -181.09)"/><path class="cls-1" d="M314.57,210.57a1,1,0,0,0,0-2,1,1,0,0,0,0,2Z" transform="translate(-236.03 -181.09)"/><path class="cls-1" d="M312.62,203.17a1,1,0,0,0,0-2,1,1,0,0,0,0,2Z" transform="translate(-236.03 -181.09)"/><path class="cls-1" d="M319.77,194.32a1,1,0,0,0,0-2,1,1,0,0,0,0,2Z" transform="translate(-236.03 -181.09)"/><path class="cls-1" d="M322.74,192.79a1,1,0,0,0,0-2,1,1,0,0,0,0,2Z" transform="translate(-236.03 -181.09)"/><path class="cls-1" d="M298.57,190.15a1,1,0,0,0,0-2,1,1,0,0,0,0,2Z" transform="translate(-236.03 -181.09)"/><path class="cls-1" d="M292.45,191.51a1,1,0,0,0,0-2,1,1,0,0,0,0,2Z" transform="translate(-236.03 -181.09)"/><path class="cls-1" d="M303.17,190.83a1,1,0,0,0,0-2,1,1,0,0,0,0,2Z" transform="translate(-236.03 -181.09)"/><path class="cls-1" d="M311.17,192.45a1,1,0,0,0,0-2,1,1,0,0,0,0,2Z" transform="translate(-236.03 -181.09)"/><path class="cls-1" d="M312.87,194.74a1,1,0,0,0,0-2,1,1,0,0,0,0,2Z" transform="translate(-236.03 -181.09)"/><path class="cls-1" d="M292.45,220.79a1,1,0,0,0,0-2,1,1,0,0,0,0,2Z" transform="translate(-236.03 -181.09)"/><path class="cls-1" d="M291,219.26a1,1,0,0,0,0-2,1,1,0,0,0,0,2Z" transform="translate(-236.03 -181.09)"/><path class="cls-1" d="M301.81,219.43a1,1,0,0,0,0-2,1,1,0,0,0,0,2Z" transform="translate(-236.03 -181.09)"/><path class="cls-1" d="M306.06,217.55a1,1,0,0,0,0-2,1,1,0,0,0,0,2Z" transform="translate(-236.03 -181.09)"/><path class="cls-1" d="M293.47,225a1,1,0,0,0,0-2,1,1,0,0,0,0,2Z" transform="translate(-236.03 -181.09)"/><path class="cls-1" d="M289,223.17a1,1,0,0,0,0-2,1,1,0,0,0,0,2Z" transform="translate(-236.03 -181.09)"/><path class="cls-1" d="M303,214.91a1,1,0,0,0,0-2,1,1,0,0,0,0,2Z" transform="translate(-236.03 -181.09)"/><path class="cls-1" d="M307.34,211.34a1,1,0,0,0,0-2,1,1,0,0,0,0,2Z" transform="translate(-236.03 -181.09)"/><path class="cls-1" d="M317.21,207.17a1,1,0,0,0,0-2,1,1,0,0,0,0,2Z" transform="translate(-236.03 -181.09)"/><path class="cls-1" d="M268.53,220.79a1,1,0,0,0,0-2,1,1,0,0,0,0,2Z" transform="translate(-236.03 -181.09)"/><path class="cls-1" d="M280.28,220a1,1,0,0,0,0-2,1,1,0,0,0,0,2Z" transform="translate(-236.03 -181.09)"/><path class="cls-1" d="M277.55,220.79a1,1,0,0,0,0-2,1,1,0,0,0,0,2Z" transform="translate(-236.03 -181.09)"/><path class="cls-1" d="M277.47,217a1,1,0,0,0,0-2,1,1,0,0,0,0,2Z" transform="translate(-236.03 -181.09)"/><path class="cls-1" d="M280.79,216.45a1,1,0,0,0,0-2,1,1,0,0,0,0,2Z" transform="translate(-236.03 -181.09)"/><path class="cls-1" d="M284.28,217.81a1,1,0,0,0,0-2,1,1,0,0,0,0,2Z" transform="translate(-236.03 -181.09)"/><path class="cls-1" d="M287.17,218.91a1,1,0,0,0,0-2,1,1,0,0,0,0,2Z" transform="translate(-236.03 -181.09)"/><path class="cls-1" d="M279.94,223.43a1,1,0,0,0,0-2,1,1,0,0,0,0,2Z" transform="translate(-236.03 -181.09)"/><path class="cls-1" d="M305,210.15a1,1,0,0,0,0-2,1,1,0,0,0,0,2Z" transform="translate(-236.03 -181.09)"/><path class="cls-1" d="M315.51,200.7a1,1,0,0,0,0-2,1,1,0,0,0,0,2Z" transform="translate(-236.03 -181.09)"/><path class="cls-1" d="M318.49,197.89a1,1,0,0,0,0-2,1,1,0,0,0,0,2Z" transform="translate(-236.03 -181.09)"/><path class="cls-1" d="M320.62,201.72a1,1,0,0,0,0-2,1,1,0,0,0,0,2Z" transform="translate(-236.03 -181.09)"/><path class="cls-1" d="M252.19,207.94a1,1,0,0,0,0-2,1,1,0,0,0,0,2Z" transform="translate(-236.03 -181.09)"/><path class="cls-1" d="M263.34,219.43a1,1,0,0,0,0-2,1,1,0,0,0,0,2Z" transform="translate(-236.03 -181.09)"/><path class="cls-1" d="M255.51,214.06a1,1,0,0,0,0-2,1,1,0,0,0,0,2Z" transform="translate(-236.03 -181.09)"/><path class="cls-1" d="M248.36,209.47a1,1,0,0,0,0-2,1,1,0,0,0,0,2Z" transform="translate(-236.03 -181.09)"/><path class="cls-1" d="M247.94,203.17a1,1,0,0,0,0-2,1,1,0,0,0,0,2Z" transform="translate(-236.03 -181.09)"/><path class="cls-1" d="M243,198a1,1,0,0,0,0-2,1,1,0,0,0,0,2Z" transform="translate(-236.03 -181.09)"/><path class="cls-1" d="M241.3,194.06a1,1,0,0,0,0-2,1,1,0,0,0,0,2Z" transform="translate(-236.03 -181.09)"/><path class="cls-1" d="M271.94,222.74a1,1,0,0,0,0-2,1,1,0,0,0,0,2Z" transform="translate(-236.03 -181.09)"/><path class="cls-1" d="M248,195.26a1,1,0,0,0,0-2,1,1,0,0,0,0,2Z" transform="translate(-236.03 -181.09)"/><path class="cls-1" d="M246.06,195.09a1,1,0,0,0,0-2,1,1,0,0,0,0,2Z" transform="translate(-236.03 -181.09)"/><path class="cls-1" d="M248.53,192.87a1,1,0,0,0,0-2,1,1,0,0,0,0,2Z" transform="translate(-236.03 -181.09)"/><path class="cls-1" d="M257.3,190.91a1,1,0,0,0,0-2,1,1,0,0,0,0,2Z" transform="translate(-236.03 -181.09)"/><path class="cls-1" d="M262.23,190a1,1,0,0,0,0-2,1,1,0,0,0,0,2Z" transform="translate(-236.03 -181.09)"/><path class="cls-1" d="M256.4,217.3a1,1,0,0,0,0-2,1,1,0,0,0,0,2Z" transform="translate(-236.03 -181.09)"/><path class="cls-1" d="M256,209.64a1,1,0,0,0,0-2,1,1,0,0,0,0,2Z" transform="translate(-236.03 -181.09)"/><path class="cls-1" d="M247.85,205.43a1,1,0,0,0,0-2,1,1,0,0,0,0,2Z" transform="translate(-236.03 -181.09)"/><path class="cls-1" d="M254.11,192.79a1,1,0,0,0,0-2,1,1,0,0,0,0,2Z" transform="translate(-236.03 -181.09)"/><path class="cls-1" d="M274.28,189.09a1,1,0,0,0,0-2,1,1,0,0,0,0,2Z" transform="translate(-236.03 -181.09)"/><path class="cls-1" d="M280.4,189.21a1,1,0,0,0,0-2,1,1,0,0,0,0,2Z" transform="translate(-236.03 -181.09)"/><path class="cls-1" d="M286.28,189.21a1,1,0,0,0,0-2,1,1,0,0,0,0,2Z" transform="translate(-236.03 -181.09)"/><path class="cls-1" d="M296.11,192.15a1,1,0,0,0,0-2,1,1,0,0,0,0,2Z" transform="translate(-236.03 -181.09)"/><path class="cls-1" d="M264.57,191.89a1,1,0,0,0,0-2,1,1,0,0,0,0,2Z" transform="translate(-236.03 -181.09)"/><path class="cls-1" d="M249.89,199.43a1,1,0,0,0,0-2,1,1,0,0,0,0,2Z" transform="translate(-236.03 -181.09)"/><path class="cls-1" d="M310.53,200.19a1,1,0,0,0,0-2,1,1,0,0,0,0,2Z" transform="translate(-236.03 -181.09)"/><path class="cls-1" d="M259.6,216.15a1,1,0,0,0,0-2,1,1,0,0,0,0,2Z" transform="translate(-236.03 -181.09)"/><path class="cls-1" d="M246.45,199.68a1,1,0,0,0,0-2,1,1,0,0,0,0,2Z" transform="translate(-236.03 -181.09)"/><path class="cls-1" d="M285.51,221.51a1,1,0,0,0,0-2,1,1,0,0,0,0,2Z" transform="translate(-236.03 -181.09)"/><path class="cls-1" d="M274.15,219.09a1,1,0,0,0,0-2,1,1,0,0,0,0,2Z" transform="translate(-236.03 -181.09)"/><path class="cls-1" d="M275.43,221.38a1,1,0,0,0,0-2,1,1,0,0,0,0,2Z" transform="translate(-236.03 -181.09)"/><path class="cls-1" d="M253.34,211.43a1,1,0,0,0,0-2,1,1,0,0,0,0,2Z" transform="translate(-236.03 -181.09)"/><path class="cls-1" d="M309,204.28a1,1,0,0,0,0-2,1,1,0,0,0,0,2Z" transform="translate(-236.03 -181.09)"/><path class="cls-1" d="M309,204.28a1,1,0,0,0,0-2,1,1,0,0,0,0,2Z" transform="translate(-236.03 -181.09)"/><path class="cls-1" d="M308.87,204.28a1,1,0,0,0,0-2,1,1,0,0,0,0,2Z" transform="translate(-236.03 -181.09)"/></svg>