<svg id="Layer_2" data-name="Layer 2" xmlns="http://www.w3.org/2000/svg" viewBox="0 0 101.84 78.04"><defs><style>.cls-1{fill:#b0642f;stroke:#4d2c14;stroke-miterlimit:10;stroke-width:2px;}</style></defs><title>3</title><path class="cls-1" d="M330.73,160.89s-8.31,40.52-20.18,40.52c0,0-6.76-12.31-11.49-13.71s-17.28-1.65-17.85-1.66h0c-.28,0-3.6.08-7.41.32a58.37,58.37,0,0,0-10.44,1.34c-4.73,1.4-11.49,13.71-11.49,13.71-11.87,0-20.19-40.52-20.19-40.52s-8,70.67,49.54,70.68h0c45,0,49.91-44,49.91-62.33A79.76,79.76,0,0,0,330.73,160.89Zm-39.05,56.18a3.15,3.15,0,0,1-3-.8c-.79-.8-2.69-1.76-7.25-1.76s-6.46,1-7.25,1.76a3.15,3.15,0,0,1-3,.8c-7.39-1.82-13.51-12.86-13.51-12.86,3.07-6.21,6.39-8.77,8.39-9.79,1.77-.9,15.35-1.46,15.35-1.46s13.59.56,15.36,1.46c2,1,5.32,3.58,8.38,9.79C305.19,204.21,299.08,215.25,291.68,217.07Z" transform="translate(-230.27 -154.53)"/></svg>