<svg id="Layer_2" data-name="Layer 2" xmlns="http://www.w3.org/2000/svg" viewBox="0 0 102.34 78.81"><defs><style>.cls-1{fill:#b0642f;stroke:#4d2c14;stroke-linecap:round;stroke-linejoin:round;stroke-width:2px;}</style></defs><title>4</title><path class="cls-1" d="M330.1,166.48c-.06.47-1.13,1-1.21,1.42-.89,2.52-3.91,10.55-6.7,12a40.36,40.36,0,0,1-2,11.77c-2.12,6.68-6.56,14.61-15.78,19.29a35.86,35.86,0,0,1-8.31,2.92c-1.32-1.33-2.72-5.47-4.11-6.45a19.72,19.72,0,0,0-22.11,0c-1.39,1-2.79,5.12-4.12,6.45a36,36,0,0,1-8.33-2.92c-9.24-4.68-13.69-12.61-15.82-19.29a40.19,40.19,0,0,1-2-11.77c-2.79-1.5-5.82-9.53-6.71-12-.08-.47-1.15-1-1.21-1.42,0,0-2.23,35.77,0,41.64s10.43,34.92,49,35.17h.56C319.7,243,327.88,214,330.1,208.12S330.1,166.48,330.1,166.48Z" transform="translate(-229.75 -165.48)"/><path class="cls-1" d="M280,192.09a5.36,5.36,0,0,0-3.73-8.89A26,26,0,0,0,259.46,188c-10.48,7.53-19.77,1-19.77,1s-1.56,6.2,8.4,9.67C255.62,201.28,273.83,199,280,192.09Z" transform="translate(-229.75 -165.48)"/><path class="cls-1" d="M282.66,192.09a5.36,5.36,0,0,1,3.73-8.89A26,26,0,0,1,303.17,188c10.48,7.53,19.77,1,19.77,1s1.56,6.2-8.4,9.67C307,201.28,288.8,199,282.66,192.09Z" transform="translate(-229.75 -165.48)"/></svg>