<svg id="Layer_2" data-name="Layer 2" xmlns="http://www.w3.org/2000/svg" viewBox="0 0 85.18 11.19"><defs><style>.cls-1{fill:#b0642f;stroke:#4d2c14;stroke-linecap:round;stroke-linejoin:round;stroke-width:2px;}</style></defs><title>1</title><path class="cls-1" d="M189.34,167.18a3.8,3.8,0,0,1,3.19-3.53c3.54-.68,10.36-2,14.51-3.37,5.79-1.86,12.87,4.93,15.23,7.51s-9.15-1.72-11.44-2.36-14.45,3.72-17.24,3.72C191.5,169.15,189.29,169.39,189.34,167.18Z" transform="translate(-138.41 -158.96)"/><path class="cls-1" d="M172.66,167.18a3.8,3.8,0,0,0-3.19-3.53c-3.54-.68-10.36-2-14.51-3.37-5.79-1.86-12.87,4.93-15.23,7.51s9.15-1.72,11.44-2.36,14.45,3.72,17.24,3.72C170.5,169.15,172.71,169.39,172.66,167.18Z" transform="translate(-138.41 -158.96)"/></svg>