<svg id="Layer_2" data-name="Layer 2" xmlns="http://www.w3.org/2000/svg" viewBox="0 0 84.29 13.29"><defs><style>.cls-1{fill:#b0642f;stroke:#4d2c14;stroke-linecap:round;stroke-linejoin:round;stroke-width:2px;}</style></defs><title>2</title><path class="cls-1" d="M188.75,167.22c-.4-1.66.62-5.13,3.19-5.54a119.48,119.48,0,0,0,14.51-3.37c7.58-2.47,13.39,6.81,15.23,9.51,2,3-9.15-1.72-11.44-2.36s-14.45,3.72-17.24,3.72C190.91,169.18,189.26,169.36,188.75,167.22Z" transform="translate(-138.64 -156.9)"/><path class="cls-1" d="M172.82,167.22c.4-1.66-.62-5.13-3.19-5.54a119.48,119.48,0,0,1-14.51-3.37c-7.58-2.47-13.39,6.81-15.23,9.51-2,3,9.15-1.72,11.44-2.36s14.45,3.72,17.24,3.72C170.66,169.18,172.31,169.36,172.82,167.22Z" transform="translate(-138.64 -156.9)"/></svg>