<svg id="Layer_2" data-name="Layer 2" xmlns="http://www.w3.org/2000/svg" viewBox="0 0 84.69 8.65"><defs><style>.cls-1{fill:#b0642f;stroke:#4d2c14;stroke-linecap:round;stroke-linejoin:round;stroke-width:2px;}</style></defs><title>3</title><path class="cls-1" d="M172.64,164.66c0-.8-.56-1.57-3.13-2-3.56-.58-10.16-1.59-14.51-2.37-6.54-1.18-13.39,2.81-15.23,5.51-2.05,3,5-2.21,11.41-2.65,2.38-.16,14.51,2.56,17.27,3C170.46,166.51,172.64,166.65,172.64,164.66Z" transform="translate(-138.41 -159.1)"/><path class="cls-1" d="M188.86,164.66c0-.8.57-1.57,3.14-2,3.56-.58,10.15-1.59,14.5-2.37,6.54-1.18,13.39,2.81,15.24,5.51,2,3-5-2.21-11.42-2.65-2.37-.16-14.51,2.56-17.26,3C191,166.51,188.87,166.65,188.86,164.66Z" transform="translate(-138.41 -159.1)"/></svg>