<svg id="Layer_2" data-name="Layer 2" xmlns="http://www.w3.org/2000/svg" viewBox="0 0 87.75 12.34"><defs><style>.cls-1{fill:#b0642f;stroke:#4d2c14;stroke-linecap:round;stroke-linejoin:round;stroke-width:2px;}</style></defs><title>5</title><path class="cls-1" d="M189.52,167.63a.52.52,0,0,1-.6-.44c-.2-1.26-.18-4,.32-4.88S191.5,159,191.5,159s1.71,1.73,2.47,2.63c0,0,4.87-2.95,5.51-3.08s0,3.19,0,3.19l8.42-2.55-.61,2.42s6.65-1.56,10.32-.63a3.57,3.57,0,0,1-1.66,1.53s5.45,3.6,7.65,6.38l-10.46-2.81S196.39,166.66,189.52,167.63Z" transform="translate(-136.85 -157.52)"/><path class="cls-1" d="M171.92,167.63a.53.53,0,0,0,.61-.44c.2-1.26.18-4-.32-4.88S170,159,170,159s-1.71,1.73-2.48,2.63c0,0-4.86-2.95-5.5-3.08s0,3.19,0,3.19l-8.42-2.55.61,2.42s-6.65-1.56-10.32-.63a3.57,3.57,0,0,0,1.66,1.53s-5.45,3.6-7.65,6.38l10.46-2.81S165.06,166.66,171.92,167.63Z" transform="translate(-136.85 -157.52)"/></svg>