<svg id="Layer_2" data-name="Layer 2" xmlns="http://www.w3.org/2000/svg" viewBox="0 0 87.75 9.02"><defs><style>.cls-1{fill:#b0642f;stroke:#4c2c16;stroke-linecap:round;stroke-linejoin:round;stroke-width:2px;}</style></defs><title>6</title><path class="cls-1" d="M189.52,166.64a.54.54,0,0,1-.6-.46c-.2-1.25-.18-1,.32-1.87s2.32-3.41,2.32-3.41l1.41,1.69,1.88-1.61,3.48.09,1,1,1.37-.91,5.81-.21s2-.11,4.28-.09a6.67,6.67,0,0,1,3.57,1.1c2.52,1.66,7.33,3.95,9.19,5.92L213,163.94a6.71,6.71,0,0,0-3.35-.34C205.47,164.24,195,165.86,189.52,166.64Z" transform="translate(-136.85 -159.84)"/><path class="cls-1" d="M171.93,166.64a.54.54,0,0,0,.6-.46c.2-1.25.18-1-.32-1.87s-2.32-3.41-2.32-3.41l-1.41,1.69L166.6,161l-3.48.09-1.05,1-1.37-.91-5.81-.21s-2-.11-4.28-.09a6.67,6.67,0,0,0-3.57,1.1c-2.52,1.66-7.33,3.95-9.19,5.92l10.65-3.92a6.7,6.7,0,0,1,3.35-.34C156,164.24,166.49,165.86,171.93,166.64Z" transform="translate(-136.85 -159.84)"/></svg>