<svg id="Layer_2" data-name="Layer 2" xmlns="http://www.w3.org/2000/svg" viewBox="0 0 76.45 7.18"><defs><style>.cls-1{fill:#b0642f;stroke:#4d2c14;stroke-linecap:round;stroke-linejoin:round;stroke-width:2px;}</style></defs><title>7</title><path class="cls-1" d="M192.52,165.64a.54.54,0,0,1-.6-.46c-.48-2.22,2-3.6,2-3.6a70.29,70.29,0,0,1,12.62-1.08c5.39.25,9,2.85,11.64,4.42,0,0-9-1.24-11.91-1.25C202.12,163.65,197.91,164.63,192.52,165.64Z" transform="translate(-142.75 -159.47)"/><path class="cls-1" d="M168.65,165.64a.53.53,0,0,0,.58-.46c.47-2.22-2-3.6-2-3.6A66.07,66.07,0,0,0,155,160.5c-5.22.25-8.69,2.85-11.29,4.42,0,0,8.73-1.24,11.55-1.25C159.34,163.65,163.42,164.63,168.65,165.64Z" transform="translate(-142.75 -159.47)"/></svg>