<svg id="Layer_2" data-name="Layer 2" xmlns="http://www.w3.org/2000/svg" viewBox="0 0 101.9 132.96"><defs><style>.cls-1{fill:#fde3c7;stroke:#4d2c16;stroke-miterlimit:10;stroke-width:2px;}</style></defs><title>5</title><path class="cls-1" d="M291.54,174.68c-.44-14.15-1.49-27.68-8.87-36.1-15.91-18.14-40.73-17.46-40.73-17.46s-24.82-.68-40.73,17.46c-7.38,8.42-8.43,21.95-8.88,36.1-.13,4.4-.68,9.32,0,13.67,1.35,9.07,3.36,27.78,8.37,40.76a28.78,28.78,0,0,0,10.89,13c19.4,13.25,44.33,13.25,60.75,0,4.68-3.77,8.91-7.88,10.89-13,5-13,7-31.69,8.38-40.76C292.23,184,291.68,179.08,291.54,174.68Z" transform="translate(-190.99 -120.11)"/></svg>