<svg id="Layer_2" data-name="Layer 2" xmlns="http://www.w3.org/2000/svg" viewBox="0 0 102.08 133.04"><defs><style>.cls-1{fill:#fde3c7;stroke:#4d2c16;stroke-miterlimit:10;stroke-width:2px;}</style></defs><title>6</title><path class="cls-1" d="M291.63,174.68c-.44-14.15-1.49-27.68-8.89-36.1-15.94-18.14-40.8-17.46-40.8-17.46s-24.87-.68-40.8,17.46c-7.4,8.42-8.45,21.95-8.9,36.1-.13,4.4-.68,9.32,0,13.67,1.35,9.07,3.37,27.78,8.39,40.76,2,5.15,5.34,13.8,10.91,16,23.92,9.6,38.72,9.09,60.86,0,5.56-2.28,8.92-10.88,10.91-16,5-13,7-31.69,8.39-40.76C292.32,184,291.77,179.08,291.63,174.68Z" transform="translate(-190.9 -120.11)"/></svg>