<svg id="Layer_2" data-name="Layer 2" xmlns="http://www.w3.org/2000/svg" viewBox="0 0 99.1 133.9"><defs><style>.cls-1{fill:#fde3c7;stroke:#4d2c16;stroke-miterlimit:10;stroke-width:2px;}</style></defs><title>1</title><path class="cls-1" d="M290.19,174.65c-.43-14.15-1.45-27.68-8.63-36.1C266.1,120.4,242,121.08,242,121.08s-24.12-.68-39.58,17.47c-7.18,8.42-8.2,21.95-8.63,36.1-.14,4.39-.67,9.32,0,13.67,1.31,9.06,3.27,24.77,8.14,37.76,1.93,5.14,5.86,11.51,10.59,15,21.92,16.3,38.71,15.35,59.05,0,4.71-3.56,8.65-9.89,10.58-15,4.87-13,6.83-28.7,8.14-37.76C290.85,184,290.32,179,290.19,174.65Z" transform="translate(-192.42 -120.08)"/></svg>