<svg id="Layer_2" data-name="Layer 2" xmlns="http://www.w3.org/2000/svg" viewBox="0 0 83.94 10.43"><defs><style>.cls-1{fill:#b0642f;stroke:#4d2c14;stroke-linecap:round;stroke-linejoin:round;stroke-width:2px;}</style></defs><title>4</title><path class="cls-1" d="M188.83,164.46c-.45-3.7,9.62-5.79,14.81-5.79,6.93,0,18,3.06,18,7.15,0,3.63-4.6-1.62-16.54-2-4.56-.14-10.1,2.45-12.95,2.9C190.1,167.08,189.08,166.43,188.83,164.46Z" transform="translate(-138.74 -157.67)"/><path class="cls-1" d="M172.59,164.46c.46-3.7-9.62-5.79-14.8-5.79-6.93,0-18,3.06-18,7.15-.05,3.63,4.61-1.62,16.54-2,4.57-.14,10.1,2.45,13,2.9C171.33,167.08,172.35,166.43,172.59,164.46Z" transform="translate(-138.74 -157.67)"/></svg>