<svg id="Layer_2" data-name="Layer 2" xmlns="http://www.w3.org/2000/svg" viewBox="0 0 82.95 13.69"><defs><style>.cls-1{fill:#b0642f;stroke:#4d2c14;stroke-linecap:round;stroke-linejoin:round;stroke-width:2px;}</style></defs><title>8</title><path class="cls-1" d="M191.25,168.14c3.29-.88,12.26-2.64,27-1a1.22,1.22,0,0,0,.33,0c.75-.15,3.6-.92,2.38-3.92-1.33-3.25-10.26-9-18.23-4.4a1.09,1.09,0,0,1-1.62-.65c-.2-.79-.58-1.59-1.34-1.59-1.43,0-8.94,3.54-9.87,10.41A1.06,1.06,0,0,0,191.25,168.14Z" transform="translate(-139.32 -155.49)"/><path class="cls-1" d="M170.34,168.06c-3.29-.88-12.26-2.64-27-1a1.22,1.22,0,0,1-.33,0c-.75-.15-3.6-.93-2.38-3.93,1.33-3.25,10.26-9,18.23-4.4a1.08,1.08,0,0,0,1.62-.64c.19-.8.58-1.6,1.34-1.6,1.43,0,8.94,3.54,9.87,10.41A1.07,1.07,0,0,1,170.34,168.06Z" transform="translate(-139.32 -155.49)"/></svg>