<svg id="Layer_2" data-name="Layer 2" xmlns="http://www.w3.org/2000/svg" viewBox="0 0 101.95 76.82"><defs><style>.cls-1{fill:#b0642f;stroke:#4d2c14;stroke-linecap:round;stroke-linejoin:round;stroke-width:2px;}</style></defs><title>6</title><path class="cls-1" d="M330.84,166.48c-.06.47-1.13,1-1.21,1.42-.89,2.52-3.92,10.55-6.71,12a40.19,40.19,0,0,1-2,11.77,37.15,37.15,0,0,1-2.48,6l-.07-.13c-6.9-12.42-35.53-12.57-36.62-12.53h0c-1.09,0-30.72.1-37.62,12.53a35.93,35.93,0,0,1-2.42-5.85,40.19,40.19,0,0,1-2-11.77c-2.79-1.5-5.82-9.53-6.71-12.05-.08-.47-1.15-.95-1.21-1.42,0,0-1,35.45,0,41.64,3.55,21.44,10.43,32.92,49,33.17h1.12c38.54-.25,45.43-10.95,49-33.17C331.84,201.92,330.84,166.48,330.84,166.48ZM305.12,211a36,36,0,0,1-8.33,2.92c-1.32-1.33-2.73-5.47-4.12-6.45a18.75,18.75,0,0,0-11.07-3.39H281A18.75,18.75,0,0,0,270,207.49c-1.39,1-2.8,5.12-4.12,6.45a36,36,0,0,1-8.33-2.92,29.59,29.59,0,0,1-7.61-5.48c2.79-2.57,12.9-13.46,32-13.56,19.29.16,28.41,11,30.84,13.58A29.93,29.93,0,0,1,305.12,211Z" transform="translate(-230.34 -165.48)"/></svg>