<svg width="24" height="24" viewBox="0 0 24 24" fill="none" xmlns="http://www.w3.org/2000/svg">
<path d="M4.47601 12.9375V12.942C4.45075 13.0373 4.40696 13.1266 4.34714 13.205C4.28732 13.2833 4.21264 13.3491 4.12738 13.3985C4.04213 13.448 3.94796 13.4801 3.85026 13.4932C3.75256 13.5062 3.65325 13.4999 3.55801 13.4745C2.91151 13.3035 3.02551 12.558 3.02551 12.558L3.05251 12.465C3.05251 12.465 3.09151 12.339 3.12301 12.2475C3.50794 11.1682 4.07461 10.1627 4.79851 9.2745C6.14401 7.6335 8.40751 6 12 6C15.5925 6 17.856 7.6335 19.203 9.2745C19.9269 10.1627 20.4936 11.1682 20.8785 12.2475C20.9108 12.3403 20.9408 12.4338 20.9685 12.528L20.973 12.5475V12.5535L20.9745 12.5565C21.0221 12.7474 20.9928 12.9493 20.8928 13.1188C20.7929 13.2883 20.6304 13.4117 20.4403 13.4625C20.2502 13.5132 20.0478 13.4873 19.8767 13.3902C19.7056 13.2931 19.5794 13.1327 19.5255 12.9435L19.524 12.9375L19.512 12.9C19.427 12.6345 19.3268 12.3741 19.212 12.12C18.9063 11.4402 18.513 10.8033 18.042 10.2255C16.929 8.868 15.066 7.5 12 7.5C8.93401 7.5 7.07251 8.868 5.95801 10.2255C5.34676 10.9762 4.86745 11.8253 4.54051 12.7365C4.52198 12.7907 4.50448 12.8452 4.48801 12.9L4.47601 12.9375ZM12 10.5C11.0054 10.5 10.0516 10.8951 9.34836 11.5983C8.6451 12.3016 8.25001 13.2554 8.25001 14.25C8.25001 15.2446 8.6451 16.1984 9.34836 16.9017C10.0516 17.6049 11.0054 18 12 18C12.9946 18 13.9484 17.6049 14.6517 16.9017C15.3549 16.1984 15.75 15.2446 15.75 14.25C15.75 13.2554 15.3549 12.3016 14.6517 11.5983C13.9484 10.8951 12.9946 10.5 12 10.5ZM9.75001 14.25C9.75001 13.6533 9.98706 13.081 10.409 12.659C10.831 12.2371 11.4033 12 12 12C12.5967 12 13.169 12.2371 13.591 12.659C14.013 13.081 14.25 13.6533 14.25 14.25C14.25 14.8467 14.013 15.419 13.591 15.841C13.169 16.2629 12.5967 16.5 12 16.5C11.4033 16.5 10.831 16.2629 10.409 15.841C9.98706 15.419 9.75001 14.8467 9.75001 14.25Z" fill="#121212"/>
</svg>
