<svg width="24" height="24" viewBox="0 0 24 24" fill="none" xmlns="http://www.w3.org/2000/svg">
<path d="M19.5385 8.0625V8.058C19.5638 7.96273 19.6076 7.87337 19.6674 7.79504C19.7272 7.7167 19.8019 7.65093 19.8871 7.60147C19.9724 7.55202 20.0666 7.51985 20.1643 7.50682C20.262 7.49378 20.3613 7.50013 20.4565 7.5255C21.103 7.6965 20.989 8.442 20.989 8.442L20.962 8.535C20.962 8.535 20.923 8.661 20.8915 8.7525C20.5066 9.83177 19.9399 10.8373 19.216 11.7255C17.8705 13.3665 15.607 15 12.0145 15C8.42201 15 6.15851 13.3665 4.81151 11.7255C4.08761 10.8373 3.52095 9.83177 3.13601 8.7525C3.10377 8.65974 3.07376 8.56621 3.04601 8.472L3.04151 8.4525V8.4465L3.04001 8.4435C2.99244 8.2526 3.02177 8.05065 3.1217 7.88118C3.22163 7.71171 3.38415 7.58829 3.57423 7.53752C3.7643 7.48676 3.96671 7.51271 4.13783 7.60979C4.30895 7.70687 4.43507 7.8673 4.48901 8.0565L4.49051 8.0625L4.50251 8.1C4.58755 8.36551 4.68772 8.62594 4.80252 8.88C5.1082 9.55983 5.50154 10.1967 5.97252 10.7745C7.08552 12.132 8.94851 13.5 12.0145 13.5C15.0805 13.5 16.942 12.132 18.0565 10.7745C18.6678 10.0238 19.1471 9.17471 19.474 8.2635C19.4925 8.20934 19.5101 8.15483 19.5265 8.1L19.5385 8.0625Z" fill="#121212"/>
</svg>
