<svg id="Layer_1" data-name="Layer 1" xmlns="http://www.w3.org/2000/svg" viewBox="0 0 191.1 178.28"><defs><style>.cls-1,.cls-4{fill:#b0642f;}.cls-1,.cls-6{stroke:#4d2c14;stroke-linecap:round;stroke-linejoin:round;}.cls-1,.cls-2,.cls-3,.cls-6{stroke-width:2px;}.cls-2{fill:#f2cfad;stroke:#4c2c17;}.cls-2,.cls-3{stroke-miterlimit:10;}.cls-3{fill:#fde3c7;stroke:#4d2c16;}.cls-5{fill:#b1642e;}.cls-6{fill:none;}</style></defs><title>hair_2</title><path class="cls-1" d="M242.82,195.43c-2-4.6,4.22-15.83,5.24-20s-.51-16.95-5.24-20.79.06-16.46-6.84-22.85S232,103.35,232,103.35c-6.33-22.8-20.22-16-25.15-22.13S190.7,62.83,182.52,65.56a143.9,143.9,0,0,0-17.68,7.71,143.9,143.9,0,0,0-17.68-7.71c-8.18-2.73-19.43,9.53-24.36,15.66S104,80.55,97.65,103.35c0,0,2.95,22.06-4,28.45s-2.11,19-6.84,22.85-6.26,16.62-5.24,20.79,7.25,15.39,5.24,20-11,15.12-11,15.12,11.9,13.52,27.1,6.77,17.9,4.6,17.9,4.6-.77-6.95,5.53-6.92,7.27,5.13,10.13,5.45c2.69.29,24.56-4.15,27.29-4.71,3,.56,26.58,5,29.27,4.71,2.87-.32,3.82-5.41,10.13-5.45s9.53,6.92,9.53,6.92-1.31-11.34,13.9-4.6,27.1-6.77,27.1-6.77S244.83,200,242.82,195.43Z" transform="translate(-65.13 -64.17)"/><path class="cls-1" d="M181.57,211.37s6.9,4,4.12,9.55-1.73,8.53-1.73,8.53-6.6-2.28-3.81-5.83c5.8-7.4-6.11-10.21-6.11-10.21" transform="translate(-65.13 -64.17)"/><path class="cls-1" d="M185.86,208.28s4,9.66-1.34,13.64S191,233.26,191,233.26s-5-6.11-1.84-8.84,5.83-13.59,3.28-16.14" transform="translate(-65.13 -64.17)"/><path class="cls-1" d="M141.05,210.39s4.69,12.66-.46,17.11-8.21,1.94-8.21,1.94,17,14.82,16.78-13.92" transform="translate(-65.13 -64.17)"/><path class="cls-1" d="M82.85,206.15s7.83,11.92,0,19.75c0,0,10.73-2.68,8.85-17.7" transform="translate(-65.13 -64.17)"/><path class="cls-1" d="M125.79,210.39s-6,19.06,4.67,28.07a37.13,37.13,0,0,1,5.06-26" transform="translate(-65.13 -64.17)"/><path class="cls-1" d="M124.47,195.43s9.17,2.68,8.75,11.44-16.35,13.86-15.76,21,6.6,13.53,6.6,13.53-7.75-9-1.19-12.56,17.06-6.43,18.55-16.17-7.35-15.34-7.35-15.34" transform="translate(-65.13 -64.17)"/><path class="cls-1" d="M229.45,113.18s7.18-2.16,8.4,3.73-3.39,8.61-1.81,13.55,6.67,1.09,8.81,5.9-.67,11.43,2.65,13.49c0,0-5.82-2.1-6.08-6.27s-5.41-6-6.94-6S228,132.21,229.2,127a8.69,8.69,0,0,0-2.89-8.42" transform="translate(-65.13 -64.17)"/><path class="cls-1" d="M207.16,85.85s32.71,12.84,26.2,24.3-11.23,8.85-9.23,16.68,15.44,9.09,13,16.71c-1.81,5.64-5.47,9-8.62,11.79,0,0,3.05-8,0-13.13s-15.28-16.72-13.25-19.11-.26-2,2.58-5.11,7.69-4.41,4.63-10S207.06,100,207.06,100" transform="translate(-65.13 -64.17)"/><path class="cls-1" d="M189.15,195.43S203.66,203,198,209.28s-10.51,11.61-7.47,15.24a31.73,31.73,0,0,1,5.69,10.74s-.86-8.17.42-14.49,8.18-7.21,9-12.79-6.1-12.55-6.1-12.55" transform="translate(-65.13 -64.17)"/><path class="cls-1" d="M204.59,184.72s-13.66,16.31-.66,27.72S202.18,228.71,201,231s-1.71,7,.73,7.46c0,0,.94-7.49,6.16-9s10-7.38,7.37-12.23-9.4-8.26-8.2-15.75a33.48,33.48,0,0,1,4.21-12.08" transform="translate(-65.13 -64.17)"/><path class="cls-1" d="M215.26,150.61s13.63,17.42,0,26.61-4.62,17.47,2.58,22.23-1.53,18.3-3.09,22.37S219,231,219,231s-2.05-9.18,7.14-19.63.44-19.59-4.59-22.92c-8.52-5.64,4.76-8.86,7-14.64,3.19-8.37-2-21.23-2-21.23" transform="translate(-65.13 -64.17)"/><path class="cls-1" d="M240.68,175.44s21.19,11.14,12.43,23.95c-6.9,10.07-1.42,20.38-1.42,20.38s-10.24-7.36-5.32-16.62c6.57-12.34-5.69-15.55-5.69-15.55" transform="translate(-65.13 -64.17)"/><path class="cls-1" d="M233.52,203s7.95,3.92,3.46,7.54-6.93,5.57-4.13,8.61a18.05,18.05,0,0,1,4.28,6.81s-1-5.44-.23-8.23c.79-3,2.44-4.31,4.42-6.86,2.41-3.09,1.78-8.28-5.21-14.35" transform="translate(-65.13 -64.17)"/><path class="cls-1" d="M238.64,145.1s12.76,3.67,11.23,9.55-10,7.79-4.5,10.29,8.74,3.68,8.41,6.15a31.77,31.77,0,0,1-1.61,5.79s2.66-5.71-4.67-5.79-12.18-6.65-8.86-12.17-1.74-9.07-1.74-9.07" transform="translate(-65.13 -64.17)"/><path class="cls-2" d="M182.52,195.45h-36.1s4.74,15.77-2,37.22c3.25,3.25,11.69,4.78,20.05,4.78s16.8-1.53,20.05-4.78C177.78,211.22,182.52,195.45,182.52,195.45Z" transform="translate(-65.13 -64.17)"/><path class="cls-3" d="M212.72,132.19c-.43-14.16-1.45-27.68-8.63-36.1-15.46-18.15-39.58-17.47-39.58-17.47s-24.13-.68-39.59,17.47c-7.18,8.42-8.2,21.94-8.63,36.1-.13,4.39-.66,9.31,0,13.66,1.31,9.07,3.27,24.78,8.14,37.76,1.93,5.15,5.85,11.52,10.58,15C156.9,215,173.7,214,194,198.65c4.72-3.56,8.66-9.89,10.59-15,4.87-13,6.82-28.69,8.14-37.76C213.39,141.5,212.86,136.58,212.72,132.19Z" transform="translate(-65.13 -64.17)"/><path class="cls-4" d="M201.73,93.6s-6.59-15.44-36-16.69S134,91.09,134,91.09L156.19,88l9.07,8.17,16.14-7.41Z" transform="translate(-65.13 -64.17)"/><path class="cls-4" d="M207.06,116.88s-6.39,19.16,8.2,25.52c0,0,5.67-23.88-8.2-26.87" transform="translate(-65.13 -64.17)"/><path class="cls-1" d="M77.7,171.09s-.68,15.32-5.44,17.7-6.13,0-6.13,0,6.57,16,20.73-13.35" transform="translate(-65.13 -64.17)"/><path class="cls-1" d="M93.94,142.4s4.36,10-9.89,15.5-7.56,18.28-5.82,19,7.56,6.45,2.33,14.22-8.23,13-5.42,20,6.51,9.31,6.51,9.31-8.07-13.1-2.55-18.62,16.59-8.44,14.26-17.46-14-11.93-9-17.74,15.68-2.27,19.2-8.7-2.5-11.87-2.5-11.87" transform="translate(-65.13 -64.17)"/><path class="cls-1" d="M99.89,167.68s-6.27,9.31.88,17,10,16.75,8.17,19.22c-2.69,3.71-17.11,12.26-16.85,18.89s7.8,12.43,7.8,12.43-4.85-12.51,0-15.83,7.76-5.06,16-11.4c7.19-5.52,3.48-15.58-4.18-20.18s-9.45-14.29-6.89-20.17" transform="translate(-65.13 -64.17)"/><path class="cls-1" d="M112.92,128.8s.1,12.37,6.74,13.41,3.22,10.72-3.37,16.77-3.78,18.22,3.11,23.59,8.94,14.72.51,18.4-13.42,11.32-9.86,17.26,4.77,9.62,1.87,14.43l-2.9,4.81s1.5-6.79-.91-11.6c-.45-.9-.89-1.71-1.31-2.41a16.36,16.36,0,0,1-1.15-14.55c.15-.35.31-.69.48-1,2.55-5.21,8.91-9.86,10-13.11,1.79-5.33,0-9.58-3.21-13.5-3.52-4.26-8.47-8.15-7.63-14s6.3-9.59,7.65-15.15a8.62,8.62,0,0,0-2.68-8.17c-5.66-5.39-4.59-13.39-1.5-22.2" transform="translate(-65.13 -64.17)"/><path class="cls-5" d="M162.77,95.49S155.33,89.42,148,93.6s-.64,7.7-9.25,8.21-8.67-.26-10.54,4.6,2.19,6.24,1.17,9.12-9.19,6.45-9.7,7.22-1.74,6.72-1.74,6.72-5.92-10.19-3.11-13.94,13.92-23.4,13.92-23.4l20.07-5.61S165.8,84.83,162.77,95.49Z" transform="translate(-65.13 -64.17)"/><path class="cls-1" d="M165.26,79.55s-18.45-12.12-28.32-6.08-4.5,11.54-8.21,18.66-9,7.13-14.68,7.47S105.19,118,105.19,118s5.19-14.54,10.13-14.59,20.15-.63,21.56-8.51S151.68,85,151.68,85" transform="translate(-65.13 -64.17)"/><path class="cls-1" d="M165.26,96.2s-24.92-13.32-32.58,4.55-16.24,15.14-25,21.74c-7.76,5.83-10.46,15.54-.53,23.65,5.34,4.37,15.13,20.48-7.23,27.63s-3.78,12.51,0,17.62,3.58,20.46-19.55,25.83c0,0,24.51-14.6,11.49-24.05-9.48-6.87-15.15-19.33-2.22-26s20.09-8.32,8.17-15.31c-10.92-6.4-16.9-26.6,2.11-36.3s22.92-25.78,28.3-31.15S162.93,73.22,165.26,96.2Z" transform="translate(-65.13 -64.17)"/><path class="cls-1" d="M173.86,81.9s9.85-12.15,27.14-5.06,11,17.36,10.16,30.25,17.69,10.21,21.1,16-6.47,15.89-6.47,20.37,7.54,14.77,15.66,23.12,2.38,13-5.79,21.53-12.85,17.7-11.53,24.85,10.5,10.21,4.38,14.64c0,0,5.13-2-7-7.15s-3.5-26.21,2.59-33,12.16-12.52,6.74-22.26-17-12.57-15.27-21.71,9.85-8.8,4.06-15.61-22.27-4.42-15.07-18-8.93-25.64-18.73-24.59" transform="translate(-65.13 -64.17)"/><path class="cls-1" d="M165.26,96.2S193.58,84.28,201,99.6s-2.25,24.22,0,33.35,12.23,8,14.26,17.66-9,14.7-6.37,23.28,5.57,9.81,9,25.56c0,0-.37-13.52-4.82-24.47s12.06-17.3,11.07-25.8c-1-8.69-12.65-14.7-14.81-19.71s7-22.64,3.74-30.89S189.83,73.85,165.26,96.2Z" transform="translate(-65.13 -64.17)"/><path class="cls-6" d="M164.84,73.27c3.7,8.68.75,20.33.75,20.33" transform="translate(-65.13 -64.17)"/><path class="cls-1" d="M165.26,96.31s-15.51-5.68-16.47-.11-3.33,8.31-6.24,9.19-10.65-3.65-12.25,2.21,2,7.69.85,10.72c-.85,2.17-12.15,3.45-8.62,9.6s10.15,5.88,1.81,12.28c0,0,3.66-4.75-1.45-7.1-4.85-2.24-7.22-2.09-7-8.17.29-6.5,7.76-5.06,9.85-8.48,2.4-3.91-2.72-14.33.67-15.83s7.93-.11,12.27-1.87,2.72-3.25,6.9-6.36S161.47,91,165.26,96.31Z" transform="translate(-65.13 -64.17)"/><path class="cls-1" d="M164.73,96.3s-11.78.91-9.41,8.57C155.32,104.87,146.42,91.31,164.73,96.3Z" transform="translate(-65.13 -64.17)"/><path class="cls-6" d="M164.47,96.58s-6,.38-6,4.92" transform="translate(-65.13 -64.17)"/></svg>