<svg id="Layer_1" data-name="Layer 1" xmlns="http://www.w3.org/2000/svg" viewBox="0 0 180.21 272.18"><defs><style>.cls-1{fill:#89491d;}.cls-1,.cls-4,.cls-5{stroke:#4d2c14;stroke-linecap:round;stroke-linejoin:round;}.cls-1,.cls-2,.cls-3,.cls-4,.cls-5{stroke-width:2px;}.cls-2{fill:#f2cfad;stroke:#4c2c17;}.cls-2,.cls-3{stroke-miterlimit:10;}.cls-3{fill:#fde3c7;stroke:#4d2c16;}.cls-4,.cls-6{fill:#b0642f;}.cls-5{fill:none;}</style></defs><title>hair_4_fringe_2</title><path class="cls-1" d="M236.4,324l-145.11.62s18-20.51,17.16-143.81C107.62,64.4,158,77.1,163.59,78.94h0s56.53-22,55.65,101.25S236.4,324,236.4,324Z" transform="translate(-74.74 -57.59)"/><path class="cls-2" d="M182.52,195.45h-36.1s4.74,15.77-2,37.22c3.25,3.25,11.69,4.78,20.05,4.78s16.8-1.53,20.05-4.78C177.78,211.22,182.52,195.45,182.52,195.45Z" transform="translate(-74.74 -57.59)"/><path class="cls-3" d="M212.72,132.19c-.43-14.16-1.45-27.68-8.63-36.1-15.46-18.15-39.58-17.47-39.58-17.47s-24.13-.68-39.59,17.47c-7.18,8.42-8.2,21.94-8.63,36.1-.13,4.39-.66,9.31,0,13.66,1.31,9.07,3.27,24.78,8.14,37.76,1.93,5.15,5.85,11.52,10.58,15C156.9,215,173.7,214,194,198.65c4.72-3.56,8.66-9.89,10.59-15,4.87-13,6.82-28.69,8.14-37.76C213.39,141.5,212.86,136.58,212.72,132.19Z" transform="translate(-74.74 -57.59)"/><path class="cls-4" d="M164.73,60.81l-.18,32.72S96.06,66,132.25,206.59C163.74,329,115.7,328.77,115.7,328.77l-20.14-5.92c6.21-8.23,4.4-27.16,4.4-27.16-5.58,24.59-12.68,24.64-13,24.63h0L75.74,317S92,271,92.08,241.89C92.29,181.89,74.34,42.07,164.73,60.81Z" transform="translate(-74.74 -57.59)"/><path class="cls-4" d="M233,323c-5.38-5.33-13-17.14-13-17.14,2.7,13.62,8.53,18.46,8.53,18.46l-7,2.05C209.46,315.6,201,292.62,201,292.62c2.11,16,16.84,34.88,16.84,34.88l-4.34,1.27S165.45,329,197,206.59C233.14,66,164.55,93.53,164.55,93.53l.1-32.72c87.65-21.68,72.26,121.08,72.47,181.08C237.23,271,253.46,317,253.46,317Z" transform="translate(-74.74 -57.59)"/><path class="cls-4" d="M164.47,93.53s-23.35-.44-25.05,13.52C139.42,107.05,143.32,80.71,164.47,93.53Z" transform="translate(-74.74 -57.59)"/><path class="cls-4" d="M91.43,212.1s-.14,57.71-13.19,68.36c0,0,15.31-9.63,14.43-27.54" transform="translate(-74.74 -57.59)"/><path class="cls-4" d="M188.35,248.22a207.25,207.25,0,0,0-6.3,57.34s4.58-25.15,9.23-35.36" transform="translate(-74.74 -57.59)"/><path class="cls-5" d="M164.7,88s14.28-11.41,33.67,2.5" transform="translate(-74.74 -57.59)"/><path class="cls-5" d="M164.7,78.36s8.07-7.31,25,0" transform="translate(-74.74 -57.59)"/><path class="cls-5" d="M164.7,69.51s8.32-9.36,30.28,0" transform="translate(-74.74 -57.59)"/><path class="cls-5" d="M136.77,81.14c20.42-7.78,27.08,2.48,27.08,2.48" transform="translate(-74.74 -57.59)"/><path class="cls-5" d="M164.47,76.74s-3.4-10.16-23.89-5.57" transform="translate(-74.74 -57.59)"/><path class="cls-5" d="M217.84,120.49S229.7,167.94,209,227.94C193.88,271.8,205.57,279,205.57,279" transform="translate(-74.74 -57.59)"/><path class="cls-5" d="M223.7,207.51S206,274.07,235.32,298.07c0,0-16.17-35.35-6.81-62.81" transform="translate(-74.74 -57.59)"/><polygon class="cls-6" points="113.94 193.38 115.06 188.74 114.32 195.59 113.94 194.48 113.94 193.38"/><path class="cls-5" d="M107.12,326.24s32.4-10.13,21.07-67.66" transform="translate(-74.74 -57.59)"/><path class="cls-5" d="M97.78,175.44s15.65,50.5,9.87,74.31" transform="translate(-74.74 -57.59)"/><path class="cls-5" d="M111,199.45s12.5,41.41-5.37,72.06" transform="translate(-74.74 -57.59)"/><polygon class="cls-6" points="16.09 193.08 18.87 193.84 18.87 165.76 17.9 159.91 17.18 170.23 16.09 193.08"/><path class="cls-6" d="M91.83,228.16" transform="translate(-74.74 -57.59)"/><path class="cls-5" d="M125.79,95.1s-11.15,13-9.87,41.61" transform="translate(-74.74 -57.59)"/><path class="cls-4" d="M235.78,135.55" transform="translate(-74.74 -57.59)"/><path class="cls-4" d="M238.52,258.58s5.84,32.68,15.44,39.49c0,0-6.47-4.68-14.22-21.18" transform="translate(-74.74 -57.59)"/><polygon class="cls-6" points="163.15 203.42 164.38 208.84 164.66 211.8 163.51 210.27 163.15 203.42"/><path class="cls-4" d="M214.22,151.36s-38.63-25.87-50.05-62.74c-3.49,11.28-9.54,21.53-16.24,30.32-2.09,2.74-4.24,5.34-6.39,7.78a78.65,78.65,0,0,0,.1-16.5,60.76,60.76,0,0,1-.9,7.93,51.86,51.86,0,0,1-4.64,14.41c-1.29,1.31-2.56,2.57-3.8,3.75a83.6,83.6,0,0,0-1.07-14.57,56.26,56.26,0,0,1-3.76,19,150.09,150.09,0,0,1-12.47,10l-.88.61c-.38-9.12-.47-17.41-.1-24.88,0-.26,0-.51,0-.76,1-18.91,5.11-32.56,15.33-41.5,11.17-9.77,27.75-10.86,34.6-10.86h1.32c7.34.1,23,1.51,33.63,10.85C213.32,96.79,215.57,118.67,214.22,151.36Z" transform="translate(-74.74 -57.59)"/><path class="cls-4" d="M140.74,118.15a39,39,0,0,1-3.17,14,32.57,32.57,0,0,1-6,9.16s.28-1.18.57-3.24a17.11,17.11,0,0,0,.17-1.74,83.6,83.6,0,0,0-1.07-14.57.22.22,0,0,0,0-.08c-.25-1.88-.54-3.85-.86-5.89-2.21-14.23.8-22.49.8-22.49l9.54,15.55.16.26s0,.43,0,1.13C140.76,111.75,140.94,114.62,140.74,118.15Z" transform="translate(-74.74 -57.59)"/><path class="cls-4" d="M149.5,109.44a51.31,51.31,0,0,1-1.57,9.5c-1.25,4.81-3.48,10.46-7.46,14.39a61,61,0,0,0,1.07-6.61,78.65,78.65,0,0,0,.1-16.5c0-.26,0-.52-.08-.78l-.06-.61c-1.65-16,4-24.61,4-24.61Z" transform="translate(-74.74 -57.59)"/><path class="cls-4" d="M158.65,73.45s-1.29,40.62,17.65,50.4c0,0-2.48-13.94,1-22.88" transform="translate(-74.74 -57.59)"/><path class="cls-4" d="M167.14,73.45s1.29,40.62-17.65,50.4c0,0,2.48-13.94-1-22.88" transform="translate(-74.74 -57.59)"/><path class="cls-4" d="M131.23,121.66v.08a56.26,56.26,0,0,1-3.76,19c-2.51,6.35-6.7,12.9-13.69,17.19,0,0,.66-2.91,1.22-7.2.87-6.66,1.49-16.67-1-24.27l-.24-.69.28-.07,17.16-4.06Z" transform="translate(-74.74 -57.59)"/><path class="cls-4" d="M120.45,96s-12,17.09-10.62,51.54c1.08,27.22-2.21,27.86-2.21,27.86s9.94-13.06,10.42-39.7" transform="translate(-74.74 -57.59)"/><path class="cls-4" d="M207.89,96s12,17.09,10.62,51.54c-1.08,27.22,2.21,27.86,2.21,27.86s-9.94-13.06-10.41-39.7" transform="translate(-74.74 -57.59)"/><polygon class="cls-6" points="45.55 40.63 48.01 36.25 46.36 42.31 45.09 41.84 45.55 40.63"/><polygon class="cls-6" points="43.64 68.8 43.8 65.35 55.35 63.17 55.44 65.44 43.64 68.8"/><polygon class="cls-6" points="56.79 38.23 57.91 33.57 65.56 48.69 65.12 52.01 56.79 38.23"/><polygon class="cls-6" points="70.25 29.96 71.95 26.29 74.41 42.5 72.78 45.98 70.25 29.96"/><path class="cls-4" d="M185,118.15a39,39,0,0,0,3.17,14,32.57,32.57,0,0,0,6,9.16s-.28-1.18-.57-3.24a17.11,17.11,0,0,1-.17-1.74,83.6,83.6,0,0,1,1.07-14.57.22.22,0,0,1,0-.08c.25-1.88.54-3.85.86-5.89,2.21-14.23-.8-22.49-.8-22.49l-9.54,15.55-.16.26s0,.43,0,1.13C185,111.75,184.84,114.62,185,118.15Z" transform="translate(-74.74 -57.59)"/><path class="cls-4" d="M176.28,109.44a51.31,51.31,0,0,0,1.57,9.5c1.25,4.81,3.48,10.46,7.46,14.39a61,61,0,0,1-1.07-6.61,78.65,78.65,0,0,1-.1-16.5c0-.26.05-.52.08-.78l.06-.61c1.65-16-4-24.61-4-24.61Z" transform="translate(-74.74 -57.59)"/><path class="cls-4" d="M194.55,121.66v.08a56.26,56.26,0,0,0,3.76,19c2.51,6.35,6.7,12.9,13.69,17.19,0,0-.66-2.91-1.22-7.2-.87-6.66-1.49-16.67,1-24.27l.24-.69-.28-.07-17.16-4.06Z" transform="translate(-74.74 -57.59)"/><polygon class="cls-6" points="132.66 68.79 132.66 68.8 132.44 68.74 132.66 68.79"/><polygon class="cls-6" points="119.51 38.23 118.4 33.57 110.74 48.69 111.18 52.01 119.51 38.23"/><polygon class="cls-6" points="106.06 29.96 104.35 26.29 101.9 42.5 103.52 45.98 106.06 29.96"/><polygon class="cls-6" points="84.97 16.91 82.8 17.08 82.54 20.94 83.39 29.72 85.51 26.39 85.02 20.78 84.97 16.91"/><path class="cls-6" d="M166.38,96.87s.79-6.61-1.65-11.72l1.39-10.76,2.07.06.3,14.15Z" transform="translate(-74.74 -57.59)"/><path class="cls-6" d="M177.26,109.3s-1.69-10.68.31-11.32S180.06,107.43,177.26,109.3Z" transform="translate(-74.74 -57.59)"/><path class="cls-6" d="M213.78,136.51l-2.54-1.46.21-7.81a23,23,0,0,0-1.67,3l-2.38-3.82-.22,0L195.6,123l.09-2.27,11.55,2.18,4.28,1.44,1.84.37Z" transform="translate(-74.74 -57.59)"/></svg>