<svg id="Layer_1" data-name="Layer 1" xmlns="http://www.w3.org/2000/svg" viewBox="0 0 104.85 169.93"><defs><style>.cls-1{fill:#f2cfad;stroke:#4c2c17;}.cls-1,.cls-2{stroke-miterlimit:10;}.cls-1,.cls-2,.cls-3{stroke-width:2px;}.cls-2{fill:#fde3c7;stroke:#4d2c16;}.cls-3{fill:#b0642f;stroke:#4d2c14;stroke-linecap:round;stroke-linejoin:round;}</style></defs><title>hair_8</title><path class="cls-1" d="M182.52,195.45h-36.1s4.74,15.77-2,37.22c3.25,3.25,11.69,4.78,20.05,4.78s16.8-1.53,20.05-4.78C177.78,211.22,182.52,195.45,182.52,195.45Z" transform="translate(-112.06 -68.52)"/><path class="cls-2" d="M212.72,132.19c-.43-14.16-1.45-27.68-8.63-36.1-15.46-18.15-39.58-17.47-39.58-17.47s-24.13-.68-39.59,17.47c-7.18,8.42-8.2,21.94-8.63,36.1-.13,4.39-.66,9.31,0,13.66,1.31,9.07,3.27,24.78,8.14,37.76,1.93,5.15,5.85,11.52,10.58,15C156.9,215,173.7,214,194,198.65c4.72-3.56,8.66-9.89,10.59-15,4.87-13,6.82-28.69,8.14-37.76C213.39,141.5,212.86,136.58,212.72,132.19Z" transform="translate(-112.06 -68.52)"/><path class="cls-3" d="M164.51,75.77h-.13c-2.88.08-57.95,2.38-49.93,62.55L117,150.38s-10.92-69.58,47.4-69.76c58.33.18,47.41,69.76,47.41,69.76l2.59-12.06C222.46,78.15,167.38,75.85,164.51,75.77Z" transform="translate(-112.06 -68.52)"/><path class="cls-3" d="M215.91,106.41l-51.42-.26-6.75,0c-.07-3.45-.11-7.41-.11-7.41-2.16,2-2.76,5.22-3.67,7.43l-40.9.21c7.17-34.09,48.62-36.75,51.35-36.89h.15C167.29,69.66,208.74,72.32,215.91,106.41Z" transform="translate(-112.06 -68.52)"/><path class="cls-3" d="M132.55,106.31a30,30,0,0,1,4.22-13.82" transform="translate(-112.06 -68.52)"/><path class="cls-3" d="M184.13,105.41s1.91-9.32-2.81-16.73" transform="translate(-112.06 -68.52)"/><path class="cls-3" d="M193.06,105.41s.9-7.66-4.08-13.28" transform="translate(-112.06 -68.52)"/></svg>