<svg id="Layer_1" data-name="Layer 1" xmlns="http://www.w3.org/2000/svg" viewBox="0 0 180.21 272.18"><defs><style>.cls-1{fill:#89491d;}.cls-1,.cls-4,.cls-5{stroke:#4d2c14;stroke-linecap:round;stroke-linejoin:round;}.cls-1,.cls-2,.cls-3,.cls-4,.cls-5{stroke-width:2px;}.cls-2{fill:#f2cfad;stroke:#4c2c17;}.cls-2,.cls-3{stroke-miterlimit:10;}.cls-3{fill:#fde3c7;stroke:#4d2c16;}.cls-4,.cls-6{fill:#b0642f;}.cls-5{fill:none;}</style></defs><title>hair_4_fringe_1</title><path class="cls-1" d="M236.4,324l-145.11.62s18-20.51,17.16-143.81C107.62,64.4,158,77.1,163.59,78.94h0s56.53-22,55.65,101.25S236.4,324,236.4,324Z" transform="translate(-74.74 -57.59)"/><path class="cls-2" d="M182.52,195.45h-36.1s4.74,15.77-2,37.22c3.25,3.25,11.69,4.78,20.05,4.78s16.8-1.53,20.05-4.78C177.78,211.22,182.52,195.45,182.52,195.45Z" transform="translate(-74.74 -57.59)"/><path class="cls-3" d="M212.72,132.19c-.43-14.16-1.45-27.68-8.63-36.1-15.46-18.15-39.58-17.47-39.58-17.47s-24.13-.68-39.59,17.47c-7.18,8.42-8.2,21.94-8.63,36.1-.13,4.39-.66,9.31,0,13.66,1.31,9.07,3.27,24.78,8.14,37.76,1.93,5.15,5.85,11.52,10.58,15C156.9,215,173.7,214,194,198.65c4.72-3.56,8.66-9.89,10.59-15,4.87-13,6.82-28.69,8.14-37.76C213.39,141.5,212.86,136.58,212.72,132.19Z" transform="translate(-74.74 -57.59)"/><path class="cls-4" d="M164.73,60.81l-.18,32.72S96.06,66,132.25,206.59C163.74,329,115.7,328.77,115.7,328.77l-20.14-5.92c6.21-8.23,4.4-27.16,4.4-27.16-5.58,24.59-12.68,24.64-13,24.63h0L75.74,317S92,271,92.08,241.89C92.29,181.89,74.34,42.07,164.73,60.81Z" transform="translate(-74.74 -57.59)"/><path class="cls-4" d="M233,323c-5.38-5.33-13-17.14-13-17.14,2.7,13.62,8.53,18.46,8.53,18.46l-7,2.05C209.46,315.6,201,292.62,201,292.62c2.11,16,16.84,34.88,16.84,34.88l-4.34,1.27S165.45,329,197,206.59C233.14,66,164.55,93.53,164.55,93.53l.1-32.72c87.65-21.68,72.26,121.08,72.47,181.08C237.23,271,253.46,317,253.46,317Z" transform="translate(-74.74 -57.59)"/><path class="cls-4" d="M164.47,93.53s-23.35-.44-25.05,13.52C139.42,107.05,143.32,80.71,164.47,93.53Z" transform="translate(-74.74 -57.59)"/><path class="cls-4" d="M91.43,212.1s-.14,57.71-13.19,68.36c0,0,15.31-9.63,14.43-27.54" transform="translate(-74.74 -57.59)"/><path class="cls-4" d="M188.35,248.22a207.25,207.25,0,0,0-6.3,57.34s4.58-25.15,9.23-35.36" transform="translate(-74.74 -57.59)"/><path class="cls-5" d="M164.7,88s14.28-11.41,33.67,2.5" transform="translate(-74.74 -57.59)"/><path class="cls-5" d="M164.7,78.36s8.07-7.31,25,0" transform="translate(-74.74 -57.59)"/><path class="cls-5" d="M164.7,69.51s8.32-9.36,30.28,0" transform="translate(-74.74 -57.59)"/><path class="cls-5" d="M136.77,81.14c20.42-7.78,27.08,2.48,27.08,2.48" transform="translate(-74.74 -57.59)"/><path class="cls-5" d="M164.47,76.74s-3.4-10.16-23.89-5.57" transform="translate(-74.74 -57.59)"/><path class="cls-5" d="M217.84,120.49S229.7,167.94,209,227.94C193.88,271.8,205.57,279,205.57,279" transform="translate(-74.74 -57.59)"/><path class="cls-5" d="M223.7,207.51S206,274.07,235.32,298.07c0,0-16.17-35.35-6.81-62.81" transform="translate(-74.74 -57.59)"/><polygon class="cls-6" points="113.94 193.38 115.06 188.74 114.32 195.59 113.94 194.48 113.94 193.38"/><path class="cls-5" d="M107.12,326.24s32.4-10.13,21.07-67.66" transform="translate(-74.74 -57.59)"/><path class="cls-5" d="M97.78,175.44s15.65,50.5,9.87,74.31" transform="translate(-74.74 -57.59)"/><path class="cls-5" d="M111,199.45s12.5,41.41-5.37,72.06" transform="translate(-74.74 -57.59)"/><polygon class="cls-6" points="16.09 193.08 18.87 193.84 18.87 165.76 17.9 159.91 17.18 170.23 16.09 193.08"/><path class="cls-6" d="M91.83,228.16" transform="translate(-74.74 -57.59)"/><path class="cls-5" d="M125.79,95.1s-11.15,13-9.87,41.61" transform="translate(-74.74 -57.59)"/><path class="cls-4" d="M235.78,135.55" transform="translate(-74.74 -57.59)"/><path class="cls-4" d="M238.52,258.58s5.84,32.68,15.44,39.49c0,0-6.47-4.68-14.22-21.18" transform="translate(-74.74 -57.59)"/><polygon class="cls-6" points="163.15 203.42 164.38 208.84 164.66 211.8 163.51 210.27 163.15 203.42"/><path class="cls-4" d="M209.77,165.76s-1.63-16.76-4.53-33.13c-2.84-.95-6.38-2-10.55-2.94l-2.86-3-1,2.2-1.23-.24-.26-2.22L187,128.17c-1.9-.18-3.67-.52-6.61-.59,0,0-.2-9-2.68-12.75.27,3.79-1.13,11.67-1.13,11.67a100.3,100.3,0,0,0-18.5,0s-1.51-13.22-1-19.47c-2.87,5.36-3.26,19.73-3.26,19.73-.61,0-1.2.09-1.79.15l-.87-2.56-1.8,2.83c-.81.08-1.6.18-2.37.28,0,0-.8-10.48-.31-15.52-2.57,2.87-2.38,15.74-2.38,15.74-1.52.22-2,.45-3.4.7,0-2.24.14-4.46.14-4.46a21,21,0,0,0-2.13,4.83c-2.55.48-4.9,1-7,1.56l-4-7s-3.62,9.2-3.86,9.28c-2.9,16.37-4.53,33.13-4.53,33.13-5.9-16.29-7.38-37.4-6.44-48.14a55.89,55.89,0,0,1,7.22-23.44c11.07-18.86,28.52-21.06,37.63-20.75a34.35,34.35,0,0,1,6.76.21,34.35,34.35,0,0,1,6.76-.21c9.11-.31,26.56,1.89,37.63,20.75a55.89,55.89,0,0,1,7.22,23.44C217.15,128.36,215.67,149.47,209.77,165.76Z" transform="translate(-74.74 -57.59)"/><path class="cls-4" d="M129.67,123.42a140.4,140.4,0,0,0-5.85,23c-4-11.3-.41-27.78-.41-27.78" transform="translate(-74.74 -57.59)"/><path class="cls-4" d="M205.09,118.62s3.62,16.48-.41,27.78a140.4,140.4,0,0,0-5.85-23" transform="translate(-74.74 -57.59)"/><path class="cls-4" d="M134.65,124.58a33.84,33.84,0,0,0-3.45,10.36c-2.81-6-.9-13.59-.9-13.59" transform="translate(-74.74 -57.59)"/><path class="cls-5" d="M188,98.53s4.43,5.16,3.83,28.14" transform="translate(-74.74 -57.59)"/></svg>