<svg id="Layer_1" data-name="Layer 1" xmlns="http://www.w3.org/2000/svg" viewBox="0 0 108.66 188.87"><defs><style>.cls-1{fill:#f2cfad;stroke:#4c2c17;}.cls-1,.cls-2{stroke-miterlimit:10;}.cls-1,.cls-2,.cls-3,.cls-4,.cls-5{stroke-width:2px;}.cls-2{fill:#fde3c7;stroke:#4d2c16;}.cls-3{fill:#834c1d;}.cls-3,.cls-4,.cls-5{stroke:#4d2c14;stroke-linecap:round;stroke-linejoin:round;}.cls-4{fill:#b0642f;}.cls-5{fill:none;}</style></defs><title>hair_5</title><path class="cls-1" d="M182.52,195.45h-36.1s4.74,15.77-2,37.22c3.25,3.25,11.69,4.78,20.05,4.78s16.8-1.53,20.05-4.78C177.78,211.22,182.52,195.45,182.52,195.45Z" transform="translate(-110.83 -49.58)"/><path class="cls-2" d="M212.72,132.19c-.43-14.16-1.45-27.68-8.63-36.1-15.46-18.15-39.58-17.47-39.58-17.47s-24.13-.68-39.59,17.47c-7.18,8.42-8.2,21.94-8.63,36.1-.13,4.39-.66,9.31,0,13.66,1.31,9.07,3.27,24.78,8.14,37.76,1.93,5.15,5.85,11.52,10.58,15C156.9,215,173.7,214,194,198.65c4.72-3.56,8.66-9.89,10.59-15,4.87-13,6.82-28.69,8.14-37.76C213.39,141.5,212.86,136.58,212.72,132.19Z" transform="translate(-110.83 -49.58)"/><path class="cls-3" d="M114.7,143s2.66-15.78,6.23-20.88c0,0-1.38-23.15,11.73-31.49l-9.87-7.83S105.08,84.52,114.7,143Z" transform="translate(-110.83 -49.58)"/><path class="cls-3" d="M214.4,143s-.27-15.7-5.24-20.88c0,0,1.39-22.15-11.72-30.49l10.87-8.83S224,84.52,214.4,143Z" transform="translate(-110.83 -49.58)"/><path class="cls-4" d="M132.66,91.43s-10-15.72-8.43-29.39C124.23,62,106.62,90.58,132.66,91.43Z" transform="translate(-110.83 -49.58)"/><path class="cls-5" d="M144.64,65.5s15.59-22.24,36.56-12.41" transform="translate(-110.83 -49.58)"/><path class="cls-5" d="M205.07,64c-29.72-24.62-46.71,5.73-46.71,5.73" transform="translate(-110.83 -49.58)"/><path class="cls-5" d="M216.19,78.07c-2.81-27.45-38.81-7.41-38.81-7.41" transform="translate(-110.83 -49.58)"/><path class="cls-4" d="M216.19,78.71C217.08,67.84,206,63.62,206,63.62a37.54,37.54,0,0,0-23.22-9.94c-14.68-6-23.1-.65-23.1-.65s-34.32-3.18-34.32,23.4c0,30.11,34.32,16.32,34.32,16.32,9.57,8.55,32.08-1.23,32.08-1.23l-1.32,2.4C211,83.6,215.26,89.6,215.26,89.6,221.73,85.42,216.19,78.71,216.19,78.71Z" transform="translate(-110.83 -49.58)"/><path class="cls-5" d="M159.64,92.75s5.87,8.93,30.76-1.28c0,0,3.51-.7,0,2.45,0,0,20.31-9.68,24.2-4,0,0,7.59-3.47,1.59-10.74s-27.12,8.57-27.12,8.57-11.52,8.84-15.35,8.37" transform="translate(-110.83 -49.58)"/></svg>