<svg id="Layer_1" data-name="Layer 1" xmlns="http://www.w3.org/2000/svg" viewBox="0 0 122.02 173.96"><defs><style>.cls-1{fill:#f2cfad;stroke:#4c2c17;}.cls-1,.cls-2{stroke-miterlimit:10;}.cls-1,.cls-2,.cls-3,.cls-4{stroke-width:2px;}.cls-2{fill:#fde3c7;stroke:#4d2c16;}.cls-3{fill:#b0642f;}.cls-3,.cls-4{stroke:#4d2c14;stroke-linecap:round;stroke-linejoin:round;}.cls-4{fill:none;}</style></defs><title>hair_3</title><path class="cls-1" d="M182.52,195.45h-36.1s4.74,15.77-2,37.22c3.25,3.25,11.69,4.78,20.05,4.78s16.8-1.53,20.05-4.78C177.78,211.22,182.52,195.45,182.52,195.45Z" transform="translate(-101.33 -64.48)"/><path class="cls-2" d="M212.72,132.19c-.43-14.16-1.45-27.68-8.63-36.1-15.46-18.15-39.58-17.47-39.58-17.47s-24.13-.68-39.59,17.47c-7.18,8.42-8.2,21.94-8.63,36.1-.13,4.39-.66,9.31,0,13.66,1.31,9.07,3.27,24.78,8.14,37.76,1.93,5.15,5.85,11.52,10.58,15C156.9,215,173.7,214,194,198.65c4.72-3.56,8.66-9.89,10.59-15,4.87-13,6.82-28.69,8.14-37.76C213.39,141.5,212.86,136.58,212.72,132.19Z" transform="translate(-101.33 -64.48)"/><path class="cls-3" d="M215.74,101.73s-13.44-49.2-65-26.9C150.72,74.83,189.22,79.66,215.74,101.73Z" transform="translate(-101.33 -64.48)"/><path class="cls-3" d="M221,103.09c-5.17-26.58-30.73-27.11-34.71-27h0l-.54,0c.26.12.51.25.76.38,1.14,2.16,5.33,11.22,5.33,11.22a20.67,20.67,0,0,1,3.07,2.18l0,0c5.2,4.25,8.71,15.52,9.14,25.2a60.64,60.64,0,0,0,.92-10.37c7.13,16.52,7.15,44.52,7.15,44.52.41-1.29.8-2.54,1.17-3.78-.43,1.55-.74,2.41-.74,2.41S226.64,131.94,221,103.09Z" transform="translate(-101.33 -64.48)"/><path class="cls-3" d="M193.33,85.15c-.24-.47-4.61-25.08-46.61-18.57-34,5.28-41.27,29.62-43,34.72-1.48,4.42-3.78,25.7,5,41.58a58.26,58.26,0,0,1,5.17,12.4,115.6,115.6,0,0,0,3.72,11.27s-2.41-27.72,10.25-42.71c-7.92,16.29-4.94,25.71-4.62,25.94,5.08-16.31,14.26-30.7,23.49-37.13-2.45,6.11-4.71,16.82-4.71,16.82,12.11-18.22,34.14-33.27,34.14-33.27,1.24,8.19-6.4,14.53-6.64,14.8C186.62,102.64,196.08,88.69,193.33,85.15Z" transform="translate(-101.33 -64.48)"/><path class="cls-4" d="M146.72,112.65A52.55,52.55,0,0,1,162.13,93" transform="translate(-101.33 -64.48)"/><path class="cls-4" d="M176.15,96.2s8.23-5.49,6.19-11.62" transform="translate(-101.33 -64.48)"/><path class="cls-4" d="M172.68,70.83" transform="translate(-101.33 -64.48)"/><path class="cls-4" d="M205,104.72s-.52-7.82-3.14-12.48" transform="translate(-101.33 -64.48)"/></svg>