<svg xmlns="http://www.w3.org/2000/svg" viewBox="0 0 210.68 255.59"><defs><style>.cls-1,.cls-2{fill:#b6b197;}.cls-1,.cls-3{stroke:#7a7259;stroke-linecap:round;stroke-linejoin:round;stroke-width:2px;}.cls-3{fill:none;}.cls-4{fill:#a39e88;}</style></defs><title>водолазка</title><g id="turtleneck_1"><path class="cls-1" d="M315.22,449.75c-21.41,9.15-38.55,8.73-56.14,9.17l-6.84,0c-35.46-.63-59-10.17-59-10.17,11.37-70.3-16.06-192.94-16.06-192.94,18.91-11.26,39.1-18.57,51.16-24.09,3-3,52.28-1,52.28-1C296.05,237.05,332,256,332,256,302.64,390.89,315.22,449.75,315.22,449.75Z" transform="translate(-149.32 -206.8)"/><polygon class="cls-2" points="33.54 50.56 43.47 56.34 49.34 78.73 50.02 86.31 47 111.41 45.25 77.54 42.82 66.31 33.54 50.56"/><path class="cls-1" d="M291.52,231.16c-2.59-4.17-10.44-13.53-6.32-22.31,1-2.1-4.08-.77-8.63,1.46a43.47,43.47,0,0,1-8.28,3,56.73,56.73,0,0,1-28.74,0,43.47,43.47,0,0,1-8.28-3c-4.55-2.23-9.61-3.56-8.63-1.46,4.12,8.78-3.73,18.14-6.32,22.31a3.32,3.32,0,0,0,1,4.58,69.8,69.8,0,0,0,73.12,0A3.32,3.32,0,0,0,291.52,231.16Z" transform="translate(-149.32 -206.8)"/><path class="cls-3" d="M230.43,209.92s1.92,20.79-9.46,27.88" transform="translate(-149.32 -206.8)"/><path class="cls-3" d="M238.81,214.13S241,231,229.51,241.6" transform="translate(-149.32 -206.8)"/><path class="cls-3" d="M248.69,214.93s.1,25-7.58,29.39" transform="translate(-149.32 -206.8)"/><path class="cls-3" d="M277.15,209.92s-1.91,20.79,9.47,27.88" transform="translate(-149.32 -206.8)"/><path class="cls-3" d="M268.78,214.13s-2.21,16.85,9.3,27.47" transform="translate(-149.32 -206.8)"/><path class="cls-3" d="M257.9,214.93s.74,24,6.58,29.39" transform="translate(-149.32 -206.8)"/><path class="cls-4" d="M312,390.1s-4.68,4.55-18,2.63a.65.65,0,0,0-.52,1.15c3,2.39,9.72,6.47,18.22,3.46Z" transform="translate(-149.32 -206.8)"/><path class="cls-1" d="M287.23,387.06a99.46,99.46,0,0,0,26.22-5.34c7.78-2.84.44,11.46-13.11,10.45" transform="translate(-149.32 -206.8)"/><path class="cls-4" d="M196.93,398.88s28.07,8.53,43.6,7.87S262,405.32,262,405.32s-8.73,12.2-64.84.58Z" transform="translate(-149.32 -206.8)"/><path class="cls-1" d="M244.16,400.43s-26.46-.34-48.87-15.66c-3.48,5.73.34,12.59.34,12.59s36.2,14,65.82,7.83" transform="translate(-149.32 -206.8)"/><path class="cls-3" d="M220.6,424.6s51.68,11.23,79.71-6.13" transform="translate(-149.32 -206.8)"/><path class="cls-4" d="M246.81,332.34s18.33-1.72,25.12,1.06,23.34,9.87,31.26,9.86,13.28.14,13.28.14l-1.28,6.23s-22.27.45-40.21-10.82C265,332.55,246.81,332.34,246.81,332.34Z" transform="translate(-149.32 -206.8)"/><path class="cls-3" d="M246.81,332.34s20.73-2,29.6,2.72,30.72,10.18,40.22,7.47" transform="translate(-149.32 -206.8)"/><path class="cls-4" d="M196.16,348.86a73.73,73.73,0,0,0,34-3.8c17.23-6.51,27.19-7.48,27.19-7.48s2.62-.53,14.08,6.92,31,8.27,31,8.27-25.19,2.51-36.68-4.13-35.88.64-48.64,2.49S196.16,348.86,196.16,348.86Z" transform="translate(-149.32 -206.8)"/><path class="cls-3" d="M196.16,348.86s13.3,3.87,41.47-6.33,24.31-1.14,37.34,3.53a161.34,161.34,0,0,0,27.5,6.71" transform="translate(-149.32 -206.8)"/><path class="cls-4" d="M195.06,443.56s13.28-4.88,33.71-7.45,20.86-.81,33.19-2.55,20.68-3.18,20.68-3.18,8.3-.68,18.38-11.91a30.13,30.13,0,0,1-22.59,17.64c-17.36,3.25-76.66,8.91-84.12,12Z" transform="translate(-149.32 -206.8)"/><path class="cls-3" d="M199.34,441.83s24.32-6.79,44.4-7.08a204.78,204.78,0,0,0,38-4.37" transform="translate(-149.32 -206.8)"/><path class="cls-4" d="M205.36,360.6s3.79,21.44,22.28,24.17,37.52,5.35,45.71,9.48-12.91-21.06-26.54-22.93S214,368,205.36,360.6Z" transform="translate(-149.32 -206.8)"/><path class="cls-4" d="M259.91,371.32s37.78,1.34,53.86-8.15c0,0-10.85,17.19-20.51,18.18S259.91,371.32,259.91,371.32Z" transform="translate(-149.32 -206.8)"/><path class="cls-4" d="M311.79,423.65s-7.15,10.35-18.53,12.46,19.85,6.53,19.85,6.53Z" transform="translate(-149.32 -206.8)"/><path class="cls-4" d="M296.57,314s18,.7,19.61,12.4c.48,3.6-6-7-15.95-7C300.23,319.4,306.39,318.72,296.57,314Z" transform="translate(-149.32 -206.8)"/><path class="cls-4" d="M316.6,317.61s-8-15.13-17-15c0,0,11.28,8.31,8.82,10.86C308.41,313.43,317.1,322,316.6,317.61Z" transform="translate(-149.32 -206.8)"/><path class="cls-4" d="M310.63,298.91s4.72,2.14,5.84,4.94-4.22-3.43-6.1-3.47S311.17,300.14,310.63,298.91Z" transform="translate(-149.32 -206.8)"/><path class="cls-4" d="M192.56,318.62s4.38-13.57,13.57-14.05S193.51,311,192.89,324.5Z" transform="translate(-149.32 -206.8)"/><path class="cls-4" d="M193,325.39s1.84-4.81,9.5-8.39-8.35,6.39-9.35,11.75Z" transform="translate(-149.32 -206.8)"/></g><g id="turtleneck_1_sleeve_22" data-name="turtleneck_1;sleeve_22"><path class="cls-1" d="M332,256s23.92,7.71,27,102.21c0,0-20.3,26.59-39,4.12l-3.07-24.13S317.88,271.33,332,256Z" transform="translate(-149.32 -206.8)"/><path class="cls-4" d="M319.28,313.83a83.25,83.25,0,0,0,10.44-18.43c5-11.74,2.72,5.85-10.94,23.48Z" transform="translate(-149.32 -206.8)"/><path class="cls-4" d="M318.59,321.54S334.14,312.28,336,311s8.27-14,8.27-14-1.75,14.84-5.22,18.2-20.8,12.54-20.8,12.54Z" transform="translate(-149.32 -206.8)"/></g><g id="turtleneck_1_sleeve_2" data-name="turtleneck_1;sleeve_2"><path class="cls-1" d="M359,358.18s1.06,46.5-13.41,101.94c0,0-13.15,5.58-25.49-6.66,0,0-2.33-68.18-.1-91.16C320,362.3,333.7,344.87,359,358.18Z" transform="translate(-149.32 -206.8)"/><polygon class="cls-2" points="171.68 156.2 171.42 152.69 180.3 145.86 194.02 144.33 205.51 147.58 208.77 149.88 208.77 152.46 197.02 148.41 182.35 148.89 171.68 156.2"/><path class="cls-4" d="M320,388.24s9.64,5.8,25.08,8.19c7.48,1.15-4.91,2-25.08-1.9Z" transform="translate(-149.32 -206.8)"/><path class="cls-4" d="M357.17,381.67s-10.41,2.37-26.91-1.24,7.68,5.82,17.31,6.35,2.72,4.11-.08,4.11-2.3,2.84,8.7,3.31Z" transform="translate(-149.32 -206.8)"/><path class="cls-4" d="M357.76,349.63s-3.21,9-21.25,13.37,4.26,3,16.17-2.23-3.14,5.88-5.89,7c-3.92,1.53-13.1,2.92-10.79,3.6s6.81,1.7,17.19,0-2,4.25-2.89,4.25-3.68,2.9,7,1.2A242.29,242.29,0,0,0,357.76,349.63Z" transform="translate(-149.32 -206.8)"/></g><g id="turtleneck_1_sleeve_11" data-name="turtleneck_1;sleeve_11"><path class="cls-1" d="M177.32,256s-23.92,7.71-27,102.21c0,0,20.3,26.59,39,4.12l3.07-24.13S191.43,271.33,177.32,256Z" transform="translate(-149.32 -206.8)"/><path class="cls-4" d="M191.39,338.07s-19.78-15.56-18.77-35.5,3.27,26.13,18.65,31.07Z" transform="translate(-149.32 -206.8)"/><path class="cls-4" d="M190.85,342s-8.47-9.81-13.68-11.56,12.38,11.64,13.27,15.36Z" transform="translate(-149.32 -206.8)"/></g><g id="turtleneck_1_sleeve_1" data-name="turtleneck_1;sleeve_1"><path class="cls-1" d="M150.33,358.18s-1.06,46.5,13.42,101.94c0,0,13.15,5.58,25.49-6.66,0,0,2.33-68.18.09-91.16C189.33,362.3,175.61,344.87,150.33,358.18Z" transform="translate(-149.32 -206.8)"/><polygon class="cls-2" points="39 156.2 39.26 152.69 30.38 145.86 16.66 144.33 5.28 147.51 2.02 149.62 2.12 152.53 13.66 148.41 28.33 148.89 39 156.2"/><path class="cls-4" d="M188.94,374.7s-10.43,3.07-25.88-4.23c-13.31-6.3,18.34,4.17,25.79.85Z" transform="translate(-149.32 -206.8)"/><path class="cls-4" d="M189.06,378.23a.33.33,0,0,0-.5-.28c-2,1.17-9.94,5.39-18.25,4.43-9.41-1.08,2.86,4,13.3.41a.33.33,0,0,1,.41.46c-.63,1.14-2.38,3.24-6.85,3.73-6.16.68-.7,4.39,11.83-.75a.34.34,0,0,0,.21-.32Z" transform="translate(-149.32 -206.8)"/><path class="cls-4" d="M151.48,355.33s3.72,2.22,13.31.23,3.21,1.1,1.49,1.78-9.88,2.94-15,2.16Z" transform="translate(-149.32 -206.8)"/><path class="cls-4" d="M188.57,364.27s-7.93-10.53-31.8-12.57c0,0-2.06-4.31,11.87-.57s19.93,8.36,19.93,8.36Z" transform="translate(-149.32 -206.8)"/></g></svg>