<svg xmlns="http://www.w3.org/2000/svg" viewBox="0 0 210.2 247.24"><defs><style>.cls-1{fill:#fff;stroke:#222323;stroke-miterlimit:10;}.cls-1,.cls-2,.cls-5{stroke-linecap:round;stroke-width:2px;}.cls-2,.cls-6{fill:#353533;}.cls-2,.cls-5{stroke:#1a130c;stroke-linejoin:round;}.cls-3{fill:#1e1e1c;}.cls-4{fill:#d7d8d8;}.cls-5{fill:#d0d0d0;}</style></defs><title>кожанка</title><g id="leather-jacket_1"><path class="cls-1" d="M228.53,238.47s24.77,9.44,49.79,0l7.15,196.28s-31.15,5.81-60.77,0Z" transform="translate(-150.05 -217.68)"/><path class="cls-2" d="M275.51,219.57s20.51,22.21,56.16,35.64c0,0-30.82,121.39-18.43,175.51,0,0-14.36,15.41-40.33,19.12C272.91,449.84,272.08,304.68,275.51,219.57Z" transform="translate(-150.05 -217.68)"/><path class="cls-3" d="M320.22,253s-11.9,20.17-35.65,24.13l-4.46-5.75Z" transform="translate(-150.05 -217.68)"/><path class="cls-2" d="M304.25,241s29.9,2.86,31.95,16.45C334.28,256,319.8,249.07,304.25,241Z" transform="translate(-150.05 -217.68)"/><path class="cls-3" d="M309.07,289.36l-4.82,20.09S280.09,363.62,274,427.81c0,0-6.36-64.24,24.4-120.66Z" transform="translate(-150.05 -217.68)"/><path class="cls-3" d="M288.53,349.7a12.43,12.43,0,0,0,11.41,8.48s-11.75-1.84-14.47,3.95c0,0,0,6.13,16.5,7,0,0-17.06-1.92-20.08,4.66,0,0-1.19,7.42,4.94,9.12,0,0-4.32-2.38-8.37,2.73l1.8-11.39Z" transform="translate(-150.05 -217.68)"/><path class="cls-3" d="M313.74,333.13s-.78,11.52-8.18,18.19c0,0,4.09-1.28,5.26,16.34,0,0,1.39-13.15,3.44-22.34S313.74,333.13,313.74,333.13Z" transform="translate(-150.05 -217.68)"/><path class="cls-2" d="M284.06,227.38c9,10.24,29.82,22.27,35.31,25.56,0,0-21.68,19.15-38.46,19.83,0,0,12.59,13.27,28.16,16.59,0,0-40.48,87.65-36.16,153.48,0,0-4.79-121,2.06-216.26.32-4.45.59-6.49.59-7.9C275.56,218.68,281.37,224.32,284.06,227.38Z" transform="translate(-150.05 -217.68)"/><circle class="cls-4" cx="155.51" cy="35.72" r="3.6"/><circle class="cls-4" cx="148.32" cy="76.89" r="3.6"/><path class="cls-5" d="M310,358.89s-5.19,24.17-4.41,40.34H302s2.16-34.47,6.08-41Z" transform="translate(-150.05 -217.68)"/><path class="cls-5" d="M305.56,399.23s3.69,10.17-1.25,10.85-3.49-7.53-2.34-10.85Z" transform="translate(-150.05 -217.68)"/><path class="cls-2" d="M232.79,219.57s-20.51,22.21-56.16,35.64c0,0,30.82,121.39,18.43,175.51,0,0,14.35,15.41,40.32,19.12C235.38,449.84,236.22,304.68,232.79,219.57Z" transform="translate(-150.05 -217.68)"/><path class="cls-3" d="M218.77,349.7a12.43,12.43,0,0,1-11.41,8.48s11.75-1.84,14.47,3.95c0,0,0,6.13-16.5,7,0,0,17.06-1.92,20.07,4.66,0,0,1.19,7.42-4.93,9.12,0,0,4.31-2.38,8.37,2.73L227,374.23Z" transform="translate(-150.05 -217.68)"/><path class="cls-3" d="M194.89,332.44s.78,11.52,8.18,18.19c0,0-4.58-1.28-5.75,16.34,0,0-.9-13.15-2.94-22.34S194.89,332.44,194.89,332.44Z" transform="translate(-150.05 -217.68)"/><path class="cls-2" d="M204.05,241s-29.9,2.86-32,16.45C174,256,188.5,249.07,204.05,241Z" transform="translate(-150.05 -217.68)"/><path class="cls-3" d="M188.07,253s11.91,20.17,35.65,24.13l4.47-5.75Z" transform="translate(-150.05 -217.68)"/><path class="cls-3" d="M199.23,289.36l4.82,20.09s24.16,54.17,30.28,118.36c0,0,6.36-64.24-24.4-120.66Z" transform="translate(-150.05 -217.68)"/><path class="cls-2" d="M224.24,227.38c-9,10.24-29.83,22.27-35.31,25.56,0,0,21.67,19.15,38.45,19.83,0,0-12.58,13.27-28.15,16.59,0,0,40.48,87.65,36.15,153.48,0,0,4.8-121-2-216.26-.32-4.45-.59-6.49-.59-7.9C232.74,218.68,226.93,224.32,224.24,227.38Z" transform="translate(-150.05 -217.68)"/><circle class="cls-4" cx="52.69" cy="35.72" r="3.6"/><circle class="cls-4" cx="59.88" cy="76.89" r="3.6"/><path class="cls-5" d="M198.33,358.89s5.19,24.17,4.41,40.34h3.59s-2.17-34.47-6.08-41Z" transform="translate(-150.05 -217.68)"/><path class="cls-5" d="M202.74,399.23s-3.69,10.17,1.24,10.85,3.5-7.53,2.35-10.85Z" transform="translate(-150.05 -217.68)"/></g><g id="leather-jacket_1_sleeve_22" data-name="leather-jacket_1;sleeve_22"><path class="cls-2" d="M332.37,255.1s23.54,8.58,26.61,103.08c0,0-20.3,26.59-39,4.12L315.26,338S318.26,270.47,332.37,255.1Z" transform="translate(-150.05 -217.68)"/><path class="cls-3" d="M357.91,333.13s-8.52,11-18.66,14.36c0,0,12-6.64,18.66-3.06Z" transform="translate(-150.05 -217.68)"/><path class="cls-3" d="M340,264.45s-23.65,42.65-23.95,74.95l.42-18.5s2.07-43.27,15.65-64.75A22.4,22.4,0,0,1,340,264.45Z" transform="translate(-150.05 -217.68)"/></g><g id="leather-jacket_1_sleeve_2" data-name="leather-jacket_1;sleeve_2"><path class="cls-2" d="M359,358.18s3.06,46.5-11.41,101.94c0,0-15.79,10.58-28.49-6.66,0,0-1.33-68.18.9-91.16C320,362.3,333.7,344.87,359,358.18Z" transform="translate(-150.05 -217.68)"/><polygon class="cls-6" points="170.53 142.35 170.89 145.64 190.38 136.91 207.87 141.28 207.87 138.49 203.1 135.85 190.25 133.64 176.55 136.57 170.53 142.35"/><ellipse class="cls-4" cx="346.65" cy="443.44" rx="3.6" ry="1.78" transform="translate(-312.99 464.78) rotate(-77.11)"/><path class="cls-3" d="M317.43,343s4.34-.64,14.56-9.89c0,0-9.63,11.81-11.41,21,0,0,.59,4.68,13.24-4.43,0,0-11,9.65-11.82,14.82,0,0-2.09,3.39,14.26,3.14,0,0-11.7-.51-15.68,8.43,0,0-2.06,7.31,1.06,9.53s-1.85,3.83-1.85,3.83l-.32-12.79,1.47-13.34Z" transform="translate(-150.05 -217.68)"/><path class="cls-3" d="M355.82,418.21s-16,2-25.56,0c0,0,7.91,6.69,24.57,6.79Z" transform="translate(-150.05 -217.68)"/></g><g id="leather-jacket_1_sleeve_11" data-name="leather-jacket_1;sleeve_11"><path class="cls-2" d="M177.92,255.1s-23.54,8.58-26.6,103.08c0,0,20.29,26.59,39,4.12L195,338S192,270.47,177.92,255.1Z" transform="translate(-150.05 -217.68)"/><path class="cls-3" d="M170.3,264.43s23.28,42.67,23.58,75l-.43-18.5s-1.28-43.54-15.67-64.88C177.78,256,172.38,260.6,170.3,264.43Z" transform="translate(-150.05 -217.68)"/><path class="cls-3" d="M153.57,333.22s8.15,10.95,18.29,14.27c0,0-12.24-6.58-18.92-3Z" transform="translate(-150.05 -217.68)"/></g><g id="leather-jacket_1_sleeve_1" data-name="leather-jacket_1;sleeve_1"><path class="cls-2" d="M151.32,358.18s-3.07,46.5,11.41,101.94c0,0,15,11.57,27.68-5.67,0,0,2.14-69.17-.09-92.15C190.32,362.3,176.6,344.87,151.32,358.18Z" transform="translate(-150.05 -217.68)"/><polygon class="cls-6" points="39.67 142.35 39.31 145.64 19.82 136.91 2.33 141.28 2.33 138.49 7.1 135.85 19.95 133.64 33.65 136.57 39.67 142.35"/><ellipse class="cls-4" cx="163.65" cy="443.44" rx="1.78" ry="3.6" transform="translate(-244.83 -170.01) rotate(-12.89)"/><path class="cls-3" d="M174.13,367.34h1C174.51,367.32,174.13,367.34,174.13,367.34Z" transform="translate(-150.05 -217.68)"/><path class="cls-3" d="M193,342.7s-4.34-.64-14.57-9.89c0,0,9.63,11.81,11.41,21,0,0-.59,4.68-13.24-4.43,0,0,11,9.65,11.82,14.83,0,0,2,3.24-13.21,3.14,2.94.12,11.37,1.1,14.63,8.42,0,0,2.06,7.32-1.06,9.53s1.85,3.83,1.85,3.83l.32-12.79L189.45,363Z" transform="translate(-150.05 -217.68)"/><path class="cls-3" d="M155.28,418.21s16,2,25.56,0c0,0-7.9,6.69-24.56,6.79Z" transform="translate(-150.05 -217.68)"/></g></svg>