<svg xmlns="http://www.w3.org/2000/svg" viewBox="0 0 210.33 241.78"><defs><style>.cls-1,.cls-6{fill:#acd1db;}.cls-1,.cls-3{stroke:#45828b;stroke-linecap:round;stroke-linejoin:round;stroke-width:2px;}.cls-2{fill:#89b4b7;}.cls-3{fill:none;}.cls-4{fill:#45828b;}.cls-5{fill:#a3cad1;}</style></defs><title>рубашка</title><g id="shirt_1"><path class="cls-1" d="M316.82,445.75a157.12,157.12,0,0,1-58.88,13.17l-3.61-23.42-3,23.44c-34.11-.63-58.76-13.19-58.76-13.19,3.54-65.71-14.43-190.06-14.43-190.06,18.19-11.35,38.59-20.07,50.19-25.63h0s22.7,8.4,27.34,42c0,0-2.32-24.83,23-43,14.85,6.4,53.33,26.67,53.33,26.67C312,396,316.82,445.75,316.82,445.75Z" transform="translate(-149.92 -221.54)"/><path class="cls-2" d="M210.39,238.47s38.46,20.42,44.69,33.19.62.41.62.41-5.49-21-20.68-29.77S210.39,238.47,210.39,238.47Z" transform="translate(-149.92 -221.54)"/><path class="cls-2" d="M260.17,268.21s17.11-22.08,38.3-29.74l-14.81,1.15S255.06,255.7,260.17,268.21Z" transform="translate(-149.92 -221.54)"/><path class="cls-1" d="M202.86,230.43s7.39,2,14.22-5.58,31.85,2.64,37.34,42.72c0,0-20.8-26.8-33.82-27.31S202.86,230.43,202.86,230.43Z" transform="translate(-149.92 -221.54)"/><path class="cls-2" d="M261.62,260.23S271.28,319.15,257,446l-2.71-10.54s10-77.26,1.72-170.58Z" transform="translate(-149.92 -221.54)"/><path class="cls-1" d="M307,230.43s-7.39,2-14.22-5.58-31.85,2.64-37.34,42.72c0,0,20.8-26.8,33.83-27.31S307,230.43,307,230.43Z" transform="translate(-149.92 -221.54)"/><path class="cls-3" d="M255,267.57s10.84,60.14-.73,170.18" transform="translate(-149.92 -221.54)"/><path class="cls-3" d="M243.31,458.52s20.56-125.12,1.82-201.71" transform="translate(-149.92 -221.54)"/><path class="cls-3" d="M262.91,258.81s-4,15.32-4.05,48.68" transform="translate(-149.92 -221.54)"/><path class="cls-3" d="M257.62,402.51s5,33.53,13.34,55.64" transform="translate(-149.92 -221.54)"/><circle class="cls-4" cx="104.41" cy="69.84" r="1.72"/><circle class="cls-4" cx="106.75" cy="112.21" r="1.72"/><circle class="cls-4" cx="105.4" cy="160.23" r="1.72"/><circle class="cls-4" cx="101.37" cy="206.49" r="1.72"/><polygon class="cls-2" points="119.5 82.69 162.35 84.06 158.13 88.03 121.23 85.95 119.5 82.69"/><path class="cls-1" d="M269.41,304.23s21.82,6.47,42.86,1.37c0,0,9.43,38.38-24.62,37.45C261.19,342.32,269.41,304.23,269.41,304.23Z" transform="translate(-149.92 -221.54)"/><path class="cls-5" d="M269.66,323.65s18.17,29.49,41.91,1.5c0,0-3.21,17.3-20.12,17.3C277,342.45,271.79,337.06,269.66,323.65Z" transform="translate(-149.92 -221.54)"/><path class="cls-5" d="M251.16,334s-20.84-3.85-29.86-11.85c0,0,13.7,10.3,2.55,16.6C223.85,338.77,238.64,330.81,251.16,334Z" transform="translate(-149.92 -221.54)"/><path class="cls-5" d="M250,338.77l-11.23,7.36s-1.19-3.07-9,0Z" transform="translate(-149.92 -221.54)"/><path class="cls-5" d="M262,385s10.37,2.21,17.49,7.17c0,0,2.28-1.28,16.45-5.11C295.91,387.06,274.09,389.5,262,385Z" transform="translate(-149.92 -221.54)"/><path class="cls-5" d="M264.29,382.09l17-5s-3.87,4.15,4.49,3.29Z" transform="translate(-149.92 -221.54)"/><path class="cls-5" d="M246.13,290.64a47.06,47.06,0,0,1-18.9-10.55s5.62,9,2.56,10.55A47,47,0,0,1,246.13,290.64Z" transform="translate(-149.92 -221.54)"/><path class="cls-5" d="M246.13,377.87s-14.3,3.94-41.11-3.64c0,0,10.72,6.32,1.79,7.54S245.11,378.13,246.13,377.87Z" transform="translate(-149.92 -221.54)"/><path class="cls-5" d="M248.16,382.72S214,394.47,205,390.64c0,0,14.32,3.06,5.37,8.42Z" transform="translate(-149.92 -221.54)"/><path class="cls-5" d="M246.13,387.06l-22,12S245.11,392.68,246.13,387.06Z" transform="translate(-149.92 -221.54)"/></g><g id="shirt_1_sleeve_22" data-name="shirt_1;sleeve_22"><path class="cls-1" d="M332,255.69s23.92,8,27,102.49c0,0-20.3,26.59-39,4.12l-3.07-24.13S317.88,271.06,332,255.69Z" transform="translate(-149.92 -221.54)"/></g><g id="shirt_1_sleeve_2" data-name="shirt_1;sleeve_2"><path class="cls-1" d="M359,358.18s3.06,46.5-11.41,101.94c0,0-16.15,5.58-28.49-6.66,0,0-1.33-68.18.9-91.16C320,362.3,333.7,344.87,359,358.18Z" transform="translate(-149.92 -221.54)"/><path class="cls-2" d="M319.81,435.61s10.47,11.13,30.91,6.82L349.61,449l-29.63-7Z" transform="translate(-149.92 -221.54)"/><path class="cls-1" d="M347.43,460.58s3.55-11,6.88-14.71c0,0-27.12,2.9-38.19-9.53,0,0,.67,9.36,2.1,16.85S333.84,464.91,347.43,460.58Z" transform="translate(-149.92 -221.54)"/><polygon class="cls-6" points="171.09 141.46 170.83 137.95 179.7 131.12 193.43 129.59 204.91 132.84 208.17 135.14 208.17 137.72 196.43 133.67 181.75 134.15 171.09 141.46"/></g><g id="shirt_1_sleeve_11" data-name="shirt_1;sleeve_11"><path class="cls-1" d="M178.17,255.69s-23.92,8-27,102.49c0,0,20.29,26.59,39,4.12l3.07-24.13S192.29,271.06,178.17,255.69Z" transform="translate(-149.92 -221.54)"/></g><g id="shirt_1_sleeve_1" data-name="shirt_1;sleeve_1"><path class="cls-1" d="M151.19,358.18s-3.07,46.5,11.41,101.94c0,0,16.15,5.58,28.49-6.66,0,0,1.33-68.18-.91-91.16C190.18,362.3,176.46,344.87,151.19,358.18Z" transform="translate(-149.92 -221.54)"/><path class="cls-2" d="M159.32,441.32s12.71,7.5,31.1-6.36l-.3,7.84a44.34,44.34,0,0,1-29.62,5.07Z" transform="translate(-149.92 -221.54)"/><path class="cls-1" d="M162.73,460.58s-3.55-11-6.87-14.71c0,0,27.11,2.9,38.18-9.53,0,0-.66,9.36-2.09,16.85S176.32,464.91,162.73,460.58Z" transform="translate(-149.92 -221.54)"/><polygon class="cls-6" points="39.25 141.46 39.51 137.95 30.63 131.12 16.91 129.59 5.42 132.84 2.17 135.14 2.17 137.72 13.91 133.67 28.58 134.15 39.25 141.46"/></g></svg>