<svg xmlns="http://www.w3.org/2000/svg" viewBox="0 0 218.01 264.13"><defs><style>.cls-1,.cls-3{fill:#897b68;}.cls-1{stroke:#332f22;stroke-linecap:round;stroke-linejoin:round;stroke-width:2px;}.cls-2{fill:#7c6c5c;}</style></defs><title>свитер</title><g id="sweater_1"><path class="cls-1" d="M195,411.62s1.59,14.64,2.25,19.29c0,0,54,26.6,116.23-2,0,0,.16-9.87,2-15.21S313,411,313,411l-116-1Z" transform="translate(-146.34 -201.87)"/><path class="cls-2" d="M196.79,418.28s57.41,32.16,116.52.09l1.23-5s-51.51,26.82-118.3,1Z" transform="translate(-146.34 -201.87)"/><path class="cls-1" d="M315.45,413c-21.41,9.16-38.78,11.5-56.37,11.94l-6.84,0c-35.46-.63-55.36-11.41-55.36-11.41-15.43-6.68-19.27-157.37-19.27-157.37,18.91-11.29,38.66-20.18,50.72-25.71,3-3,52.28-1,52.28-1,15.44,6.36,51,26,51,26C329.59,402.45,315.45,413,315.45,413Z" transform="translate(-146.34 -201.87)"/><path class="cls-1" d="M293.42,205.53l-2-.45c-21.64-3.1-52.31-2.93-73.94.45h0a1.84,1.84,0,0,0-1.7,2.5c3.47,9.71-2.24,25.2-3.45,29.82,42.82,30,86.62.87,86.62.87s-9.51-22.42-4.83-32A.81.81,0,0,0,293.42,205.53Z" transform="translate(-146.34 -201.87)"/><path class="cls-2" d="M187.62,381.19s21.49,32.5,103.7,27.61c0,0-72.08,10.06-100.87-11.45Z" transform="translate(-146.34 -201.87)"/><path class="cls-2" d="M326.07,356.36S296.24,377,253.33,376.47c0,0,53.31,5.23,71.33-6.58Z" transform="translate(-146.34 -201.87)"/><path class="cls-2" d="M323,381s-8.45,14.76-32.33,16c0,0,19,5.69,30.5-4Z" transform="translate(-146.34 -201.87)"/><path class="cls-2" d="M217.82,211s23.86-6.4,62-2.76c0,0-59.1-1-61.78,11.63Z" transform="translate(-146.34 -201.87)"/><path class="cls-2" d="M291.7,215.87s-9.08,11.27-58.28,11.27c0,0,27.77,5.14,56.49-1.28,0,0-11,9.29-22.85,10,0,0,9.13,1.09,27.9-5.8A85,85,0,0,1,291.7,215.87Z" transform="translate(-146.34 -201.87)"/><path class="cls-2" d="M220,235.26s22.52,8.68,46.4,5-5.09,5-22.46,2.55S220,235.26,220,235.26Z" transform="translate(-146.34 -201.87)"/><path class="cls-2" d="M229.45,218.71s16.93,5.08,40.93-2.84C270.38,215.87,249.19,228,229.45,218.71Z" transform="translate(-146.34 -201.87)"/></g><g id="sweater_1_sleeve_22" data-name="sweater_1;sleeve_22"><path class="cls-1" d="M331.59,255.37s24.32,8.31,27.39,102.81c0,0-20.3,26.59-39,4.12L315.26,338S317.48,270.74,331.59,255.37Z" transform="translate(-146.34 -201.87)"/><path class="cls-2" d="M345.79,277.9s-18,12.14-20.26,42.78c0,0,7.88-30.53,23.12-33.91Z" transform="translate(-146.34 -201.87)"/></g><g id="sweater_1_sleeve_2" data-name="sweater_1;sleeve_2"><path class="cls-1" d="M348.64,444.61l-3.56,17.64s-15.63,7.75-26.25-2.76l-.71-17.25Z" transform="translate(-146.34 -201.87)"/><path class="cls-2" d="M319.48,449.5s7.87,8.62,26.28,4.36l1.38-6.51-28.06-3.73Z" transform="translate(-146.34 -201.87)"/><path class="cls-1" d="M359,357.43s9.36,50.05.51,76c-3.47,10.16-12,17.63-27.34,15.28-10.57-1.61-14-6-18-11.33,0,0-9-11.35,5.81-76.4C320,360.94,333.77,346.1,359,357.43Z" transform="translate(-146.34 -201.87)"/><polygon class="cls-3" points="174.56 159.79 174 156.72 184.64 149.45 199.45 149.45 211.36 153.7 211.77 157.35 197.66 154.21 184.64 154.6 174.56 159.79"/><path class="cls-2" d="M318.89,351.32s10.47,4,18.68,2l8.22-2s-18.64,10.21-25.45,7.28Z" transform="translate(-146.34 -201.87)"/><path class="cls-2" d="M320.87,361.47s4.85,7.47,16.25,6.19c0,0-11.36,4.31-17.42-.8Z" transform="translate(-146.34 -201.87)"/><path class="cls-2" d="M313,409.67s3.16,15.48,34.16,18.14c0,0-24.65,3.74-34.68-7.93Z" transform="translate(-146.34 -201.87)"/><path class="cls-2" d="M312.77,426.45s12.55,23.52,44.76,9.34c0,0-7,16.35-25.42,12.53S313,431.66,312.77,426.45Z" transform="translate(-146.34 -201.87)"/></g><g id="sweater_1_sleeve_11" data-name="sweater_1;sleeve_11"><path class="cls-1" d="M179,255.37s-24.32,8.31-27.38,102.81c0,0,20.29,26.59,39,4.12L195.38,338S193.16,270.74,179,255.37Z" transform="translate(-146.34 -201.87)"/><path class="cls-2" d="M164.82,278s18,12.15,20.26,42.78c0,0-7.88-30.53-23.12-33.9Z" transform="translate(-146.34 -201.87)"/></g><g id="sweater_1_sleeve_1" data-name="sweater_1;sleeve_1"><path class="cls-1" d="M160,444.61l3.56,17.64s15.64,7.75,26.25-2.76l.71-17.25Z" transform="translate(-146.34 -201.87)"/><path class="cls-2" d="M189.26,450.61s-10.23,10.27-26.46,3l-1.41-6.83,28-1.7Z" transform="translate(-146.34 -201.87)"/><path class="cls-1" d="M151.66,357.43s-9.36,50.05-.51,76c3.47,10.16,12,17.63,27.33,15.28,10.58-1.61,14-6,18-11.33,0,0,9-11.35-5.81-76.4C190.65,360.94,176.93,346.1,151.66,357.43Z" transform="translate(-146.34 -201.87)"/><polygon class="cls-3" points="43.39 159.79 43.95 156.72 33.31 149.45 18.5 149.45 6.59 153.7 6.18 157.35 20.29 154.21 33.31 154.6 43.39 159.79"/><path class="cls-2" d="M191.69,351.85s-10.47,4-18.68,2l-8.22-2s18.64,10.21,25.45,7.28Z" transform="translate(-146.34 -201.87)"/><path class="cls-2" d="M197.69,409.26s-3.24,15.46-34.24,18.12c0,0,24.65,3.74,34.68-7.94Z" transform="translate(-146.34 -201.87)"/><path class="cls-2" d="M198,426.45s-12.56,23.52-44.77,9.34c0,0,7,16.35,25.42,12.53S197.74,431.66,198,426.45Z" transform="translate(-146.34 -201.87)"/><path class="cls-2" d="M189.76,361.47s-4.85,7.47-16.24,6.19c0,0,11.36,4.31,17.41-.8Z" transform="translate(-146.34 -201.87)"/></g></svg>