<svg xmlns="http://www.w3.org/2000/svg" viewBox="0 0 222.89 229.41"><defs><style>.cls-1{fill:#f3f1e9;}.cls-1,.cls-3{stroke:#494847;stroke-linecap:round;stroke-linejoin:round;stroke-width:2px;}.cls-2{fill:#e8e7e2;}.cls-3{fill:none;}</style></defs><title>футболка</title><g id="t-shirt_1"><path class="cls-1" d="M331.91,256.26C313.24,335,316.22,445.47,316.22,445.47c-21.41,9.16-39.55,12.65-57.14,13.09l-6.84,0c-35.46-.63-59-13.11-59-13.11,5.41-51.38-16.75-189.38-16.75-189.38,18.45-11,38.48-18.86,50.94-24.58,4.85,5.67,15.46,9.61,27.77,9.61,12.54,0,23.32-4.09,28.05-9.94C300.32,238.65,331.91,256.26,331.91,256.26Z" transform="translate(-142.68 -230.18)"/><path class="cls-2" d="M195.77,364.85s10.27,14.3,24.06,16.6,39.57,5.87,39.57,5.87-43.14,5.36-50,2.81S193,381,193,381l-2.38-25.06Z" transform="translate(-142.68 -230.18)"/><path class="cls-3" d="M216.56,237.18s10.44,14.44,37.53,14.44,39-14.44,39-14.44" transform="translate(-142.68 -230.18)"/><path class="cls-2" d="M278.66,293.83s-17.75,26-23.49,30.13S228.74,339,228.74,339s23.13-15.2,32.94-11.23c33.45,13.53,1.79-3.58,1.79-3.58S274.19,299.7,278.66,293.83Z" transform="translate(-142.68 -230.18)"/><path class="cls-2" d="M253.13,406.49s33.6,0,53.23-12.51c0,0-7.32,15.57-16.25,17.36S253.13,406.49,253.13,406.49Z" transform="translate(-142.68 -230.18)"/><path class="cls-2" d="M215.25,402.23s32.17,16.08,67.66,13.27C282.91,415.5,229.93,423.93,215.25,402.23Z" transform="translate(-142.68 -230.18)"/></g><g id="t-shirt_1_sleeve_2" data-name="t-shirt_1;sleeve_2"><path class="cls-1" d="M329.32,254.81S342.21,259,352,288.26c6.52,19.57,12.61,56.25,12.61,56.25s-19,15.58-50.26,4.76c0,0,.75-21.1,1.82-42.29" transform="translate(-142.68 -230.18)"/><path class="cls-3" d="M314.62,341.1s27.12,7.48,48.5-4.79" transform="translate(-142.68 -230.18)"/><path class="cls-2" d="M316.77,322.33s5.44-24.69,7.32-29.59c2.23-5.86-7.32,12.77-7.32,12.77Z" transform="translate(-142.68 -230.18)"/></g><g id="t-shirt_1_sleeve_1" data-name="t-shirt_1;sleeve_1"><path class="cls-1" d="M178.93,254.81S166,259,156.29,288.26c-6.52,19.57-12.61,56.25-12.61,56.25s19,15.58,50.27,4.76c0,0-.93-21.22-1.83-42.29" transform="translate(-142.68 -230.18)"/><path class="cls-3" d="M193.64,341.1s-27.12,7.48-48.5-4.79" transform="translate(-142.68 -230.18)"/><path class="cls-2" d="M191.07,306.71s-12.57-6.31-15.16-15.22c0,0,4.54,10.12.57,12.07,0,0,12.29,1.17,14.75,5.45Z" transform="translate(-142.68 -230.18)"/></g></svg>