<svg xmlns="http://www.w3.org/2000/svg" viewBox="0 0 217.05 239.09"><defs><style>.cls-1,.cls-5{fill:#4b8266;}.cls-1,.cls-3,.cls-4,.cls-6{stroke:#335643;stroke-width:2px;}.cls-1,.cls-3,.cls-4{stroke-miterlimit:10;}.cls-2{fill:#437559;}.cls-3,.cls-4,.cls-6{fill:none;}.cls-3,.cls-6{stroke-linecap:round;}.cls-6{stroke-linejoin:round;}.cls-7{fill:#335643;}</style></defs><title>худи</title><g id="hoodie_1_body" data-name="hoodie_1;body"><path class="cls-1" d="M194,415.62s-.41,14.64.25,19.29c0,0,68.49,25.16,119.23-1,1,.24,2.19-10.36,2-16.21-.2-5.64-2.46-2.69-2.46-2.69l-116-1Z" transform="translate(-145.7 -217.61)"/><path class="cls-2" d="M194.75,422.72s60.39,32.72,119.5.66l.29-5S261.76,444,195,418.13Z" transform="translate(-145.7 -217.61)"/><path class="cls-1" d="M315.24,417.67c-21.41,9.4-38.78,11.79-56.37,12.25l-6.84,0c-35.46-.65-55.36-11.71-55.36-11.71-15.43-6.85-18.81-161.3-18.81-161.3,28.73-17.57,44.27-20.81,56.26-26.44,4.65-1.72,41.28-1.06,41.28-1.06,15.44,6.52,56,26.62,56,26.62C329.38,406.87,315.24,417.67,315.24,417.67Z" transform="translate(-145.7 -217.61)"/><path class="cls-2" d="M295,351.16s5.86,23.13,17.31,40.88C312.29,392,291.06,377.29,295,351.16Z" transform="translate(-145.7 -217.61)"/><path class="cls-2" d="M213.62,351.16s-5.47,23.9-17.37,39.9C196.25,391.06,217.7,377.29,213.62,351.16Z" transform="translate(-145.7 -217.61)"/><path class="cls-3" d="M294.19,351.32c-17.45,4.74-39.92,4.72-39.92,4.72h0s-22.47,0-39.92-4.72c0,0,1,20.82-18.1,40.72,0,0,2.18,16.84,4.23,22.37a184,184,0,0,0,53.41,8.45h.76a184,184,0,0,0,53.41-8.45c2.05-5.53,4.23-22.37,4.23-22.37C293.21,372.14,294.19,351.32,294.19,351.32Z" transform="translate(-145.7 -217.61)"/><path class="cls-2" d="M255.62,276.13s27.53-8.56,44.89-32.3l-1.15-5-8.17.89L255.57,272l-41.36-33.19-5.74,2.68S223.11,268.85,255.62,276.13Z" transform="translate(-145.7 -217.61)"/><path class="cls-1" d="M254.3,218.61h0c-65.37,0-61.75,30-61.75,30l19.06-6.89a4,4,0,0,1,4.6,1.45c16.86,24.21,39,31,39,31s21.35-6.78,38.14-31a4,4,0,0,1,4.6-1.46l19.06,6.89S319.67,218.61,254.3,218.61Z" transform="translate(-145.7 -217.61)"/><path class="cls-4" d="M196.94,392" transform="translate(-145.7 -217.61)"/><path class="cls-3" d="M207.25,388.49a31.32,31.32,0,0,1-5.57,5.23" transform="translate(-145.7 -217.61)"/><path class="cls-3" d="M213.11,380a52.52,52.52,0,0,1-3.75,5.82" transform="translate(-145.7 -217.61)"/><path class="cls-3" d="M217.82,369.14a64.38,64.38,0,0,1-3,7.57" transform="translate(-145.7 -217.61)"/><path class="cls-3" d="M220.47,357.45a53.76,53.76,0,0,1-1.42,7.46" transform="translate(-145.7 -217.61)"/><path class="cls-3" d="M299.84,388.49a31,31,0,0,0,5.57,5.23" transform="translate(-145.7 -217.61)"/><path class="cls-3" d="M294,380a51.11,51.11,0,0,0,3.75,5.82" transform="translate(-145.7 -217.61)"/><path class="cls-3" d="M289.26,369.14a64.53,64.53,0,0,0,3,7.57" transform="translate(-145.7 -217.61)"/><path class="cls-3" d="M286.62,357.45a52.63,52.63,0,0,0,1.41,7.46" transform="translate(-145.7 -217.61)"/><path class="cls-3" d="M277.2,415.46c3.13-.41,6.3-.92,9.48-1.55" transform="translate(-145.7 -217.61)"/><path class="cls-3" d="M292.41,412.94c3.09-.66,6.2-1.41,9.33-2.29" transform="translate(-145.7 -217.61)"/><path class="cls-3" d="M262.39,416.71c3.39-.13,6.86-.37,10.38-.73" transform="translate(-145.7 -217.61)"/><path class="cls-3" d="M247.24,416.67c3.3.15,6.72.21,10.24.17" transform="translate(-145.7 -217.61)"/><path class="cls-3" d="M232,415.41c3.14.39,6.5.72,10,1" transform="translate(-145.7 -217.61)"/><path class="cls-3" d="M216.81,413c3,.61,6.54,1.24,10.5,1.82" transform="translate(-145.7 -217.61)"/><path class="cls-3" d="M205.57,410.27s2.61.8,7.21,1.84" transform="translate(-145.7 -217.61)"/></g><g id="hoodie_1_hood" data-name="hoodie_1;hood"><path class="cls-5" d="M254.62,251.94s6.61-14.85,25.38-18.66c7.23-1.47-2.34,17.78-2.34,17.78Z" transform="translate(-145.7 -217.61)"/><path class="cls-6" d="M278.89,233.81c-16.08,1.76-23.27,15.45-23.27,15.45" transform="translate(-145.7 -217.61)"/><path class="cls-5" d="M256.57,251.94s-6.23-18.31-25.38-18.66c-5.4-.1-4.31,16.73-4.31,16.73Z" transform="translate(-145.7 -217.61)"/><path class="cls-6" d="M232.3,233.81c16.08,1.76,23.27,15.45,23.27,15.45" transform="translate(-145.7 -217.61)"/></g><g id="hoodie_1_lace" data-name="hoodie_1;lace"><line class="cls-6" x1="128.52" y1="32.5" x2="128.52" y2="73.84"/><ellipse class="cls-7" cx="128.52" cy="78.73" rx="2.47" ry="5.7"/><line class="cls-3" x1="90.98" y1="32.5" x2="90.98" y2="73.84"/><ellipse class="cls-7" cx="90.98" cy="78.73" rx="2.47" ry="5.7"/></g><g id="hoodie_1_sleeve_22" data-name="hoodie_1;sleeve_22"><path class="cls-1" d="M331.59,256.05s24.32,7.63,27.39,102.13c0,0-20.3,26.59-39,4.12L315.26,338S317.48,271.42,331.59,256.05Z" transform="translate(-145.7 -217.61)"/><path class="cls-2" d="M316.31,338.11s.29,1.72.54,2.52c1.19-3.94,5.43-21.62,10.21-28.12,0,0-7.24,8.21-10.29,16.13Z" transform="translate(-145.7 -217.61)"/></g><g id="hoodie_1_sleeve_2" data-name="hoodie_1;sleeve_2"><path class="cls-1" d="M351,436.13l-4.49,17.43s-16,6.91-26.06-4.13l.19-17.27Z" transform="translate(-145.7 -217.61)"/><path class="cls-2" d="M321.64,439.48s7.4,9,26,5.73l1.72-6.42-27.83-5.21Z" transform="translate(-145.7 -217.61)"/><path class="cls-1" d="M359,357.08s7.12,45.7-1.73,69.48c-3.48,9.34-9.55,14.24-25.1,14.3a20.07,20.07,0,0,1-13-4.22,16.12,16.12,0,0,1-5.77-10.41c-1.11-8.22-2.13-28.88,6.6-65.93C320,360.3,333.77,346.68,359,357.08Z" transform="translate(-145.7 -217.61)"/><polygon class="cls-5" points="175.21 144.05 174.64 140.99 185.28 133.71 200.09 133.71 212 137.97 212.42 141.62 198.3 138.48 185.28 138.86 175.21 144.05"/><path class="cls-2" d="M319.21,353.17A46.09,46.09,0,0,0,353.87,356s-20.08,12.57-33.53,8.93C320.34,364.91,321.09,361.19,319.21,353.17Z" transform="translate(-145.7 -217.61)"/></g><g id="hoodie_1_sleeve_11" data-name="hoodie_1;sleeve_11"><path class="cls-1" d="M179.57,256.17s-24.47,7.17-29.33,101.59c0,0,19.79,27,38.92,4.86l5.18-24.16S193.39,271.8,179.57,256.17Z" transform="translate(-145.7 -217.61)"/><path class="cls-2" d="M193.34,338.11s-5.28-18-10.86-25.6c0,0,7.36,4,10.41,11.87Z" transform="translate(-145.7 -217.61)"/></g><g id="hoodie_1_sleeve_1" data-name="hoodie_1;sleeve_1"><path class="cls-1" d="M157.74,435.79l4.49,17.43s16,6.91,26.07-4.13l-.2-17.27Z" transform="translate(-145.7 -217.61)"/><path class="cls-2" d="M187.12,439.14s-7.4,9-26,5.73l-1.72-6.42,27.83-5.21Z" transform="translate(-145.7 -217.61)"/><path class="cls-1" d="M150.19,356.7s-8.06,45.56.3,69.5c3.28,9.4,9.25,14.4,24.79,14.73a20.14,20.14,0,0,0,13.09-4,16.14,16.14,0,0,0,6-10.31c1.29-8.2,2.73-28.83-5.23-66C189.12,360.6,175.68,346.74,150.19,356.7Z" transform="translate(-145.7 -217.61)"/><polygon class="cls-5" points="42.55 144.36 43.17 141.31 32.67 133.83 17.87 133.55 5.87 137.58 5.39 141.22 19.56 138.35 32.57 138.98 42.55 144.36"/><path class="cls-2" d="M189.49,356.14c.21-1.09.49-2.44.87-4.05,0,0-9.22,6-20.05,2.89a41.65,41.65,0,0,0,9.07,3.61,34.64,34.64,0,0,1-18.1,1.15s13.32,6.86,27.59,5.17C188.87,364.91,188.41,362.08,189.49,356.14Z" transform="translate(-145.7 -217.61)"/></g></svg>