<svg xmlns="http://www.w3.org/2000/svg" viewBox="0 0 210.35 263.94"><defs><style>.cls-1{fill:#fff;stroke:#222323;stroke-miterlimit:10;}.cls-1,.cls-2{stroke-linecap:round;stroke-width:2px;}.cls-2,.cls-6{fill:#c49852;}.cls-2{stroke:#1a130c;stroke-linejoin:round;}.cls-3{fill:#87612d;}.cls-4{fill:#543816;}.cls-5{fill:#a27740;}</style></defs><title>жакет</title><g id="jacket_1"><path class="cls-1" d="M229.53,243.47s24.94,49.1,49.79,0l7.15,196.28s-31.15,5.81-60.77,0Z" transform="translate(-149.65 -221.68)"/><path class="cls-2" d="M234.41,224.57s-18.09,18.75-55.89,30.8c0,0,28.91,147.76,11.69,213.72-.87,3.35,1.7,6.66,5,7.65,5.33,1.57,14.85,5.85,24.75,7.62,12.08,2.16,24.07-9.6,23.28-30.38C241.65,411.4,243.18,313.79,234.41,224.57Z" transform="translate(-149.65 -221.68)"/><path class="cls-3" d="M216.36,298.34l2.48,13S240.56,380,242.3,401.74C242.3,401.74,240.8,349.37,216.36,298.34Z" transform="translate(-149.65 -221.68)"/><polygon class="cls-3" points="60.18 46.91 62.18 51.13 74.73 64.82 78.03 58.83 60.18 46.91"/><path class="cls-2" d="M225.18,232.38c-5.27,13.66-9.09,24.51-14.33,35.76l17.24,12.37S223.57,288,217,298c0,0,23.58,52.34,25,94,0,0-.92-65.11-7.77-160.4-.32-4.45-.59-7.49-.59-8.9C233.68,222.68,226.65,228.57,225.18,232.38Z" transform="translate(-149.65 -221.68)"/><circle class="cls-4" cx="83.65" cy="162.95" r="4.31"/><circle class="cls-4" cx="83.65" cy="198.2" r="4.31"/><path class="cls-2" d="M275.69,224.57s18.09,18.75,55.9,30.8c0,0-28.91,147.76-11.69,213.72.87,3.35-1.71,6.66-5,7.65-5.34,1.57-14.86,5.85-24.75,7.62C278,486.52,266,474.76,266.83,454,268.46,411.4,266.92,313.79,275.69,224.57Z" transform="translate(-149.65 -221.68)"/><polygon class="cls-3" points="149.54 46.91 147.54 51.13 134.46 64.34 131.69 58.83 149.54 46.91"/><path class="cls-3" d="M292.4,298l-2.13,13.09S270,375.77,268.85,397.6C268.85,397.6,266.8,352.34,292.4,298Z" transform="translate(-149.65 -221.68)"/><path class="cls-2" d="M284.24,232.38c5.27,13.66,9.1,24.51,14.33,35.76l-17.23,12.37S285.85,288,292.4,298c0,0-23,52.34-24.45,94,0,0,.35-65.11,7.2-160.4.32-4.45.59-7.49.59-8.9C275.74,222.68,282.78,228.57,284.24,232.38Z" transform="translate(-149.65 -221.68)"/><ellipse class="cls-4" cx="126.48" cy="162.95" rx="4.31" ry="0.99"/><path class="cls-5" d="M314.49,338.62s6,44.44-17.13,54.15c0,0,18.4-3.88,17.19,27.61,0,0-2.28-27.07,2.68-68.55Z" transform="translate(-149.65 -221.68)"/><path class="cls-5" d="M195.72,338s-6,44.45,17.13,54.15c0,0-18.41-3.88-17.19,27.61,0,0,2.27-27.07-2.69-68.55Z" transform="translate(-149.65 -221.68)"/><path class="cls-5" d="M312.44,401.74s-2.1,5.88-18.06,9.45l19.07-2.3S314.22,404.22,312.44,401.74Z" transform="translate(-149.65 -221.68)"/><path class="cls-5" d="M197.71,401.74s2.09,5.88,18,9.45l-19.07-2.3S195.93,404.22,197.71,401.74Z" transform="translate(-149.65 -221.68)"/><ellipse class="cls-4" cx="126.48" cy="198.2" rx="4.31" ry="0.75"/><path class="cls-2" d="M314.5,405.37s-4,4.93-19.35,6.29c0,0,.55,39,20.11,33.6C315.26,445.26,317.33,431.91,314.5,405.37Z" transform="translate(-149.65 -221.68)"/><path class="cls-2" d="M195.73,405.88s4,4.93,19.35,6.29c0,0-.55,39-20.11,33.6C195,445.77,192.9,432.43,195.73,405.88Z" transform="translate(-149.65 -221.68)"/></g><g id="jacket_1_sleeve_22" data-name="jacket_1;sleeve_22"><path class="cls-2" d="M331.27,255.37s24.32,8.31,27.39,102.81c0,0-20.3,26.59-39,4.12L314.93,338S317.16,270.74,331.27,255.37Z" transform="translate(-149.65 -221.68)"/></g><g id="jacket_1_sleeve_2" data-name="jacket_1;sleeve_2"><path class="cls-2" d="M358.66,358.18s2.58,59-6.39,101.25c0,0-24.63,9.09-37.34-8.15,0,0,2.5-66,4.73-89C319.66,362.3,333.38,344.87,358.66,358.18Z" transform="translate(-149.65 -221.68)"/><polygon class="cls-6" points="170.93 138.35 171.29 141.64 190.78 132.91 208.27 137.28 208.27 134.49 203.5 131.85 190.65 129.64 176.95 132.57 170.93 138.35"/><path class="cls-5" d="M317.47,421.12s4.49,20.07,37.68,15.14v2.29s-20.66,6.89-38.36-7.17Z" transform="translate(-149.65 -221.68)"/><path class="cls-2" d="M352.6,459.43s2.55,1.29,5.49-21.43c0,0-24.13,6-43.92-8.3,0,0,.51,16,1.09,21.58C315.26,451.28,325.4,468,352.6,459.43Z" transform="translate(-149.65 -221.68)"/><path class="cls-5" d="M319.79,356.3c3.64,2.36,4.56,3.57,14,6,0,0-11,.34-13.31,5.27A29.13,29.13,0,0,0,319.79,356.3Z" transform="translate(-149.65 -221.68)"/></g><g id="jacket_1_sleeve_11" data-name="jacket_1;sleeve_11"><path class="cls-2" d="M178.38,255.37S154.06,263.68,151,358.18c0,0,20.3,26.59,39,4.12L194.72,338S192.5,270.74,178.38,255.37Z" transform="translate(-149.65 -221.68)"/></g><g id="jacket_1_sleeve_1" data-name="jacket_1;sleeve_1"><path class="cls-2" d="M151,358.18s-2.58,59,6.39,101.25c0,0,24.63,9.09,37.34-8.15,0,0-2.5-66-4.73-89C190,362.3,176.27,344.87,151,358.18Z" transform="translate(-149.65 -221.68)"/><path class="cls-5" d="M192.48,421s-4.68,20.15-37.87,15.22v2.29s20.66,6.89,38.36-7.17Z" transform="translate(-149.65 -221.68)"/><polygon class="cls-6" points="39.74 138.35 39.39 141.64 19.9 132.91 2.41 137.28 2.41 134.49 7.17 131.85 20.02 129.64 33.73 132.57 39.74 138.35"/><path class="cls-2" d="M158.1,459.43s-2.55,1.29-5.49-21.43c0,0,24.13,6,43.92-8.3,0,0-.52,16-1.09,21.58C195.44,451.28,185.29,468,158.1,459.43Z" transform="translate(-149.65 -221.68)"/><path class="cls-5" d="M190.12,356.3c-3.63,2.36-4.56,3.57-14,6,0,0,11,.34,13.32,5.27A29,29,0,0,1,190.12,356.3Z" transform="translate(-149.65 -221.68)"/></g></svg>