<svg xmlns="http://www.w3.org/2000/svg" viewBox="0 0 218.12 358.55"><defs><style>.cls-1,.cls-5{fill:#734f29;}.cls-1,.cls-2,.cls-3,.cls-6,.cls-8{stroke:#1a130c;stroke-linecap:round;stroke-linejoin:round;stroke-width:2px;}.cls-2{fill:#563719;}.cls-3{fill:#694a24;}.cls-4{fill:#604224;}.cls-6{fill:none;}.cls-7{fill:#392614;}.cls-8{fill:#83542d;}.cls-9{fill:#764827;}</style></defs><title>шуба</title><g id="fur-coat_1_back" data-name="fur-coat_1;back"><path class="cls-1" d="M325.46,545.11c-19.48,9.38-137.58,3.06-137.58,3.06,0-67.34-10-292.06-10-292.06,17.21-11.55,41.76-24.54,52.74-30.2,2.7-3.1,47.58-1.06,47.58-1.06,14.05,6.51,52.27,29.15,52.27,29.15C327.29,434.75,325.46,545.11,325.46,545.11Z" transform="translate(-145.65 -192.7)"/><path class="cls-2" d="M339.2,224.77s-79.9-69.9-175.82,0L252.26,277Z" transform="translate(-145.65 -192.7)"/><path class="cls-3" d="M163.38,224.2" transform="translate(-145.65 -192.7)"/><path class="cls-4" d="M279.3,411.4s33.45,4.27,44.23-3.6L322,414.91l-39.11,3.24Z" transform="translate(-145.65 -192.7)"/><path class="cls-4" d="M231.74,411.4s-33.45,4.27-44.23-3.6l1.53,7.11,39.11,3.24Z" transform="translate(-145.65 -192.7)"/><path class="cls-1" d="M323.53,408.8s-8.29,15.36-44.23,3.6c0,0-3.57,57.7,24.78,58.21S323.53,408.8,323.53,408.8Z" transform="translate(-145.65 -192.7)"/><path class="cls-1" d="M188.1,408.8s8.29,15.36,44.23,3.6c0,0,3.57,57.7-24.78,58.21S188.1,408.8,188.1,408.8Z" transform="translate(-145.65 -192.7)"/><path class="cls-4" d="M282.89,445.52s19.83,39.38,40-.95c0,0-1.59,24.63-18.45,25S282.89,445.52,282.89,445.52Z" transform="translate(-145.65 -192.7)"/><path class="cls-4" d="M228.6,445.79s-19.83,39.11-40-1.22c0,0,1.59,24.74,18.45,25C225.19,469.9,228.6,445.79,228.6,445.79Z" transform="translate(-145.65 -192.7)"/><path class="cls-4" d="M269.11,346.16a121.09,121.09,0,0,0,40.85,0V350s-20.75,5.79-40.85,0C268.17,349.77,268.15,346,269.11,346.16Z" transform="translate(-145.65 -192.7)"/></g><g id="fur-coat_1_sleeve_22" data-name="fur-coat_1;sleeve_22"><path class="cls-1" d="M330.79,254s24.27-3,28.36,57.91c1.46,21.82,2.61,39.67,3.05,48.82.58,11.69-9.52,17-20.51,17.53-10.37.51-19.08-6-20.84-12C308.84,325.24,296.83,254.47,330.79,254Z" transform="translate(-145.65 -192.7)"/></g><g id="fur-coat_1_sleeve_2" data-name="fur-coat_1;sleeve_2"><path class="cls-1" d="M359.41,461.39a21.65,21.65,0,0,1-1.25,5.38h0c-2.78,7.44-9.55,12.66-17.38,12.72a45.44,45.44,0,0,1-25.72-7.5,20.6,20.6,0,0,1-8.57-20.87c3.76-20.74,11.4-64.35,12.94-84.42a20.62,20.62,0,0,1,6.95-14.06c7.28-6.29,18.57-12.11,31.57,3.51.78.94,4.75,3.07,4.82,13.09C362.87,386,362.16,434,359.41,461.39Z" transform="translate(-145.65 -192.7)"/><polygon class="cls-5" points="175.34 172.66 174.32 167.21 176.14 162.19 182.79 156.19 187.97 153.19 192.43 151.79 197.48 151.3 200.89 152.48 205.51 154.85 211.66 159.64 215.59 164.78 215.63 166.79 215.28 169.73 211.74 165.56 208.98 161.81 204.79 158.22 200.89 156 197.3 155.3 193.04 154.73 189.21 156.19 184.11 158.75 178.64 164.17 175.34 172.66"/><path class="cls-4" d="M359,355.61s-23-10.45-37.78,9.25l7.57-3.64a63.63,63.63,0,0,1,22.05.06S342.45,354.32,359,355.61Z" transform="translate(-145.65 -192.7)"/><path class="cls-6" d="M338.4,354s-14,2.19-18.47,13.45c0,0,7.24-9.08,18.76-7.34" transform="translate(-145.65 -192.7)"/><path class="cls-4" d="M357.31,465.57c-2.78,7.44-7.86,12.77-15.69,12.83-7.49.06-16.78-1.07-25.79-7a19.57,19.57,0,0,1-8.43-20.26S322.8,477.11,357.31,465.57Z" transform="translate(-145.65 -192.7)"/></g><g id="fur-coat_1_sleeve_11" data-name="fur-coat_1;sleeve_11"><path class="cls-1" d="M178.63,254s-24.27-3-28.35,57.91c-1.47,21.82-2.61,39.67-3.06,48.82-.57,11.69,9.53,17,20.51,17.53,10.38.51,19.09-6,20.85-12C200.59,325.24,212.6,254.47,178.63,254Z" transform="translate(-145.65 -192.7)"/></g><g id="fur-coat_1_sleeve_1" data-name="fur-coat_1;sleeve_1"><path class="cls-1" d="M146.67,369.24c-.12,16.77.59,64.77,3.34,92.15,1,10.19,9,18,18.65,18.11a45.48,45.48,0,0,0,25.72-7.5A20.63,20.63,0,0,0,203,451.12c-3.76-20.73-11.4-64.34-12.95-84.42a20.63,20.63,0,0,0-6.94-14.06c-7.28-6.28-18.58-12.11-31.57,3.51C150.71,357.09,146.73,359.22,146.67,369.24Z" transform="translate(-145.65 -192.7)"/><polygon class="cls-5" points="42.77 172.66 43.8 167.21 41.97 162.19 35.32 156.19 30.15 153.19 25.68 151.79 20.64 151.3 17.22 152.48 12.61 154.85 6.46 159.64 2.53 164.78 2.48 166.79 2.84 169.73 6.38 165.56 9.13 161.81 13.33 158.22 17.22 156 20.82 155.3 25.07 154.73 28.91 156.19 34 158.75 39.48 164.17 42.77 172.66"/><path class="cls-4" d="M149.14,355s23-10.46,37.78,9.25l-7.57-3.65a63.63,63.63,0,0,0-22,.06S165.66,353.7,149.14,355Z" transform="translate(-145.65 -192.7)"/><path class="cls-6" d="M171,354s14,2.19,18.48,13.45c0,0-7.25-9.08-18.76-7.34" transform="translate(-145.65 -192.7)"/><path class="cls-4" d="M151.51,464.66c2.51,7.54,8.25,13.4,16.07,13.74A42.75,42.75,0,0,0,192.75,472,19.56,19.56,0,0,0,201.91,452S185.58,477.45,151.51,464.66Z" transform="translate(-145.65 -192.7)"/></g><g id="fur-coat_1_collar" data-name="fur-coat_1;collar"><path class="cls-4" d="M315,277.6S257.11,317.7,243.62,350V320.93S304.51,270.19,315,277.6Z" transform="translate(-145.65 -192.7)"/><path class="cls-4" d="M187.6,277.6s54.47,35.35,56.33,60.53l.2-35.75S199.2,270.19,187.6,277.6Z" transform="translate(-145.65 -192.7)"/><path class="cls-4" d="M249.18,549.11l-6.09-.09c-7.79-68.42-4.79-229.28-4.79-229.28s4.95-1.9,4.95-.5l.88,112.67Z" transform="translate(-145.65 -192.7)"/><path class="cls-6" d="M249.83,550.22c-14.81-200.67,0-294.11,0-294.11" transform="translate(-145.65 -192.7)"/><ellipse class="cls-7" cx="108.69" cy="154.9" rx="7.02" ry="4.39"/><ellipse class="cls-7" cx="108.69" cy="208.49" rx="7.02" ry="4.39"/><ellipse class="cls-7" cx="109.69" cy="260.52" rx="7.02" ry="4.39"/><ellipse class="cls-7" cx="111.69" cy="315.17" rx="7.02" ry="4.39"/><path class="cls-8" d="M250.72,320.93s-2.84-2.67-7.42-6.69c-13.09-11.49-40.37-34-55.7-36.64,0,0-2.29-7,6.27-12.29,0,0-17.46-7.77-27.48,1.38,0,0-1.06-1.59-2.44-4.22-5.15-9.78-14.82-34,8.63-44.69C217.3,197.44,260.57,218.61,250.72,320.93Z" transform="translate(-145.65 -192.7)"/><path class="cls-8" d="M336.19,266.69l0,0c-10-9.12-27.46-1.36-27.46-1.36,8.56,5.27,6.27,12.29,6.27,12.29-18.82,3.2-61.94,43.14-69.58,50.33L244.23,329c-9.85-102.32,41-131.6,85.77-111.26C359.74,231.31,336.19,266.69,336.19,266.69Z" transform="translate(-145.65 -192.7)"/><path class="cls-9" d="M336.17,259.72l-.49,5.56c-10-9.12-28.08-.13-28.08-.13,8.56,5.27,6.63,11.49,6.63,11.49-18.82,3.2-61.36,43-69,50.2l-.7-8.33,1.26-8.81s3.66-.68,4,1.53l2.31-5.28,3.69,4.09-1.38-7.15,5.12,1.53-2-6.64,4.37,2.73v-7.83l1.36,2.72,2.58.34,1.33-6.47,3.41,3.41,3.83-4.6.5,2.72v-6.63l1.66.85,3.71-6.56h4.6l-1.37-6.38h2.22l2-3.23h5.45l-4.77-7.49,6.3,5.61-1.7-10.86,4.93,2.25L296.85,254l3.57.91,1.2-5.28,2.49,3.41v-7.17l3.12,8.13,2-10.67,4.07-3v8.63L318,244.4l-1.23,7.09,4.42-4.72-2,7.21,4.53-1.15,3.19-3.45-.74,6.73L330,253.7l.59,4.56,4.05-2.15v6.18Z" transform="translate(-145.65 -192.7)"/><path class="cls-9" d="M248,259.28a100,100,0,0,0-4.79,24.42c0,.41,0,.82,0,1.23l-.91,27c-13.09-11.49-38.37-32.32-53.7-34.93,0,0-1.71-6.61,6.85-11.88,0,0-18.6-9-28.62.15a42.74,42.74,0,0,1-2.57-4.32l-.79-3.61V250l3.43,6.16,1.7-3.77,1.53,4.35V253h6.44v-6.13l2.15,7.11a50.08,50.08,0,0,0,.43-5.81c-.17-.75.85-1.47.85-1.47l2.94.85v-4.94l1.83,9.1v-5.52l.68-5.92,4.26,7.11V245l4.59,2.42,1.42-5.63,2.85,5.45,2.37-4.42,1,11.18,2.4-3.86,3.22,6,2.38-4.28,1.7,7.55L215,255.1V262l.85-1.19,1.53,5,4.09,1.27,4.93-6.29-1.19,6.81h4.43V277s1.19-5.11,1.09-6.64,2.71-2.72,2.71-2.72l-.68,6.46v4.51l5.22-6.38h2l-1-3.74,2-.6,1.11,1.53,1.53-4.76h1.79v-6.32Z" transform="translate(-145.65 -192.7)"/></g></svg>