<svg id="Layer_2" data-name="Layer 2" xmlns="http://www.w3.org/2000/svg" viewBox="0 0 43.05 14.83"><defs><style>.cls-1{fill:#eaa28f;}.cls-2{fill:#dd9283;}.cls-3{fill:none;stroke:#4d2c14;stroke-linecap:round;stroke-miterlimit:10;stroke-width:2px;}</style></defs><title>4</title><path class="cls-1" d="M297.13,195.75c-15.35,4.07-18.84,3.58-19.08,3.54h0c-.23,0-3.72.53-19.06-3.54,0,0,6.59,10.21,19.06,10.21h0C290.52,206,297.13,195.75,297.13,195.75Z" transform="translate(-256.46 -192.55)"/><path class="cls-2" d="M286.82,193.53a47.44,47.44,0,0,0-17.88,0c-4.77,1-9.75,1.71-9.75,1.71a53.48,53.48,0,0,0,37.37,0S291.59,194.54,286.82,193.53Z" transform="translate(-256.46 -192.55)"/><path class="cls-3" d="M275.08,206.16a18.38,18.38,0,0,0,5.59,0" transform="translate(-256.46 -192.55)"/><path class="cls-3" d="M278.55,198.61c-16.89,0-19.8-3.37-19.8-3.37" transform="translate(-256.46 -192.55)"/><path class="cls-3" d="M297.47,195.24s-2,3.37-18.92,3.37" transform="translate(-256.46 -192.55)"/><line class="cls-3" x1="40.17" y1="1" x2="42.05" y2="3.62"/><line class="cls-3" x1="1" y1="3.62" x2="2.88" y2="1"/></svg>