<svg id="Layer_2" data-name="Layer 2" xmlns="http://www.w3.org/2000/svg" viewBox="0 0 72.52 13.53"><defs><style>.cls-1{fill:#fff;}.cls-2{fill:none;stroke:#4d2c14;stroke-linecap:round;stroke-miterlimit:10;stroke-width:2px;}.cls-3{fill:#4d2c14;}</style></defs><title>3</title><path class="cls-1" d="M244.67,201.2s-.09-3.61,4.17-5.26c1.64-.64,4-.64,7.16-.54,6.73.2,8.88-.33,12.22,3.19,0,0-4.39,8.36-10.86,8S249,206.32,244.67,201.2Z" transform="translate(-197.04 -194.19)"/><path class="cls-2" d="M244.27,201.75s3.38,5,11.3,5a13.8,13.8,0,0,0,13-8.13" transform="translate(-197.04 -194.19)"/><path class="cls-2" d="M244.27,201.75a9.25,9.25,0,0,1,4.48-6.25" transform="translate(-197.04 -194.19)"/><path class="cls-2" d="M263.84,195.32a14.71,14.71,0,0,1,4.71,3.09" transform="translate(-197.04 -194.19)"/><circle class="cls-3" cx="58.33" cy="5.62" r="4.62"/><path class="cls-2" d="M265.42,195.19l-1.58.13c-5.44.38-11.39.3-15.09.18-2.22-.07-3.62-.15-3.62-.15" transform="translate(-197.04 -194.19)"/><path class="cls-1" d="M221.6,201.2s.09-3.61-4.11-5.26c-1.62-.64-3.94-.64-7.07-.54-6.64.2-8.76-.33-12.06,3.19,0,0,4.34,8.36,10.72,8S217.31,206.32,221.6,201.2Z" transform="translate(-197.04 -194.19)"/><path class="cls-2" d="M198,198.41a14.33,14.33,0,0,1,4.65-3.09" transform="translate(-197.04 -194.19)"/><path class="cls-2" d="M217.58,195.5a9.31,9.31,0,0,1,4.42,6.25" transform="translate(-197.04 -194.19)"/><path class="cls-2" d="M222,201.75s-3.33,5-11.15,5A13.62,13.62,0,0,1,198,198.59" transform="translate(-197.04 -194.19)"/><ellipse class="cls-3" cx="14.01" cy="5.62" rx="4.56" ry="4.62"/><path class="cls-2" d="M221.15,195.35a158.9,158.9,0,0,1-20-.16" transform="translate(-197.04 -194.19)"/></svg>