<svg id="Layer_2" data-name="Layer 2" xmlns="http://www.w3.org/2000/svg" viewBox="0 0 72.85 14.3"><defs><style>.cls-1{fill:#fff;stroke:#4d2c14;stroke-linecap:round;stroke-miterlimit:10;stroke-width:2px;}.cls-2{fill:#4d2c14;}</style></defs><title>6</title><path class="cls-1" d="M244.93,203.21a2.06,2.06,0,0,1-.65-1.92c.51-2.44,2.68-7.62,12-7.86,8-.21,11,3.56,12.1,6.15.68,1.61-.16,3.38-2.1,4.33a21.12,21.12,0,0,1-9.29,1.81C250.22,205.72,246.79,205,244.93,203.21Z" transform="translate(-196.72 -192.42)"/><circle class="cls-2" cx="57.9" cy="7.36" r="4.63"/><path class="cls-1" d="M221.36,203.21a2.06,2.06,0,0,0,.65-1.92c-.51-2.44-2.68-7.62-12-7.86-8-.21-11,3.56-12.1,6.15-.68,1.61.17,3.38,2.11,4.33a21.07,21.07,0,0,0,9.28,1.81C216.07,205.72,219.5,205,221.36,203.21Z" transform="translate(-196.72 -192.42)"/><circle class="cls-2" cx="14.95" cy="7.36" r="4.63"/></svg>