<svg width="24" height="24" viewBox="0 0 24 24" fill="none" xmlns="http://www.w3.org/2000/svg">
<g clip-path="url(#clip0_56_903)">
<path fill-rule="evenodd" clip-rule="evenodd" d="M7.65801 10.448C5.97601 10.829 4.59701 11.428 3.71001 12.155C3.22501 12.553 3.04801 12.951 3.01001 13.272C2.96901 13.602 3.06301 13.946 3.28801 14.251C3.73401 14.852 4.68801 15.271 5.84801 14.793C8.54701 13.68 13.816 11.533 19.484 11.96C19.0536 11.6575 18.5948 11.3976 18.114 11.184C14.937 9.75 11.015 9.687 7.65801 10.448ZM18.938 9.362C20.64 10.13 22.108 11.283 22.9 12.916C22.9825 13.086 23.0151 13.2759 22.994 13.4637C22.973 13.6515 22.8992 13.8295 22.7811 13.9771C22.6631 14.1247 22.5056 14.2357 22.327 14.2975C22.1484 14.3592 21.956 14.3691 21.772 14.326C15.815 12.93 9.78901 15.33 6.61201 16.64C4.61801 17.462 2.68201 16.791 1.68101 15.439C1.16082 14.7498 0.925581 13.8869 1.02401 13.029C1.13301 12.132 1.61301 11.287 2.44201 10.607C3.65801 9.61 5.36701 8.915 7.21601 8.497C10.997 7.639 15.364 7.747 18.937 9.361L18.938 9.362Z" fill="black"/>
</g>
<defs>
<clipPath id="clip0_56_903">
<rect width="24" height="24" fill="white"/>
</clipPath>
</defs>
</svg>
