<svg id="Layer_2" data-name="Layer 2" xmlns="http://www.w3.org/2000/svg" viewBox="0 0 74.22 18.66"><defs><style>.cls-1{fill:#fff;stroke:#4d2c14;stroke-linecap:round;stroke-miterlimit:10;stroke-width:2px;}.cls-2{fill:#4d2c14;}</style></defs><title>1</title><path class="cls-1" d="M246.33,204.49a3.53,3.53,0,0,1-.64-2.6c.5-3.29,2.61-10.32,11.63-10.64,7.79-.28,10.69,4.82,11.76,8.33a5.24,5.24,0,0,1-2,5.86,15.72,15.72,0,0,1-9,2.46C251.47,207.9,248.14,206.93,246.33,204.49Z" transform="translate(-196.09 -190.24)"/><path class="cls-1" d="M220.08,204.49a3.48,3.48,0,0,0,.63-2.6c-.5-3.29-2.61-10.32-11.63-10.64-7.78-.28-10.69,4.82-11.76,8.33a5.25,5.25,0,0,0,2,5.86,15.73,15.73,0,0,0,9,2.46C214.93,207.9,218.27,206.93,220.08,204.49Z" transform="translate(-196.09 -190.24)"/><circle class="cls-2" cx="59.66" cy="9.83" r="4.5"/><circle class="cls-2" cx="14.86" cy="9.83" r="4.5"/></svg>