<svg id="Layer_2" data-name="Layer 2" xmlns="http://www.w3.org/2000/svg" viewBox="0 0 74.42 14.04"><defs><style>.cls-1{fill:#fff;}.cls-2{fill:none;stroke:#4d2c14;stroke-linecap:round;stroke-miterlimit:10;stroke-width:2px;}.cls-3{fill:#4d2c14;}</style></defs><title>2</title><path class="cls-1" d="M245.12,201s4.74-6.15,11.29-6.43,10.88.83,12,2.21c0,0-5.05,9.71-11.21,9.36S249.27,205.88,245.12,201Z" transform="translate(-196.18 -193.29)"/><path class="cls-2" d="M244.06,202.09s3.34-7.21,14.14-7.77c7.84-.4,11.4,3,11.4,3" transform="translate(-196.18 -193.29)"/><path class="cls-2" d="M244.74,201.52s3.24,5.28,10.77,4.74c9.17-.65,13.09-9.7,13.09-9.7" transform="translate(-196.18 -193.29)"/><circle class="cls-3" cx="59.14" cy="6.38" r="4.4"/><path class="cls-1" d="M221.11,201s-4.62-6.15-11-6.44-10.64.83-11.76,2.22c0,0,4.94,9.71,11,9.36S217.05,205.9,221.11,201Z" transform="translate(-196.18 -193.29)"/><path class="cls-2" d="M222.16,202.11s-3.27-7.21-13.83-7.76c-7.67-.4-11.15,3-11.15,3" transform="translate(-196.18 -193.29)"/><path class="cls-2" d="M221.49,201.54A11.33,11.33,0,0,1,211,206.29c-9-.66-12.79-9.7-12.79-9.7" transform="translate(-196.18 -193.29)"/><ellipse class="cls-3" cx="14.97" cy="6.41" rx="4.31" ry="4.4"/></svg>