<svg id="Layer_2" data-name="Layer 2" xmlns="http://www.w3.org/2000/svg" viewBox="0 0 72.96 11.88"><defs><style>.cls-1{fill:#fff;}.cls-2{fill:none;stroke:#4d2c14;stroke-linecap:round;stroke-miterlimit:10;stroke-width:2px;}.cls-3{fill:#4d2c14;}</style></defs><title>4</title><path class="cls-1" d="M244.4,201.17s6.13-6.43,12.68-5.95A21.38,21.38,0,0,1,268,199.1s-1,2.58-2.65,3.42-6.41,3-9,2.57A60.19,60.19,0,0,1,248,203,22.94,22.94,0,0,1,244.4,201.17Z" transform="translate(-196.58 -194.21)"/><path class="cls-2" d="M268.54,199.1c-13.83-10-24.41,2.36-24.41,2.36" transform="translate(-196.58 -194.21)"/><path class="cls-2" d="M244.13,201.46s-.15.1,7.25,2.83,16.68-2.19,17.16-5.19" transform="translate(-196.58 -194.21)"/><ellipse class="cls-3" cx="59.23" cy="5.18" rx="5" ry="4.82"/><path class="cls-1" d="M221.79,201.17s-6.15-6.43-12.72-5.95a21.47,21.47,0,0,0-10.9,3.88s1,2.58,2.65,3.42,6.43,3,9,2.57a60.16,60.16,0,0,0,8.34-2.06A23.1,23.1,0,0,0,221.79,201.17Z" transform="translate(-196.58 -194.21)"/><path class="cls-2" d="M197.58,199.1c13.86-10,24.48,2.36,24.48,2.36" transform="translate(-196.58 -194.21)"/><path class="cls-2" d="M222.06,201.46s.15.1-7.27,2.83-16.74-2.19-17.21-5.19" transform="translate(-196.58 -194.21)"/><ellipse class="cls-3" cx="13.77" cy="5.18" rx="5.01" ry="4.82"/></svg>