<svg id="Layer_2" data-name="Layer 2" xmlns="http://www.w3.org/2000/svg" viewBox="0 0 75.79 9.72"><defs><style>.cls-1{fill:#fff;}.cls-2{fill:none;stroke:#4d2c14;stroke-linecap:round;stroke-miterlimit:10;stroke-width:2px;}.cls-3{fill:#4d2c14;}</style></defs><title>5</title><path class="cls-1" d="M244.27,201s5.09-5.67,11.61-5.2A33.61,33.61,0,0,1,268,199.25s-3,2.06-4.61,2.89-4.57,1.24-7.61,1.38a30.87,30.87,0,0,1-9.07-1.31A8.21,8.21,0,0,1,244.27,201Z" transform="translate(-195.26 -194.63)"/><path class="cls-2" d="M270.05,200c-20.92-10.59-25.78,1.44-25.78,1.44" transform="translate(-195.26 -194.63)"/><path class="cls-2" d="M244.27,201.43a28.43,28.43,0,0,0,7.95,1.74c8.64.79,13.72-1.16,16.19-3.78" transform="translate(-195.26 -194.63)"/><path class="cls-3" d="M260.86,199.39c0,2.62-2.23,4.38-5,4.38s-5-1.76-5-4.38,2.23-4.26,5-4.26S260.86,196.76,260.86,199.39Z" transform="translate(-195.26 -194.63)"/><path class="cls-1" d="M222,201s-5.09-5.67-11.61-5.2a33.61,33.61,0,0,0-12.09,3.48s3,2.06,4.61,2.89,4.57,1.24,7.61,1.38a30.87,30.87,0,0,0,9.07-1.31A8.21,8.21,0,0,0,222,201Z" transform="translate(-195.26 -194.63)"/><path class="cls-2" d="M196.26,200c20.92-10.59,25.78,1.44,25.78,1.44" transform="translate(-195.26 -194.63)"/><path class="cls-2" d="M222,201.43a28.43,28.43,0,0,1-7.95,1.74c-8.64.79-13.72-1.16-16.19-3.78" transform="translate(-195.26 -194.63)"/><path class="cls-3" d="M205.45,199.39c0,2.62,2.23,4.38,5,4.38s5-1.76,5-4.38-2.23-4.26-5-4.26S205.45,196.76,205.45,199.39Z" transform="translate(-195.26 -194.63)"/></svg>