<svg id="Layer_2" data-name="Layer 2" xmlns="http://www.w3.org/2000/svg" viewBox="0 0 43.5 13.73"><defs><style>.cls-1{fill:#eaa28f;}.cls-2{fill:#dd9283;}.cls-3{fill:none;stroke:#4d2c14;stroke-linecap:round;stroke-miterlimit:10;stroke-width:2px;}</style></defs><title>3</title><path class="cls-1" d="M297.37,195.77c-15.51,4.23-19.05,3.72-19.29,3.68h0c-.25,0-3.77.55-19.28-3.68a25.29,25.29,0,0,0,19.28,8.78h0A25.32,25.32,0,0,0,297.37,195.77Z" transform="translate(-256.27 -192.49)"/><path class="cls-2" d="M286.94,194.38a46.82,46.82,0,0,0-18.07,0,45.35,45.35,0,0,1-9.85.87,52.84,52.84,0,0,0,37.77,0A45.38,45.38,0,0,1,286.94,194.38Z" transform="translate(-256.27 -192.49)"/><path class="cls-3" d="M275.08,204.86a11.32,11.32,0,0,0,5.66,0" transform="translate(-256.27 -192.49)"/><path class="cls-3" d="M278.59,198.74c-17.08,0-20-3.5-20-3.5" transform="translate(-256.27 -192.49)"/><path class="cls-3" d="M297.71,195.24s-2,3.5-19.13,3.5" transform="translate(-256.27 -192.49)"/><line class="cls-3" x1="40.6" y1="1" x2="42.5" y2="3.72"/><line class="cls-3" x1="1" y1="3.72" x2="2.9" y2="1"/></svg>