<svg id="Layer_1" data-name="Layer 1" xmlns="http://www.w3.org/2000/svg" viewBox="0 0 113.42 82.42"><defs><style>.cls-1{fill:#e8f2f2;}.cls-1,.cls-3{stroke:#252d2d;}.cls-1,.cls-2,.cls-3{stroke-linecap:round;stroke-linejoin:round;stroke-width:2px;}.cls-2{fill:none;stroke:#c4d5d4;}.cls-3{fill:#eff6f5;}</style></defs><title>1</title><path class="cls-1" d="M121,77.75a5.67,5.67,0,0,0-5.54,3.49l5.54.32,5.54-.32A5.66,5.66,0,0,0,121,77.75Z" transform="translate(-65.49 -76.75)"/><path class="cls-1" d="M121.51,81.24c-64.64,0-54.43,68.64-54.43,68.64s24.69-14.12,54.43-14.67c29.74.55,55.43,14.67,55.43,14.67S186.15,81.24,121.51,81.24Z" transform="translate(-65.49 -76.75)"/><path class="cls-2" d="M114.53,83.63s-39.89,8.64-35,59.52" transform="translate(-65.49 -76.75)"/><path class="cls-2" d="M127.61,83.5s40.53,6.08,35.12,59.65" transform="translate(-65.49 -76.75)"/><path class="cls-3" d="M177.46,146.35c-7-7.84-30.08-19.92-55.07-20.13h-.28c-25,.21-48.1,12.29-55.07,20.13-2.05,2.3,3.44,11.83,6.53,11.83,14.17,0,15.37-18.51,48.54-18.51h.28c33.17,0,34.37,18.51,48.54,18.51C174,158.18,179.51,148.65,177.46,146.35Z" transform="translate(-65.49 -76.75)"/></svg>