<svg id="Layer_1" data-name="Layer 1" xmlns="http://www.w3.org/2000/svg" viewBox="0 0 143.5 141.99"><defs><style>.cls-1{fill:#2d2d33;}.cls-1,.cls-2{stroke:#111113;stroke-linecap:round;stroke-miterlimit:10;stroke-width:2px;}.cls-2{fill:#e1e1e1;}</style></defs><title>3</title><path class="cls-1" d="M120.79,165.6s-15.59,2-17.28,10c-2.64,12.55.36,25.2,3.66,28.63,6.38,6.64,16.22,8.49,18.13,7Z" transform="translate(-101.5 -70.72)"/><path class="cls-2" d="M108.45,148.86s-3.38,7.15-1.63,23l4.32-1.76a44.13,44.13,0,0,1,2-22.19Z" transform="translate(-101.5 -70.72)"/><circle class="cls-2" cx="6.93" cy="88.75" r="5.1"/><path class="cls-1" d="M225.71,165.6s15.59,2,17.28,10c2.63,12.55-.36,25.2-3.66,28.63-6.39,6.64-16.22,8.49-18.13,7Z" transform="translate(-101.5 -70.72)"/><path class="cls-1" d="M173.87,71.72c-77,0-68.73,77.85-68.73,77.85l12.4-2.51c0-62.76,46-65,54.87-64.84,1,0,2,0,2.93,0,8.77-.15,53.85,2.15,53.85,64.84l12.17,2.51S249.52,71.72,173.87,71.72Z" transform="translate(-101.5 -70.72)"/><path class="cls-2" d="M238,148.86s3.39,7.15,1.64,23l-4.32-1.76a44.13,44.13,0,0,0-2-22.19Z" transform="translate(-101.5 -70.72)"/><circle class="cls-2" cx="136.56" cy="88.75" r="5.1"/></svg>