<svg id="Layer_1" data-name="Layer 1" xmlns="http://www.w3.org/2000/svg" viewBox="0 0 159.97 69.18"><defs><style>.cls-1{fill:#cecdce;}.cls-1,.cls-2{stroke:#4d4c4c;stroke-miterlimit:10;}.cls-2{fill:#fae0e9;}</style></defs><title>2</title><path class="cls-1" d="M100.11,113.67S92,50.56,43.26,51.85c0,0,5.21,15.07,7,27.3,1.69,11.8,9.44,32.93,31,40.75C81.21,119.9,85.59,112.66,100.11,113.67Z" transform="translate(-42.56 -51.33)"/><path class="cls-2" d="M96,113.6S90.15,72.69,57.57,68.38c0,0,2,12.42,3.22,21.05,1.19,8.33,6.66,23.25,21.87,28.77C82.66,118.2,86.82,113.66,96,113.6Z" transform="translate(-42.56 -51.33)"/><path class="cls-1" d="M145,113.67s8.13-63.11,56.86-61.82c0,0-5.22,15.07-7,27.3-1.69,11.8-9.43,32.93-31,40.75C163.88,119.9,159.49,112.66,145,113.67Z" transform="translate(-42.56 -51.33)"/><path class="cls-2" d="M149.1,113.6s5.83-40.91,38.42-45.22c0,0-2,12.42-3.23,21.05-1.19,8.33-6.65,23.25-21.87,28.77C162.42,118.2,158.26,113.66,149.1,113.6Z" transform="translate(-42.56 -51.33)"/></svg>