<svg id="Layer_1" data-name="Layer 1" xmlns="http://www.w3.org/2000/svg" viewBox="0 0 160.05 94.06"><defs><style>.cls-1{fill:#298c37;stroke:#39642a;stroke-linecap:round;stroke-linejoin:round;stroke-width:2px;}.cls-2{fill:#f3f0d7;}.cls-3{fill:#ffd550;}</style></defs><title>1</title><path class="cls-1" d="M189.8,105.09c-20.08-32.24-63.9-33.7-68.06-33.77h-.32c-4.1.07-46.83,1.55-66.41,33.77C46,120,46.93,137.82,53.68,146c5.25,6.37,15.87,9.85,15.87,9.85s5-48.72,52-48.83c48.18.11,53.3,48.83,53.3,48.83s10.89-3.48,16.27-9.85C198.07,137.82,199.08,120,189.8,105.09Z" transform="translate(-43.38 -63.71)"/><path class="cls-1" d="M55.49,135s-8.48-3.53-9.71,1.53a9.89,9.89,0,0,1-1.4,3.71S51,146.39,55.49,135Z" transform="translate(-43.38 -63.71)"/><path class="cls-1" d="M55.49,139.37s-3.83,2.21-2.47,10.47C53,149.84,59.66,149.93,55.49,139.37Z" transform="translate(-43.38 -63.71)"/><path class="cls-1" d="M68.5,115.27s-3.59,6.16.68,8.21S71.61,116.69,68.5,115.27Z" transform="translate(-43.38 -63.71)"/><path class="cls-1" d="M122.36,86.28s-7.12.2-6.62,4.91S122.79,89.68,122.36,86.28Z" transform="translate(-43.38 -63.71)"/><path class="cls-1" d="M90.47,113.59s-3.58,5.61,4.08,8.8C94.55,122.39,98.51,115.51,90.47,113.59Z" transform="translate(-43.38 -63.71)"/><path class="cls-1" d="M109.23,81s-3.57,5.61,4.09,8.8C113.32,89.78,117.27,82.9,109.23,81Z" transform="translate(-43.38 -63.71)"/><path class="cls-1" d="M88.33,113.59s-7.88-2.69-8.81,3.31C79.52,116.9,83.64,120.87,88.33,113.59Z" transform="translate(-43.38 -63.71)"/><path class="cls-1" d="M92,111.63s7.06-7,12.76.85C104.76,112.48,98.55,119.29,92,111.63Z" transform="translate(-43.38 -63.71)"/><path class="cls-1" d="M156.34,84.05s1.87-10.72,11.06-8.93C167.4,75.12,170,84.56,156.34,84.05Z" transform="translate(-43.38 -63.71)"/><path class="cls-1" d="M154.19,84.13s-7.91-3.28-5-10C149.23,74.1,156.92,73.76,154.19,84.13Z" transform="translate(-43.38 -63.71)"/><path class="cls-1" d="M163.65,137.87S161,129.74,168,127.58C168,127.58,173.3,133.19,163.65,137.87Z" transform="translate(-43.38 -63.71)"/><path class="cls-1" d="M68,91.88s-2.2-7.78,0-8.42,5.52,5.62,4.5,6.32l3.21-9.26S78,82.82,78,84.86" transform="translate(-43.38 -63.71)"/><path class="cls-1" d="M100.81,77.2s-8.14-2.68-5.29-5,6.4,3.45,6.4,3.45.8-4.34,2.33-5.36,1.53,5.62.51,5.87,5-6.13,6-6.64,3.45,3.62,2,4.56,6.89-5.32,8-5.32S123.66,73,123.66,73" transform="translate(-43.38 -63.71)"/><path class="cls-1" d="M54.79,107a9.84,9.84,0,0,1-4.86,2.34c-3.38.77,1.62.78,4.86,4.22" transform="translate(-43.38 -63.71)"/><path class="cls-1" d="M194.86,118.52a9.94,9.94,0,0,1,2.91-4.54c2.47-2.43-1.79.18-6.36-1" transform="translate(-43.38 -63.71)"/><path class="cls-1" d="M194.17,122.81a10,10,0,0,1,4.44-3.08c3.22-1.28-1.72-.51-5.47-3.4" transform="translate(-43.38 -63.71)"/><ellipse class="cls-1" cx="68.43" cy="139.37" rx="1.58" ry="2.48" transform="translate(-93.62 -24.46) rotate(-23.7)"/><ellipse class="cls-1" cx="90.45" cy="98.46" rx="2.12" ry="1.6" transform="translate(-80.49 -5.29) rotate(-30)"/><circle class="cls-1" cx="42.19" cy="32.42" r="1.13"/><circle class="cls-1" cx="86.4" cy="19.74" r="1.13"/><circle class="cls-1" cx="14.65" cy="63.6" r="1.63"/><circle class="cls-1" cx="129.46" cy="65.08" r="1.13"/><path class="cls-1" d="M169.46,98.79s3.37-4.94,7.84-4.29,11.13-2.54,10.75-3.66S185.71,108.19,169.46,98.79Z" transform="translate(-43.38 -63.71)"/><path class="cls-1" d="M168.79,101s-3.72,6,0,8.54C168.79,109.56,174.77,107,168.79,101Z" transform="translate(-43.38 -63.71)"/><ellipse class="cls-1" cx="161.17" cy="95.12" rx="2.27" ry="5.79" transform="translate(-54.33 104.89) rotate(-53.67)"/><path class="cls-1" d="M138.47,107.56s-8.3,5.07-5.75,6.43,8.3-5.15,8.3-5.15,1.87,1.52,2,6.63a7.07,7.07,0,0,1,4.3-1.88c2.28,0,3.06,8.8,3.06,8.8s.38-6.68,3.13-7.8" transform="translate(-43.38 -63.71)"/><path class="cls-1" d="M67.72,147.17s3.28-3.4,7.16-.79C74.88,146.38,72.81,150.2,67.72,147.17Z" transform="translate(-43.38 -63.71)"/><path class="cls-1" d="M156,128.83s6.81,1,9-2.93S156,128.83,156,128.83Z" transform="translate(-43.38 -63.71)"/><path class="cls-1" d="M199.83,139s-5.45,4.21-8.06-.31C191.77,138.64,192.16,134.31,199.83,139Z" transform="translate(-43.38 -63.71)"/><path class="cls-1" d="M197.82,147.74s-8.43.16-7.68-6.19C190.14,141.55,193.68,137.59,197.82,147.74Z" transform="translate(-43.38 -63.71)"/><ellipse class="cls-1" cx="177.27" cy="134.37" rx="1.5" ry="3.51" transform="translate(-88.49 75.65) rotate(-38.45)"/><circle class="cls-1" cx="134.37" cy="62.87" r="2.37"/><ellipse class="cls-1" cx="132.55" cy="89.59" rx="1.85" ry="2.67" transform="translate(-68.21 -2.88) rotate(-23.7)"/><path class="cls-2" d="M121,102.93c0-.65-2.3-2.07-5.2-1.46,2.92-2.12,3.11-4.25,2.65-4.71s-2.94.36-4.72,2.64c.55-3.11-.8-5.2-1.46-5.2s-1.7,2.55-1.46,5.2c-1.64-2.26-4.25-3.1-4.71-2.64s.43,3.1,2.65,4.71c-2.82-.76-5.21.81-5.21,1.46s2.1,1.76,5.21,1.46c-2.69,1.68-3.11,4.25-2.65,4.72s3.28-.14,4.71-2.65c-.36,3.08.81,5.2,1.46,5.2s2.34-2.34,1.46-5.2c1.89,2.44,4.26,3.11,4.72,2.65s-.2-3.23-2.65-4.72C118.89,105,121,103.58,121,102.93Z" transform="translate(-43.38 -63.71)"/><path class="cls-2" d="M178.08,87c0-.65-1.68-2.19-4.05-1.41,1.78-.91,1.85-3,1.39-3.44S173,81.82,172,83.54c.44-1.66-.84-3-1.49-3s-1.71,1.22-1.43,3c-1.19-1.76-3-1.93-3.51-1.46S165,84.33,167,85.6c-3-.54-4.47.82-4.47,1.48S164,89.23,167,88.53c-2.75,1.48-2.87,3.81-2.41,4.27s3.28-.15,4.47-2.21c-.47,2.66.82,4.64,1.47,4.64s2-2.07,1.45-4.64c1.76,1.89,3.75,2.25,4.21,1.78s.1-2.51-2.14-3.84C176.15,89.12,178.08,87.67,178.08,87Z" transform="translate(-43.38 -63.71)"/><ellipse class="cls-3" cx="170.55" cy="86.81" rx="2.05" ry="2.62" transform="translate(-17.63 148.23) rotate(-67.81)"/><path class="cls-2" d="M198.6,136.94c.82-.32,1.92-3.2-.25-5.79,2,1.78,4.67.85,5,0s-.76-3.17-3.45-3.66c2.29-.28,3.33-2.56,3-3.38s-2.37-1.53-4.47-.29c1.61-2.38.89-4.79.08-5.14s-3.07.51-3.7,3.57c-.83-4.09-3.26-5.2-4.08-4.87s-2,2.89.41,6.33c-3.24-2.7-6.22-1.7-6.57-.89s1.82,4,5,4.52c-3.57.73-5.41,3.33-5.09,4.15s3.57,1.43,6.55-.48c-1.5,3.14-.95,5.81-.14,6.16s3.2-1.12,3.76-4.6C195,135.56,197.78,137.27,198.6,136.94Z" transform="translate(-43.38 -63.71)"/><ellipse class="cls-3" cx="195.1" cy="127.39" rx="3.54" ry="2.78" transform="translate(22.52 257.58) rotate(-89.46)"/><path class="cls-2" d="M67.11,94.93c-.61-.53-3.71-.2-4.59,2.69.57-2.41-1.32-4.16-2.13-4.09s-2.5,2.16-1.49,4.37c-1.07-1.87-3.8-1.8-4.33-1.19s-.27,3,2,3.94C54,100,52.06,102,52.13,102.84s1.46,2.66,4.7,1.43c-3.88,2-2.83,4.87-2.22,5.4s3.54.64,5-3c-1.26,4,1.29,5.78,2.1,5.72s3.7-2,1.52-6c2.12,2.58,5,3,5.55,2.35s-.37-3.51-3.2-5.1c3.56.61,5.14-1.72,5.07-2.53s-2.47-2.28-5.35-1.09C68.13,98.5,67.73,95.46,67.11,94.93Z" transform="translate(-43.38 -63.71)"/><ellipse class="cls-3" cx="60.78" cy="102.23" rx="3.25" ry="2.55" transform="translate(-99.29 15.52) rotate(-48.12)"/><path class="cls-2" d="M142.21,71.94c0-.81-2.3-2.92-5.05-1.67,2.18-1.17,2.24-3.74,1.66-4.3s-3.28-.45-4.26,1.77c.69-2-1.17-4-2-4s-2.4,1.75-1.65,4.09c-1.2-2.31-4-2.45-4.56-1.87s-1,2.86,2,4.47c-4-1.61-5.53,1.1-5.52,1.91s1.86,3.07,5.57,1.71c-3.85,1.72-3.48,4.79-2.9,5.35s4,1.44,5.5-2.82c-.53,3.3,1.1,5.73,1.91,5.72s2.39-2.6,1.72-5.78c1.89,3.08,4.68,2.72,5.25,2.13s.07-3.36-2.73-4.73C140.21,75.06,142.22,72.75,142.21,71.94Z" transform="translate(-43.38 -63.71)"/><ellipse class="cls-3" cx="132.55" cy="72.01" rx="2.55" ry="3.25" transform="translate(16.05 140.24) rotate(-89.52)"/><path class="cls-2" d="M101.75,84.05c-.25-.55-1.72-.86-3.54.38,1-1.86.41-2.86-.16-3.07s-1.84.22-2.42,2.12c-.54-2.2-1.94-2.17-2.49-1.92s-.92,2,.32,3.36c-1.45-.72-3-.49-3.26.09s.22,1.89,2,2.21c-2.27.41-2.71,1.78-2.45,2.34s2,1.07,3.91-.34c-1.83,2.38-.48,3.43.1,3.64s2-.69,1.93-3.3c.28,2.74,2.14,2.64,2.69,2.38s1.58-1.54-.69-3.48c2.25,1.54,3.72.91,3.93.33s-.05-2.1-2.41-2.19C101.07,85.93,102,84.61,101.75,84.05Z" transform="translate(-43.38 -63.71)"/><ellipse class="cls-3" cx="95.62" cy="86.69" rx="2.46" ry="1.93" transform="translate(-70.02 -18.37) rotate(-23.51)"/><path class="cls-2" d="M171.41,153.84c.17.6,1.56,1.14,3.56.22-1.25,1.67-.88,2.76-.34,3.06s1.84.08,2.73-1.7c.17,2.26,1.55,2.47,2.14,2.31s1.23-1.79.24-3.36c1.31.94,2.93,1,3.23.45s.09-1.9-1.6-2.51c2.29,0,3-1.31,2.8-1.91s-1.75-1.37-3.92-.31c2.21-2,1-3.3.51-3.6s-2.14.34-2.45,2.93c.18-2.75-1.67-3-2.26-2.79s-1.81,1.25.1,3.55c-2-1.9-3.52-1.52-3.82-1s-.29,2.09,2,2.56C172.4,152.11,171.25,153.25,171.41,153.84Z" transform="translate(-43.38 -63.71)"/><ellipse class="cls-3" cx="177.91" cy="152.26" rx="2.46" ry="1.93" transform="translate(-74.88 -16.25) rotate(-13.97)"/><path class="cls-2" d="M56.06,132c-.54.29-.77,1.77.56,3.52-1.91-.86-2.88-.26-3.06.33s.32,1.82,2.24,2.3c-2.17.66-2.07,2.05-1.79,2.59s2,.82,3.34-.49c-.64,1.48-.33,3.07.26,3.25s1.87-.32,2.1-2.11c.53,2.23,1.92,2.61,2.47,2.32s1-2-.54-3.89c2.47,1.71,3.44.3,3.62-.28s-.79-2-3.39-1.76c2.73-.42,2.52-2.27,2.24-2.81s-1.62-1.5-3.45.87c1.43-2.33.72-3.77.14-4s-2.1.17-2.07,2.53C58,132.61,56.6,131.74,56.06,132Z" transform="translate(-43.38 -63.71)"/><ellipse class="cls-3" cx="59.01" cy="138.02" rx="1.93" ry="2.46" transform="translate(-98.7 -22.96) rotate(-26.46)"/><circle class="cls-3" cx="68.91" cy="39.06" r="2.6"/><path class="cls-2" d="M169.81,116.59c0-.5-1.75-1.58-4-1.11,2.23-1.62,2.38-3.25,2-3.6s-2.24.27-3.59,2c.41-2.38-.62-4-1.12-4s-1.29,1.95-1.11,4c-1.25-1.73-3.24-2.37-3.59-2s.32,2.37,2,3.6c-2.14-.58-4,.61-4,1.11s1.6,1.34,4,1.11c-2,1.29-2.37,3.25-2,3.6s2.5-.11,3.59-2c-.28,2.35.62,4,1.11,4s1.78-1.78,1.12-4c1.43,1.87,3.24,2.37,3.59,2s-.14-2.46-2-3.6C168.19,118.18,169.81,117.09,169.81,116.59Z" transform="translate(-43.38 -63.71)"/><circle class="cls-3" cx="119.77" cy="52.75" r="1.99"/><path class="cls-2" d="M90.58,105.19c0-.56-2-1.79-4.5-1.26,2.53-1.84,2.69-3.69,2.29-4.09s-2.55.31-4.08,2.3c.46-2.71-.7-4.51-1.27-4.51s-1.47,2.21-1.27,4.51c-1.42-2-3.68-2.7-4.08-2.3s.37,2.69,2.29,4.09c-2.43-.66-4.51.7-4.51,1.26s1.82,1.53,4.51,1.27c-2.32,1.45-2.69,3.68-2.29,4.08s2.84-.12,4.08-2.29c-.31,2.67.7,4.51,1.27,4.51s2-2,1.27-4.51c1.63,2.12,3.68,2.69,4.08,2.29s-.17-2.79-2.29-4.08C88.74,107,90.58,105.76,90.58,105.19Z" transform="translate(-43.38 -63.71)"/><circle class="cls-3" cx="39.64" cy="41.34" r="2.26"/><path class="cls-2" d="M155.13,102c.35-.75-1.51-3.64-5.17-4.52,4.51-.83,5.89-3.18,5.61-4s-3.56-1.19-6.84.46c2.32-3.28,1.92-6.41,1.17-6.77s-3.35,2-4.52,5.17c-.65-3.5-3.18-5.89-4-5.61s-1.2,3.79.46,6.85c-2.81-2.41-6.41-1.93-6.77-1.18s1.44,3.16,5.17,4.52c-4,.46-5.89,3.18-5.62,4s3.84,1.64,6.85-.46c-2.1,3.34-1.92,6.41-1.17,6.77s3.95-1.41,4.52-5.17c.82,3.83,3.18,5.89,4,5.62s1.54-3.8-.46-6.85C151.54,103.25,154.77,102.79,155.13,102Z" transform="translate(-43.38 -63.71)"/><circle class="cls-3" cx="101.83" cy="33.36" r="3.31"/></svg>